<?xml version="1.0" encoding="utf-8"?>
<!-- Generator: Adobe Illustrator 21.0.2, SVG Export Plug-In . SVG Version: 6.00 Build 0)  -->
<svg version="1.1" id="linee" xmlns="http://www.w3.org/2000/svg" xmlns:xlink="http://www.w3.org/1999/xlink" x="0px" y="0px"
	 viewBox="0 0 357.7 911.8" style="enable-background:new 0 0 357.7 911.8;" xml:space="preserve">
<style type="text/css">
	.st0{fill:none;stroke:#E50707;stroke-width:3;stroke-miterlimit:10;}
	.st1{fill:none;stroke:#E50707;stroke-width:3;stroke-miterlimit:10;stroke-dasharray:4,3;}
	.st2{fill:none;stroke:#FFD508;stroke-width:3;stroke-miterlimit:10;stroke-dasharray:4,3;}
	.st3{fill:none;stroke:#FFD508;stroke-width:3;stroke-miterlimit:10;}
	.st4{fill:none;stroke:#1F874E;stroke-width:3;stroke-miterlimit:10;}
</style>
<g id="rosso">
	<line class="st0" x1="115.4" y1="134" x2="33.9" y2="134"/>
	<line class="st0" x1="197.6" y1="454.3" x2="112.8" y2="454.3"/>
	<line class="st0" x1="62.6" y1="426.6" x2="31.8" y2="426.6"/>
	<line class="st1" x1="141.2" y1="667.5" x2="7.4" y2="667.5"/>
	<line class="st0" x1="195.4" y1="728" x2="195.4" y2="713.5"/>
	<line class="st0" x1="255" y1="827.9" x2="58.1" y2="827.9"/>
	<line class="st0" x1="195.2" y1="720.8" x2="58.1" y2="720.8"/>
	<line class="st0" x1="8.7" y1="668.9" x2="8.7" y2="614.9"/>
	<line class="st0" x1="34.4" y1="188.1" x2="34.4" y2="79.3"/>
	<line class="st0" x1="101.3" y1="82.3" x2="101.3" y2="0"/>
	<line class="st0" x1="59.6" y1="829.4" x2="59.6" y2="719.3"/>
	<line class="st0" x1="140.4" y1="720.1" x2="140.4" y2="453.6"/>
	<line class="st0" x1="114.3" y1="453.9" x2="114.3" y2="400.8"/>
	<line class="st1" x1="33.4" y1="508.2" x2="33.4" y2="425.1"/>
	<line class="st1" x1="113.9" y1="242.7" x2="113.9" y2="133.5"/>
	<line class="st0" x1="61.2" y1="428.1" x2="61.2" y2="240.8"/>
	<line class="st0" x1="112.7" y1="241.2" x2="7.7" y2="241.2"/>
	<line class="st1" x1="59.7" y1="347.9" x2="8.3" y2="347.9"/>
	<line class="st1" x1="216.7" y1="80.8" x2="33.9" y2="80.8"/>
	<line class="st0" x1="115.8" y1="401" x2="60.2" y2="401"/>
	<line class="st0" x1="15.9" y1="614.4" x2="1.4" y2="614.4"/>
	<line class="st0" x1="41.7" y1="186.7" x2="27.2" y2="186.7"/>
	<line class="st0" x1="356.2" y1="220.5" x2="341.7" y2="220.5"/>
	<line class="st0" x1="40.4" y1="508" x2="25.9" y2="508"/>
	<line class="st0" x1="217.7" y1="74.1" x2="217.7" y2="88.6"/>
	<line class="st0" x1="7.6" y1="248.4" x2="7.6" y2="233.9"/>
	<line class="st0" x1="7" y1="355.4" x2="7" y2="340.9"/>
	<line class="st0" x1="159.4" y1="388.3" x2="159.4" y2="373.8"/>
	<line class="st0" x1="197.7" y1="461.6" x2="197.7" y2="447.1"/>
	<line class="st0" x1="242.3" y1="701.4" x2="323.9" y2="701.4"/>
	<line class="st0" x1="160.2" y1="381" x2="245.1" y2="381"/>
	<line class="st0" x1="276.1" y1="408.6" x2="325.9" y2="408.6"/>
	<line class="st1" x1="112.4" y1="187.6" x2="350" y2="187.6"/>
	<line class="st0" x1="349.1" y1="186.1" x2="349.1" y2="220.7"/>
	<line class="st0" x1="323.9" y1="648.3" x2="323.9" y2="754.5"/>
	<line class="st0" x1="217.5" y1="186.1" x2="217.5" y2="381.8"/>
	<line class="st0" x1="243.7" y1="379.5" x2="243.7" y2="434.5"/>
	<line class="st1" x1="324.3" y1="327.1" x2="324.3" y2="408"/>
	<line class="st1" x1="243.8" y1="592.7" x2="243.8" y2="701.9"/>
	<line class="st0" x1="277.6" y1="407.9" x2="277.6" y2="594.5"/>
	<line class="st0" x1="245" y1="594.2" x2="350" y2="594.2"/>
	<line class="st1" x1="280.2" y1="487.5" x2="350.7" y2="487.5"/>
	<line class="st0" x1="242.2" y1="434.3" x2="277.6" y2="434.3"/>
	<line class="st0" x1="316.3" y1="648.6" x2="330.8" y2="648.6"/>
	<line class="st0" x1="316.6" y1="754.5" x2="331.2" y2="754.5"/>
	<line class="st0" x1="317.1" y1="327.3" x2="331.6" y2="327.3"/>
	<line class="st0" x1="350.1" y1="587.5" x2="350.1" y2="602"/>
	<line class="st0" x1="350.7" y1="479.9" x2="350.7" y2="494.5"/>
	<line class="st1" x1="255" y1="826.5" x2="255" y2="911.8"/>
</g>
<g id="giallo">
	<line class="st2" x1="349.2" y1="108.1" x2="140.6" y2="108.1"/>
	<line class="st3" x1="35.6" y1="400.9" x2="6.8" y2="400.9"/>
	<line class="st3" x1="60.7" y1="454.1" x2="6.8" y2="454.1"/>
	<line class="st3" x1="61.8" y1="534.2" x2="7" y2="534.2"/>
	<line class="st3" x1="113.9" y1="587.2" x2="8.3" y2="587.2"/>
	<line class="st3" x1="115.3" y1="694.1" x2="7" y2="694.1"/>
	<line class="st3" x1="142.2" y1="747.4" x2="7.2" y2="747.4"/>
	<line class="st2" x1="141.8" y1="801.1" x2="8.3" y2="801.1"/>
	<line class="st2" x1="101.5" y1="854.6" x2="8.3" y2="854.6"/>
	<line class="st2" x1="296.5" y1="320.9" x2="34.2" y2="320.9"/>
	<line class="st3" x1="142" y1="214" x2="4.9" y2="214"/>
	<line class="st2" x1="140" y1="160.6" x2="6.6" y2="160.6"/>
	<line class="st3" x1="140.9" y1="212.5" x2="140.9" y2="322.3"/>
	<line class="st2" x1="113.8" y1="585.7" x2="113.8" y2="694.5"/>
	<line class="st2" x1="8.3" y1="400.6" x2="8.3" y2="455.6"/>
	<line class="st3" x1="61" y1="452.6" x2="61" y2="535.7"/>
	<line class="st3" x1="8.5" y1="532.8" x2="8.5" y2="588.7"/>
	<line class="st3" x1="101.5" y1="853.1" x2="101.5" y2="911.8"/>
	<line class="st3" x1="8.5" y1="693.2" x2="8.5" y2="748.9"/>
	<line class="st3" x1="8.5" y1="799.6" x2="8.5" y2="856.1"/>
	<line class="st3" x1="141.4" y1="745.9" x2="141.4" y2="802.5"/>
	<line class="st3" x1="178.3" y1="0" x2="178.3" y2="108.1"/>
	<line class="st3" x1="6.4" y1="159.1" x2="6.4" y2="215.5"/>
	<line class="st3" x1="34" y1="319.4" x2="34" y2="401.1"/>
	<line class="st3" x1="141.2" y1="106.6" x2="141.2" y2="162.1"/>
	<line class="st2" x1="215.9" y1="727.3" x2="350.3" y2="727.3"/>
	<line class="st3" x1="322.2" y1="434.4" x2="350.9" y2="434.4"/>
	<line class="st3" x1="297" y1="381.2" x2="350.9" y2="381.2"/>
	<line class="st3" x1="295.2" y1="301.2" x2="349.5" y2="301.2"/>
	<line class="st3" x1="299.1" y1="248.2" x2="349.5" y2="248.2"/>
	<line class="st3" x1="297.6" y1="141.3" x2="349.5" y2="141.3"/>
	<line class="st2" x1="217.7" y1="514.5" x2="323.5" y2="514.5"/>
	<line class="st3" x1="215.3" y1="621.3" x2="350.7" y2="621.3"/>
	<line class="st2" x1="217.7" y1="674.7" x2="351.2" y2="674.7"/>
	<line class="st3" x1="142.2" y1="776.2" x2="351.6" y2="776.2"/>
	<line class="st3" x1="216.8" y1="621.3" x2="216.8" y2="512.9"/>
	<line class="st2" x1="299.1" y1="249.7" x2="299.1" y2="140.9"/>
	<line class="st2" x1="349.5" y1="434.7" x2="349.5" y2="379.8"/>
	<line class="st3" x1="296.7" y1="382.8" x2="296.7" y2="299.7"/>
	<line class="st3" x1="349.2" y1="302.7" x2="349.2" y2="246.7"/>
	<line class="st3" x1="349.2" y1="142.8" x2="349.2" y2="106.6"/>
	<line class="st3" x1="351.3" y1="676.2" x2="351.3" y2="619.8"/>
	<line class="st3" x1="350.3" y1="777.7" x2="350.3" y2="725.7"/>
	<line class="st3" x1="323.7" y1="516" x2="323.7" y2="434.3"/>
	<line class="st3" x1="217.1" y1="728.8" x2="217.1" y2="673.2"/>
</g>
<g id="verde">
	<line class="st4" x1="177.2" y1="911.8" x2="177.2" y2="514.5"/>
	<line class="st4" x1="255" y1="0" x2="255" y2="284.2"/>
	<line class="st4" x1="100.1" y1="284.2" x2="256.5" y2="284.2"/>
	<line class="st4" x1="100.1" y1="516" x2="177.2" y2="516"/>
	<line class="st4" x1="101.5" y1="282.7" x2="101.5" y2="517.4"/>
</g>
</svg>
