<svg id="Linee" xmlns="http://www.w3.org/2000/svg" viewBox="0 0 357.72 911.77">
  <defs>
    <style>
      .cls-1, .cls-2, .cls-3, .cls-4, .cls-5, .cls-6 {
        fill: none;
        stroke-miterlimit: 10;
        stroke-width: 3px;
      }

      .cls-1, .cls-2 {
        stroke: #e50707;
      }

      .cls-2, .cls-3 {
        stroke-dasharray: 4 3;
      }

      .cls-3, .cls-4 {
        stroke: #ffd508;
      }

      .cls-5 {
        stroke: #1a46e5;
      }

      .cls-6 {
        stroke: #1f874e;
      }
    </style>
  </defs>
  <title>floor2</title>
  <g>
    <line class="cls-1" x1="115.38" y1="133.96" x2="33.86" y2="133.96"/>
    <line class="cls-1" x1="197.52" y1="454.33" x2="112.66" y2="454.33"/>
    <line class="cls-1" x1="62.62" y1="426.79" x2="31.97" y2="426.79"/>
    <line class="cls-2" x1="141.24" y1="667.45" x2="7.37" y2="667.45"/>
    <line class="cls-1" x1="168.11" y1="862.24" x2="168.11" y2="847.72"/>
    <line class="cls-1" x1="195.67" y1="728.24" x2="195.67" y2="713.72"/>
    <line class="cls-2" x1="164.26" y1="854.61" x2="86.7" y2="854.61"/>
    <line class="cls-1" x1="88.31" y1="827.93" x2="58.12" y2="827.93"/>
    <line class="cls-1" x1="195.16" y1="720.78" x2="58.13" y2="720.78"/>
    <line class="cls-3" x1="141.87" y1="108.09" x2="7.37" y2="108.09"/>
    <line class="cls-4" x1="34.37" y1="400.93" x2="8.27" y2="400.93"/>
    <line class="cls-4" x1="60.72" y1="454.13" x2="6.83" y2="454.13"/>
    <line class="cls-4" x1="61.85" y1="534.19" x2="8.27" y2="534.19"/>
    <line class="cls-4" x1="113.94" y1="587.18" x2="8.27" y2="587.18"/>
    <line class="cls-4" x1="113.99" y1="694.09" x2="8.27" y2="694.09"/>
    <line class="cls-4" x1="142.21" y1="747.4" x2="7.19" y2="747.4"/>
    <line class="cls-3" x1="141.83" y1="801.09" x2="8.27" y2="801.09"/>
    <line class="cls-3" x1="61.87" y1="854.58" x2="8.27" y2="854.58"/>
    <line class="cls-3" x1="197.19" y1="320.91" x2="34.25" y2="320.91"/>
    <line class="cls-4" x1="142.02" y1="214.04" x2="7.04" y2="214.04"/>
    <line class="cls-3" x1="140.01" y1="160.63" x2="6.55" y2="160.63"/>
    <line class="cls-4" x1="62.04" y1="54.12" x2="6.16" y2="54.12"/>
    <line class="cls-1" x1="87.06" y1="911.77" x2="87.06" y2="826.53"/>
    <line class="cls-1" x1="8.66" y1="668.94" x2="8.66" y2="614.92"/>
    <line class="cls-1" x1="33.82" y1="187.06" x2="33.82"/>
    <line class="cls-1" x1="59.57" y1="828.46" x2="59.57" y2="720.16"/>
    <line class="cls-1" x1="140.4" y1="720.14" x2="140.4" y2="453.59"/>
    <line class="cls-1" x1="114.06" y1="454" x2="114.06" y2="400.86"/>
    <line class="cls-2" x1="33.37" y1="508.24" x2="33.37" y2="427.34"/>
    <line class="cls-2" x1="113.89" y1="242.68" x2="113.89" y2="133.5"/>
    <line class="cls-1" x1="61.24" y1="427.48" x2="61.24" y2="240.85"/>
    <line class="cls-5" x1="180.12" y1="911.77" x2="180.12"/>
    <line class="cls-4" x1="140.87" y1="214.09" x2="140.87" y2="322.32"/>
    <line class="cls-3" x1="113.77" y1="585.69" x2="113.77" y2="694.5"/>
    <line class="cls-3" x1="8.27" y1="400.62" x2="8.27" y2="455.59"/>
    <line class="cls-4" x1="60.98" y1="452.6" x2="60.98" y2="535.66"/>
    <line class="cls-4" x1="8.54" y1="532.81" x2="8.54" y2="588.67"/>
    <line class="cls-4" x1="61.31" y1="853.16" x2="61.31" y2="911.77"/>
    <line class="cls-4" x1="8.54" y1="693.21" x2="8.54" y2="747.19"/>
    <line class="cls-4" x1="8.54" y1="799.6" x2="8.54" y2="856"/>
    <line class="cls-4" x1="141.41" y1="746.69" x2="141.41" y2="802.54"/>
    <line class="cls-4" x1="61.03" x2="61.03" y2="55.16"/>
    <line class="cls-4" x1="6.45" y1="160.94" x2="6.45" y2="215.46"/>
    <line class="cls-4" x1="7.37" y1="52.72" x2="7.37" y2="109.63"/>
    <line class="cls-4" x1="34.05" y1="319.41" x2="34.05" y2="401.09"/>
    <line class="cls-4" x1="140.59" y1="108.07" x2="140.59" y2="162.21"/>
    <line class="cls-1" x1="112.72" y1="241.19" x2="7.74" y2="241.19"/>
    <line class="cls-2" x1="59.72" y1="347.89" x2="8.27" y2="347.89"/>
    <line class="cls-2" x1="194.91" y1="80.81" x2="33.82" y2="80.81"/>
    <line class="cls-1" x1="115.13" y1="401.03" x2="59.57" y2="401.03"/>
    <line class="cls-6" x1="33.11" y1="911.77" x2="33.11" y2="613.17"/>
    <line class="cls-6" x1="197.24" y1="561" x2="88" y2="561"/>
    <line class="cls-6" x1="88.48" y1="614.24" x2="31.75" y2="614.24"/>
    <line class="cls-1" x1="14.52" y1="614.38" y2="614.38"/>
    <line class="cls-1" x1="41.41" y1="186.73" x2="26.89" y2="186.73"/>
    <line class="cls-1" x1="41.41" y1="508.05" x2="26.89" y2="508.05"/>
    <line class="cls-1" x1="195.48" y1="74.11" x2="195.48" y2="88.63"/>
    <line class="cls-1" x1="7.61" y1="247.84" x2="7.61" y2="233.32"/>
    <line class="cls-1" x1="6.97" y1="355.42" x2="6.97" y2="340.9"/>
    <line class="cls-6" x1="87.73" y1="615.74" x2="87.73"/>
  </g>
  <g>
    <line class="cls-1" x1="242.33" y1="701.4" x2="323.86" y2="701.4"/>
    <line class="cls-1" x1="160.2" y1="381.03" x2="245.06" y2="381.03"/>
    <path class="cls-5" d="M990.17,447.31" transform="translate(-570.46 -65)"/>
    <line class="cls-1" x1="295.1" y1="408.57" x2="325.74" y2="408.57"/>
    <line class="cls-2" x1="216.48" y1="167.91" x2="350.35" y2="167.91"/>
    <line class="cls-1" x1="162.05" y1="107.12" x2="162.05" y2="121.64"/>
    <line class="cls-1" x1="269.41" y1="7.43" x2="299.6" y2="7.43"/>
    <line class="cls-1" x1="162.56" y1="114.58" x2="299.59" y2="114.58"/>
    <line class="cls-3" x1="215.85" y1="727.27" x2="350.34" y2="727.27"/>
    <line class="cls-4" x1="323.34" y1="434.43" x2="349.45" y2="434.43"/>
    <line class="cls-4" x1="297" y1="381.23" x2="350.89" y2="381.23"/>
    <line class="cls-4" x1="295.87" y1="301.17" x2="349.45" y2="301.17"/>
    <line class="cls-4" x1="243.78" y1="248.18" x2="349.45" y2="248.18"/>
    <line class="cls-4" x1="243.72" y1="141.27" x2="349.45" y2="141.27"/>
    <line class="cls-4" x1="215.5" y1="87.96" x2="350.52" y2="87.96"/>
    <line class="cls-3" x1="215.89" y1="34.27" x2="349.45" y2="34.27"/>
    <line class="cls-3" x1="160.53" y1="514.45" x2="323.47" y2="514.45"/>
    <line class="cls-4" x1="215.69" y1="621.32" x2="350.68" y2="621.32"/>
    <line class="cls-3" x1="217.71" y1="674.73" x2="351.17" y2="674.73"/>
    <line class="cls-4" x1="295.68" y1="781.24" x2="351.56" y2="781.24"/>
    <line class="cls-1" x1="270.66" x2="270.66" y2="8.83"/>
    <line class="cls-1" x1="349.06" y1="166.42" x2="349.06" y2="220.44"/>
    <line class="cls-1" x1="323.9" y1="648.3" x2="323.9" y2="911.77"/>
    <line class="cls-1" x1="298.14" y1="6.9" x2="298.14" y2="115.2"/>
    <line class="cls-1" x1="217.32" y1="115.22" x2="217.32" y2="381.77"/>
    <line class="cls-1" x1="243.66" y1="381.36" x2="243.66" y2="434.5"/>
    <line class="cls-2" x1="324.34" y1="327.12" x2="324.34" y2="408.02"/>
    <line class="cls-2" x1="243.83" y1="592.68" x2="243.83" y2="701.86"/>
    <line class="cls-1" x1="296.48" y1="407.88" x2="296.48" y2="594.51"/>
    <path class="cls-5" d="M949.05,976.77" transform="translate(-570.46 -65)"/>
    <path class="cls-5" d="M949.05,65" transform="translate(-570.46 -65)"/>
    <line class="cls-4" x1="216.84" y1="621.27" x2="216.84" y2="513.05"/>
    <line class="cls-3" x1="243.95" y1="249.67" x2="243.95" y2="140.86"/>
    <line class="cls-3" x1="349.45" y1="434.74" x2="349.45" y2="379.77"/>
    <line class="cls-4" x1="296.74" y1="382.76" x2="296.74" y2="299.7"/>
    <line class="cls-4" x1="349.18" y1="302.55" x2="349.18" y2="246.69"/>
    <line class="cls-4" x1="349.18" y1="142.16" x2="349.18" y2="88.17"/>
    <line class="cls-4" x1="349.18" y1="35.76" x2="349.18"/>
    <line class="cls-4" x1="216.3" y1="88.68" x2="216.3" y2="32.82"/>
    <line class="cls-4" x1="296.69" y1="911.77" x2="296.69" y2="780.2"/>
    <line class="cls-4" x1="351.27" y1="674.42" x2="351.27" y2="619.9"/>
    <line class="cls-4" x1="350.34" y1="782.64" x2="350.34" y2="725.74"/>
    <line class="cls-4" x1="323.66" y1="515.95" x2="323.66" y2="434.27"/>
    <line class="cls-4" x1="217.12" y1="727.29" x2="217.12" y2="673.15"/>
    <line class="cls-1" x1="245" y1="594.17" x2="349.98" y2="594.17"/>
    <line class="cls-2" x1="298" y1="487.47" x2="349.45" y2="487.47"/>
    <line class="cls-2" x1="162.81" y1="754.55" x2="323.9" y2="754.55"/>
    <line class="cls-1" x1="242.58" y1="434.34" x2="298.14" y2="434.34"/>
    <line class="cls-6" x1="324.61" x2="324.61" y2="222.19"/>
    <line class="cls-6" x1="160.48" y1="274.36" x2="269.72" y2="274.36"/>
    <line class="cls-6" x1="269.24" y1="221.12" x2="325.97" y2="221.12"/>
    <line class="cls-1" x1="343.2" y1="220.99" x2="357.72" y2="220.99"/>
    <line class="cls-1" x1="316.31" y1="648.63" x2="330.83" y2="648.63"/>
    <line class="cls-1" x1="316.31" y1="327.31" x2="330.83" y2="327.31"/>
    <line class="cls-1" x1="162.24" y1="761.25" x2="162.24" y2="746.74"/>
    <line class="cls-1" x1="350.11" y1="587.52" x2="350.11" y2="602.04"/>
    <line class="cls-1" x1="350.74" y1="479.94" x2="350.74" y2="494.46"/>
    <line class="cls-6" x1="269.99" y1="219.62" x2="269.99" y2="911.77"/>
    <line class="cls-1" x1="242.39" y1="847.9" x2="242.39" y2="862.42"/>
    <line class="cls-2" x1="246.24" y1="855.53" x2="323.8" y2="855.53"/>
  </g>
</svg>
