<?xml version="1.0" encoding="utf-8"?>
<!-- Generator: Adobe Illustrator 19.0.0, SVG Export Plug-In . SVG Version: 6.00 Build 0)  -->
<svg version="1.1" xmlns="http://www.w3.org/2000/svg" xmlns:xlink="http://www.w3.org/1999/xlink" x="0px" y="0px"
	 viewBox="0 0 1024 1808.5" style="enable-background:new 0 0 1024 1808.5;" xml:space="preserve">
<style type="text/css">
	.st0{fill:#B36F70;}
	.st1{fill:none;stroke:#3D3D3D;stroke-width:0.7342;stroke-miterlimit:10;}
	.st2{fill:#B36F70;stroke:#3D3D3D;stroke-width:0.7342;stroke-miterlimit:10;}
	.st3{fill:#CBA09E;stroke:#3D3D3D;stroke-width:0.7342;stroke-miterlimit:10;}
	.st4{fill:#CBA09E;}
	.st5{fill:#635E6A;stroke:#3D3D3D;stroke-width:0.7342;stroke-miterlimit:10;}
	.st6{fill:#635E6A;}
	.st7{fill:#BCA283;}
	.st8{fill:#BCA283;stroke:#3D3D3D;stroke-width:0.7342;stroke-miterlimit:10;}
	.st9{fill:#866152;stroke:#3D3D3D;stroke-width:0.7342;stroke-miterlimit:10;}
	.st10{fill:#866152;}
	.st11{fill:#C8D8E0;}
	.st12{fill:#C8D8E0;stroke:#3D3D3D;stroke-width:0.7342;stroke-miterlimit:10;}
	.st13{fill:#383A39;}
	.st14{fill:#383A39;stroke:#3D3D3D;stroke-width:0.7342;stroke-miterlimit:10;}
	.st15{fill:#793F30;stroke:#3D3D3D;stroke-width:0.7342;stroke-miterlimit:10;}
	.st16{fill:#793F30;}
	.st17{font-family:'HelveticaNeue';}
	.st18{font-size:11.4895px;}
	.st19{font-family:'HelveticaNeue-Bold';}
	.st20{font-family:'HelveticaNeue-Light';}
	.st21{fill:none;stroke:#3D3D3D;stroke-width:0.4987;stroke-miterlimit:10;}
	.st22{font-size:12px;}
	.st23{fill:none;stroke:#3D3D3D;stroke-width:0.5;stroke-miterlimit:10;}
	.st24{fill:#793F30;stroke:#3D3D3D;stroke-width:2;stroke-miterlimit:10;}
	.st25{fill:#C8D8E0;stroke:#3D3D3D;stroke-width:0.7383;stroke-miterlimit:10;}
	.st26{fill:#C8D8E0;stroke:#3D3D3D;stroke-width:0.7396;stroke-miterlimit:10;}
	.st27{fill:#383A39;stroke:#3D3D3D;stroke-width:2;stroke-miterlimit:10;}
</style>
<g id="n1svg-treemap">
	<g id="n1svg-title-contents">
		<g id="n1svg-title-heal">
			<g id="n1svg-titlemicro-otpo_5_">
				<g id="XMLID_1119_">
					<g id="XMLID_1131_">
						<rect id="XMLID_1135_" x="50.2" y="411.5" class="st0" width="32.1" height="67.6"/>
						<rect id="XMLID_1134_" x="50.2" y="411.5" class="st1" width="32.1" height="67.6"/>
					</g>
				</g>
			</g>
			<g id="n1svg-titlemicro-othe_4_">
				<rect id="XMLID_444_" x="50.2" y="341.7" class="st2" width="32.1" height="67.6"/>
			</g>
			<g id="n1svg-titlemicro-othe_3_">
				<rect id="XMLID_442_" x="50.2" y="271.8" class="st2" width="32.1" height="67.6"/>
			</g>
			<g id="n1svg-titlemicro-injairehe_7_">
				<rect id="XMLID_440_" x="147.1" y="310.2" class="st2" width="59.9" height="36.6"/>
			</g>
			<g id="n1svg-titlemicro-injairehe_6_">
				<rect id="XMLID_438_" x="87.3" y="310.2" class="st2" width="59.9" height="36.6"/>
			</g>
			<g id="n1svg-titlemicro-injairehe_5_">
				<rect id="XMLID_432_" x="147.1" y="271.4" class="st2" width="59.9" height="36.6"/>
			</g>
			<g id="n1svg-titlemicro-injairehe_4_">
				<rect id="XMLID_430_" x="87.3" y="271.4" class="st2" width="59.9" height="36.6"/>
			</g>
			<g id="n1svg-titlemicro-krhe_1_">
				<rect id="XMLID_408_" x="323.1" y="335.9" class="st2" width="72.1" height="64.3"/>
			</g>
			<g id="n1svg-titlemicro-ushe_3_">
				<rect id="XMLID_378_" x="278.7" y="703.7" class="st2" width="97.5" height="48.8"/>
			</g>
			<g id="n1svg-titlemicro-ushe_2_">
				<rect id="XMLID_358_" x="214.4" y="749.2" class="st2" width="64.3" height="36.6"/>
			</g>
			<g id="n1svg-titlemicro-ukhe_5_">
				<rect id="XMLID_416_" x="87.2" y="528.1" class="st2" width="39.9" height="58.8"/>
			</g>
			<g id="n1svg-titlemicro-ukhe_6_">
				<rect id="XMLID_418_" x="127.1" y="528.1" class="st2" width="39.9" height="58.8"/>
			</g>
			<g id="n1svg-titlemicro-ukhe_7_">
				<rect id="XMLID_420_" x="167" y="528.1" class="st2" width="39.9" height="58.8"/>
			</g>
		</g>
		<g id="n1svg-title-ar">
			<g id="n1svg-titlemicro-otar_1_">
				<rect id="XMLID_452_" x="50.2" y="760.7" class="st3" width="32.1" height="61"/>
			</g>
			<g id="n1svg-titlemicro-ukar_3_">
				<rect id="XMLID_424_" x="87.2" y="586.9" class="st3" width="39.9" height="58.8"/>
			</g>
			<g id="n1svg-titlemicro-ukar_2_">
				<rect id="XMLID_414_" x="87.2" y="645.6" class="st3" width="47.7" height="98.7"/>
			</g>
			<g id="n1svg-titlemicro-krar_3_">
				<rect id="XMLID_402_" x="323.1" y="271.6" class="st3" width="72.1" height="32.1"/>
			</g>
			<g id="n1svg-titlemicro-krar_2_">
				<rect id="XMLID_392_" x="214.5" y="314.8" class="st3" width="54.3" height="43.2"/>
			</g>
			<g id="n1svg-titlemicro-usso_18_">
				<g id="XMLID_1074_">
					<g id="XMLID_1075_">
						<rect id="XMLID_1078_" x="214.4" y="467.6" class="st4" width="37.7" height="62.1"/>
						<rect id="XMLID_1077_" x="214.4" y="467.6" class="st1" width="37.7" height="62.1"/>
					</g>
				</g>
			</g>
			<g id="n1svg-titlemicro-usso_15_">
				<g id="XMLID_1063_">
					<g id="XMLID_1065_">
						<rect id="XMLID_1069_" x="214.4" y="785.7" class="st4" width="64.3" height="38.8"/>
						<rect id="XMLID_1066_" x="214.4" y="785.7" class="st1" width="64.3" height="38.8"/>
					</g>
				</g>
			</g>
			<g id="n1svg-titlemicro-usar_8_">
				<rect id="XMLID_350_" x="376.2" y="606.2" class="st3" width="54.3" height="129.7"/>
			</g>
			<g id="n1svg-titlemicro-usar_7_">
				<rect id="XMLID_342_" x="278.7" y="606.2" class="st3" width="97.5" height="48.8"/>
			</g>
			<g id="n1svg-titlemicro-usar_6_">
				<rect id="XMLID_330_" x="252.1" y="467.6" class="st3" width="37.7" height="62.1"/>
			</g>
			<g id="n1svg-titlemicro-usar_5_">
				<rect id="XMLID_326_" x="515.9" y="405.5" class="st3" width="43.2" height="62.1"/>
			</g>
			<g id="n1svg-titlemicro-usso_11_">
				<g id="XMLID_1031_">
					<g id="XMLID_1032_">
						<rect id="XMLID_1034_" x="478.2" y="405.5" class="st4" width="37.7" height="62.1"/>
						<rect id="XMLID_1033_" x="478.2" y="405.5" class="st1" width="37.7" height="62.1"/>
					</g>
				</g>
			</g>
		</g>
		<g id="n1svg-title-wa">
			<g id="n1svg-titlemicro-ukwa_3_">
				<rect id="XMLID_428_" x="87.2" y="744.3" class="st5" width="119.7" height="79.8"/>
			</g>
			<g id="n1svg-titlemicro-ukwa_2_">
				<rect id="XMLID_426_" x="127.1" y="586.9" class="st5" width="39.9" height="58.8"/>
			</g>
			<g id="n1svg-titlemicro-krwa_1_">
				<rect id="XMLID_394_" x="214.5" y="358" class="st5" width="54.3" height="42.1"/>
			</g>
			<g id="n1svg-titlemicro-usar_9_">
				<g id="XMLID_1014_">
					<g id="XMLID_1015_">
						<rect id="XMLID_1017_" x="214.4" y="566.3" class="st6" width="64.3" height="36.6"/>
						<rect id="XMLID_1016_" x="214.4" y="566.3" class="st1" width="64.3" height="36.6"/>
					</g>
				</g>
			</g>
			<g id="n1svg-titlemicro-usre_3_">
				<g id="XMLID_1006_">
					<g id="XMLID_1007_">
						<rect id="XMLID_1009_" x="365.1" y="405.5" class="st6" width="37.7" height="62.1"/>
						<rect id="XMLID_1008_" x="365.1" y="405.5" class="st1" width="37.7" height="62.1"/>
					</g>
				</g>
			</g>
			<g id="n1svg-titlemicro-uswa_23_">
				<rect id="XMLID_372_" x="495.9" y="529.7" class="st5" width="63.2" height="76.5"/>
			</g>
			<g id="n1svg-titlemicro-uswa_22_">
				<g id="XMLID_995_">
					<g id="XMLID_996_">
						<rect id="XMLID_998_" x="214.4" y="602.8" class="st6" width="64.3" height="36.6"/>
						<rect id="XMLID_997_" x="214.4" y="602.8" class="st1" width="64.3" height="36.6"/>
					</g>
				</g>
			</g>
			<g id="n1svg-titlemicro-uswa_20_">
				<rect id="XMLID_362_" x="278.7" y="529.7" class="st5" width="31" height="76.5"/>
			</g>
			<g id="n1svg-titlemicro-uswa_18_">
				<rect id="XMLID_348_" x="484.9" y="606.2" class="st5" width="74.3" height="129.7"/>
			</g>
			<g id="n1svg-titlemicro-uswa_17_">
				<rect id="XMLID_346_" x="214.4" y="529.7" class="st5" width="64.3" height="36.6"/>
			</g>
			<g id="n1svg-titlemicro-uswa_16_">
				<rect id="XMLID_336_" x="278.7" y="654.9" class="st5" width="97.5" height="48.8"/>
			</g>
			<g id="n1svg-titlemicro-uswa_14_">
				<rect id="XMLID_316_" x="327.4" y="405.5" class="st5" width="37.7" height="62.1"/>
			</g>
			<g id="n1svg-titlemicro-ushr_3_">
				<g id="XMLID_972_">
					<g id="XMLID_973_">
						<rect id="XMLID_975_" x="289.8" y="405.5" class="st6" width="37.7" height="62.1"/>
						<rect id="XMLID_974_" x="289.8" y="405.5" class="st1" width="37.7" height="62.1"/>
					</g>
				</g>
			</g>
			<g id="n1svg-titlemicro-uswa_13_">
				<rect id="XMLID_312_" x="252.1" y="405.5" class="st5" width="37.7" height="62.1"/>
			</g>
			<g id="n1svg-titlemicro-uswa_12_">
				<rect id="XMLID_1_" x="214.4" y="405.5" class="st5" width="37.7" height="62.1"/>
			</g>
			<g id="n1svg-titlemicro-chso_42_">
				<g id="XMLID_958_">
					<g id="XMLID_959_">
						<rect id="XMLID_961_" x="681.9" y="336.2" class="st6" width="38.8" height="61"/>
						<rect id="XMLID_960_" x="681.9" y="336.2" class="st1" width="38.8" height="61"/>
					</g>
				</g>
			</g>
		</g>
		<g id="n1svg-title-hr">
			<g id="n1svg-titlemicro-otpo_4_">
				<g id="XMLID_950_">
					<g id="XMLID_951_">
						<rect id="XMLID_953_" x="50.2" y="690.8" class="st7" width="32.1" height="67.6"/>
						<rect id="XMLID_952_" x="50.2" y="690.8" class="st1" width="32.1" height="67.6"/>
					</g>
				</g>
			</g>
			<g id="n1svg-titlemicro-ukhr_1_">
				<rect id="XMLID_422_" x="134.9" y="645.6" class="st8" width="72.1" height="98.7"/>
			</g>
			<g id="n1svg-titlemicro-krhr_1_">
				<rect id="XMLID_400_" x="214.5" y="271.6" class="st8" width="54.3" height="43.2"/>
			</g>
			<g id="n1svg-titlemicro-usso_17_">
				<g id="XMLID_936_">
					<g id="XMLID_937_">
						<rect id="XMLID_939_" x="365.1" y="467.6" class="st7" width="37.7" height="62.1"/>
						<rect id="XMLID_938_" x="365.1" y="467.6" class="st1" width="37.7" height="62.1"/>
					</g>
				</g>
			</g>
			<g id="n1svg-titlemicro-ushr_4_">
				<rect id="XMLID_334_" x="327.4" y="467.6" class="st8" width="37.7" height="62.1"/>
			</g>
			<g id="n1svg-titlemicro-uswa_15_">
				<g id="XMLID_925_">
					<g id="XMLID_926_">
						<rect id="XMLID_928_" x="289.8" y="467.6" class="st7" width="37.7" height="62.1"/>
						<rect id="XMLID_927_" x="289.8" y="467.6" class="st1" width="37.7" height="62.1"/>
					</g>
				</g>
			</g>
			<g id="n1svg-titlemicro-chhr_5_">
				<rect id="china-hr_10_" x="750.6" y="500.3" class="st8" width="105.3" height="204"/>
			</g>
			<g id="n1svg-titlemicro-chso_43_">
				<g id="XMLID_914_">
					<g id="XMLID_915_">
						<rect id="XMLID_917_" x="720.7" y="336.2" class="st7" width="38.8" height="61"/>
						<rect id="XMLID_916_" x="720.7" y="336.2" class="st1" width="38.8" height="61"/>
					</g>
				</g>
			</g>
			<g id="n1svg-titlemicro-chhr_4_">
				<rect id="china-hr_5_" x="750.6" y="703.2" class="st8" width="246.1" height="121.9"/>
			</g>
		</g>
		<g id="n1svg-title-re">
			<g id="n1svg-titlemicro-usre_2_">
				<rect id="XMLID_356_" x="214.4" y="712.6" class="st9" width="64.3" height="36.6"/>
			</g>
			<g id="n1svg-titlemicro-ushr_5_">
				<g id="XMLID_900_">
					<g id="XMLID_901_">
						<rect id="XMLID_903_" x="515.9" y="467.6" class="st10" width="43.2" height="62.1"/>
						<rect id="XMLID_902_" x="515.9" y="467.6" class="st1" width="43.2" height="62.1"/>
					</g>
				</g>
			</g>
			<g id="n1svg-titlemicro-chre_3_">
				<rect id="china-religion_4_" x="604.3" y="500.3" class="st9" width="146.3" height="48.8"/>
			</g>
			<g id="n1svg-titlemicro-chre_2_">
				<rect id="china-religion_2_" x="565.5" y="458.2" class="st9" width="38.8" height="61"/>
			</g>
		</g>
		<g id="n1svg-title-po">
			<g id="n1svg-titlemicro-othe_5_">
				<g id="XMLID_886_">
					<g id="XMLID_887_">
						<rect id="XMLID_889_" x="50.2" y="621" class="st11" width="32.1" height="67.6"/>
						<rect id="XMLID_888_" x="50.2" y="621" class="st1" width="32.1" height="67.6"/>
					</g>
				</g>
			</g>
			<g id="n1svg-titlemicro-othr_1_">
				<g id="XMLID_878_">
					<g id="XMLID_879_">
						<rect id="XMLID_881_" x="50.2" y="551.2" class="st11" width="32.1" height="67.6"/>
						<rect id="XMLID_880_" x="50.2" y="551.2" class="st1" width="32.1" height="67.6"/>
					</g>
				</g>
			</g>
			<g id="n1svg-titlemicro-otpo_3_">
				<rect id="XMLID_446_" x="50.2" y="481.3" class="st12" width="32.1" height="67.6"/>
			</g>
			<g id="n1svg-titlemicro-injairepo_3_">
				<rect id="XMLID_436_" x="100.6" y="350.4" class="st12" width="106.4" height="174"/>
			</g>
			<g id="n1svg-titlemicro-injairepo_2_">
				<rect id="XMLID_434_" x="87.3" y="350.4" class="st12" width="13.3" height="174"/>
			</g>
			<g id="n1svg-titlemicro-krpo_7_">
				<rect id="XMLID_410_" x="268.8" y="358" class="st12" width="54.3" height="42.1"/>
			</g>
			<g id="n1svg-titlemicro-krpo_6_">
				<rect id="XMLID_406_" x="395.2" y="300.4" class="st12" width="164.1" height="99.8"/>
			</g>
			<g id="n1svg-titlemicro-krpo_5_">
				<rect id="XMLID_404_" x="323.1" y="303.7" class="st12" width="72.1" height="32.1"/>
			</g>
			<g id="n1svg-titlemicro-krso_3_">
				<g id="XMLID_852_">
					<g id="XMLID_853_">
						<rect id="XMLID_855_" x="268.8" y="314.8" class="st11" width="54.3" height="43.2"/>
						<rect id="XMLID_854_" x="268.8" y="314.8" class="st1" width="54.3" height="43.2"/>
					</g>
				</g>
			</g>
			<g id="n1svg-titlemicro-uspo_9_">
				<rect id="XMLID_384_" x="376.2" y="735.9" class="st12" width="182.9" height="88.7"/>
			</g>
			<g id="n1svg-titlemicro-uspo_7_">
				<rect id="XMLID_366_" x="309.7" y="529.7" class="st12" width="31" height="76.5"/>
			</g>
			<g id="n1svg-titlemicro-uspo_6_">
				<rect id="XMLID_328_" x="430.5" y="606.2" class="st12" width="54.3" height="129.7"/>
			</g>
			<g id="n1svg-titlemicro-usot_1_">
				<g id="XMLID_835_">
					<g id="XMLID_836_">
						<rect id="XMLID_838_" x="440.5" y="405.5" class="st11" width="37.7" height="62.1"/>
						<rect id="XMLID_837_" x="440.5" y="405.5" class="st1" width="37.7" height="62.1"/>
					</g>
				</g>
			</g>
			<g id="n1svg-titlemicro-uspo_5_">
				<rect id="XMLID_322_" x="402.8" y="405.5" class="st12" width="37.7" height="62.1"/>
			</g>
			<g id="n1svg-titlemicro-chso_47_">
				<g id="XMLID_824_">
					<g id="XMLID_825_">
						<rect id="XMLID_827_" x="914.7" y="336.2" class="st11" width="38.8" height="61"/>
						<rect id="XMLID_826_" x="914.7" y="336.2" class="st1" width="38.8" height="61"/>
					</g>
				</g>
			</g>
			<g id="n1svg-titlemicro-chso_46_">
				<g id="XMLID_816_">
					<g id="XMLID_817_">
						<rect id="XMLID_819_" x="875.9" y="336.2" class="st11" width="38.8" height="61"/>
						<rect id="XMLID_818_" x="875.9" y="336.2" class="st1" width="38.8" height="61"/>
					</g>
				</g>
			</g>
			<g id="n1svg-titlemicro-chpo_14_">
				<rect id="china-politics_28_" x="953.4" y="336.2" class="st12" width="43.2" height="61"/>
			</g>
			<g id="n1svg-titlemicro-chso_36_">
				<g id="XMLID_805_">
					<g id="XMLID_806_">
						<rect id="XMLID_808_" x="565.5" y="397.2" class="st11" width="38.8" height="61"/>
						<rect id="XMLID_807_" x="565.5" y="397.2" class="st1" width="38.8" height="61"/>
					</g>
				</g>
			</g>
			<g id="n1svg-titlemicro-chpo_13_">
				<rect id="china-politics_26_" x="695.2" y="397.2" class="st12" width="45.4" height="103.1"/>
			</g>
			<g id="n1svg-titlemicro-chpo_12_">
				<rect id="china-politics_16_" x="604.3" y="549.1" class="st12" width="146.3" height="64.3"/>
			</g>
			<g id="n1svg-titlemicro-chpo_11_">
				<rect id="china-politics_14_" x="604.3" y="710.9" class="st12" width="146.3" height="114.2"/>
			</g>
			<g id="n1svg-titlemicro-chso_35_">
				<g id="XMLID_788_">
					<g id="XMLID_789_">
						<rect id="XMLID_791_" x="837.1" y="336.2" class="st11" width="38.8" height="61"/>
						<rect id="XMLID_790_" x="837.1" y="336.2" class="st1" width="38.8" height="61"/>
					</g>
				</g>
			</g>
		</g>
		<g id="n1svg-title-oth">
			<g id="n1svg-titlemicro-uspo_8_">
				<g id="XMLID_780_">
					<g id="XMLID_781_">
						<rect id="XMLID_783_" x="478.2" y="467.6" class="st13" width="37.7" height="62.1"/>
						<rect id="XMLID_782_" x="478.2" y="467.6" class="st1" width="37.7" height="62.1"/>
					</g>
				</g>
			</g>
			<g id="n1svg-titlemicro-chso_49_">
				<g id="XMLID_772_">
					<g id="XMLID_773_">
						<rect id="XMLID_775_" x="759.5" y="336.2" class="st13" width="38.8" height="61"/>
						<rect id="XMLID_774_" x="759.5" y="336.2" class="st1" width="38.8" height="61"/>
					</g>
				</g>
			</g>
			<g id="n1svg-titlemicro-chso_44_">
				<g id="XMLID_764_">
					<g id="XMLID_765_">
						<rect id="XMLID_767_" x="740.6" y="397.2" class="st13" width="45.4" height="103.1"/>
						<rect id="XMLID_766_" x="740.6" y="397.2" class="st1" width="45.4" height="103.1"/>
					</g>
				</g>
			</g>
			<g id="n1svg-titlemicro-chpo_10_">
				<g id="XMLID_756_">
					<g id="XMLID_757_">
						<rect id="XMLID_759_" x="798.3" y="336.2" class="st13" width="38.8" height="61"/>
						<rect id="XMLID_758_" x="798.3" y="336.2" class="st1" width="38.8" height="61"/>
					</g>
				</g>
			</g>
			<g id="n1svg-titlemicro-chot_6_">
				<rect id="china-other_8_" x="854.8" y="397.2" class="st14" width="68.7" height="103.1"/>
			</g>
		</g>
		<g id="n1svg-title-life">
			<g id="n1svg-titlemicro-ukhe_4_">
				<rect id="XMLID_412_" x="167" y="586.9" class="st15" width="39.9" height="58.8"/>
			</g>
			<g id="n1svg-titlemicro-krpo_4_">
				<g id="XMLID_742_">
					<g id="XMLID_743_">
						<rect id="XMLID_745_" x="268.8" y="271.6" class="st16" width="54.3" height="43.2"/>
						<rect id="XMLID_744_" x="268.8" y="271.6" class="st1" width="54.3" height="43.2"/>
					</g>
				</g>
			</g>
			<g id="n1svg-titlemicro-krso_2_">
				<rect id="XMLID_390_" x="395.2" y="271.6" class="st15" width="164.1" height="28.8"/>
			</g>
			<g id="n1svg-titlemicro-usso_19_">
				<rect id="XMLID_388_" x="371.8" y="529.7" class="st15" width="62.1" height="76.5"/>
			</g>
			<g id="n1svg-titlemicro-usso_16_">
				<rect id="XMLID_368_" x="278.7" y="752.5" class="st15" width="97.5" height="72.1"/>
			</g>
			<g id="n1svg-titlemicro-uswa_21_">
				<g id="XMLID_725_">
					<g id="XMLID_726_">
						<rect id="XMLID_728_" x="402.8" y="467.6" class="st16" width="37.7" height="62.1"/>
						<rect id="XMLID_727_" x="402.8" y="467.6" class="st1" width="37.7" height="62.1"/>
					</g>
				</g>
			</g>
			<g id="n1svg-titlemicro-uswa_19_">
				<g id="XMLID_717_">
					<g id="XMLID_718_">
						<rect id="XMLID_720_" x="214.4" y="676" class="st16" width="64.3" height="36.6"/>
						<rect id="XMLID_719_" x="214.4" y="676" class="st1" width="64.3" height="36.6"/>
					</g>
				</g>
			</g>
			<g id="n1svg-titlemicro-usso_14_">
				<rect id="XMLID_352_" x="214.4" y="639.4" class="st15" width="64.3" height="36.6"/>
			</g>
			<g id="n1svg-titlemicro-usso_13_">
				<rect id="XMLID_340_" x="440.5" y="467.6" class="st15" width="37.7" height="62.1"/>
			</g>
			<g id="n1svg-titlemicro-usso_12_">
				<rect id="XMLID_338_" x="340.8" y="529.7" class="st15" width="31" height="76.5"/>
			</g>
			<g id="n1svg-titlemicro-usso_10_">
				<rect id="XMLID_318_" x="433.9" y="529.7" class="st15" width="62.1" height="76.5"/>
			</g>
			<g id="n1svg-titlemicro-chso_48_">
				<rect id="china-society_96_" x="603.5" y="613.4" class="st15" width="147.1" height="97.5"/>
			</g>
			<g id="n1svg-titlemicro-chso_45_">
				<rect id="china-society_90_" x="855.9" y="500.3" class="st15" width="140.8" height="202.9"/>
			</g>
			<g id="n1svg-titlemicro-chpo_15_">
				<g id="XMLID_692_">
					<g id="XMLID_693_">
						<rect id="XMLID_921_" x="565.5" y="519.1" class="st16" width="38.8" height="61"/>
						<rect id="XMLID_694_" x="565.5" y="519.1" class="st1" width="38.8" height="61"/>
					</g>
				</g>
			</g>
			<g id="n1svg-titlemicro-chot_7_">
				<g id="XMLID_967_">
					<g id="XMLID_990_">
						<rect id="XMLID_1005_" x="649.7" y="397.2" class="st16" width="45.4" height="103.1"/>
						<rect id="XMLID_1001_" x="649.7" y="397.2" class="st1" width="45.4" height="103.1"/>
					</g>
				</g>
			</g>
			<g id="n1svg-titlemicro-chso_41_">
				<rect id="china-society_82_" x="604.3" y="336.2" class="st15" width="38.8" height="61"/>
			</g>
			<g id="n1svg-titlemicro-chso_40_">
				<rect id="china-society_80_" x="565.5" y="761.1" class="st15" width="38.8" height="64"/>
			</g>
			<g id="n1svg-titlemicro-chso_39_">
				<rect id="china-society_78_" x="565.5" y="700.2" class="st15" width="38.8" height="62.8"/>
			</g>
			<g id="n1svg-titlemicro-chso_38_">
				<rect id="china-society_76_" x="565.5" y="640" class="st15" width="38.8" height="62.1"/>
			</g>
			<g id="n1svg-titlemicro-chso_37_">
				<rect id="china-society_49_" x="565.5" y="580.1" class="st15" width="38.8" height="61"/>
			</g>
			<g id="n1svg-titlemicro-chso_34_">
				<rect id="china-society_43_" x="923.5" y="397.2" class="st15" width="73.2" height="103.1"/>
			</g>
			<g id="n1svg-titlemicro-chso_33_">
				<rect id="china-society_41_" x="786.1" y="397.2" class="st15" width="68.7" height="103.1"/>
			</g>
			<g id="n1svg-titlemicro-chso_32_">
				<rect id="china-society_39_" x="643.1" y="336.2" class="st15" width="38.8" height="61"/>
			</g>
			<g id="n1svg-titlemicro-chso_31_">
				<rect id="china-society_37_" x="604.3" y="397.2" class="st15" width="45.4" height="103.1"/>
			</g>
			<g id="n1svg-titlemicro-chso_30_">
				<rect id="china-society_35_" x="565.5" y="336.2" class="st15" width="38.8" height="61"/>
			</g>
			<g id="n1svg-titlemicro-chso_29_">
				<rect id="china-society_33_" x="953.4" y="272.1" class="st15" width="43.2" height="64.1"/>
			</g>
			<g id="n1svg-titlemicro-chwa_1_">
				<g id="XMLID_1026_">
					<g id="XMLID_1042_">
						<rect id="XMLID_1044_" x="914.7" y="272.1" class="st16" width="38.8" height="64.1"/>
						<rect id="XMLID_1043_" x="914.7" y="272.1" class="st1" width="38.8" height="64.1"/>
					</g>
				</g>
			</g>
			<g id="n1svg-titlemicro-chso_28_">
				<rect id="china-society_31_" x="875.9" y="272.1" class="st15" width="38.8" height="64.1"/>
			</g>
			<g id="n1svg-titlemicro-chot_5_">
				<g id="XMLID_1045_">
					<g id="XMLID_1046_">
						<rect id="XMLID_1054_" x="837.1" y="272.1" class="st16" width="38.8" height="64.1"/>
						<rect id="XMLID_1050_" x="837.1" y="272.1" class="st1" width="38.8" height="64.1"/>
					</g>
				</g>
			</g>
			<g id="n1svg-titlemicro-chpo_9_">
				<g id="XMLID_1055_">
					<g id="XMLID_1058_">
						<rect id="XMLID_1061_" x="798.3" y="272.1" class="st16" width="38.8" height="64.1"/>
						<rect id="XMLID_1060_" x="798.3" y="272.1" class="st1" width="38.8" height="64.1"/>
					</g>
				</g>
			</g>
			<g id="n1svg-titlemicro-chso_27_">
				<rect id="china-society_29_" x="759.5" y="272.1" class="st15" width="38.8" height="64.1"/>
			</g>
			<g id="n1svg-titlemicro-chso_26_">
				<rect id="china-society_27_" x="720.7" y="272.1" class="st15" width="38.8" height="64.1"/>
			</g>
			<g id="n1svg-titlemicro-chpo_8_">
				<g id="XMLID_1064_">
					<g id="XMLID_1067_">
						<rect id="XMLID_1073_" x="681.9" y="272.1" class="st16" width="38.8" height="64.1"/>
						<rect id="XMLID_1070_" x="681.9" y="272.1" class="st1" width="38.8" height="64.1"/>
					</g>
				</g>
			</g>
			<g id="n1svg-titlemicro-chot_4_">
				<g id="XMLID_1076_">
					<g id="XMLID_1079_">
						<rect id="XMLID_1114_" x="643.1" y="272.1" class="st16" width="38.8" height="64.1"/>
						<rect id="XMLID_1082_" x="643.1" y="272.1" class="st1" width="38.8" height="64.1"/>
					</g>
				</g>
			</g>
			<g id="n1svg-titlemicro-chhr_3_">
				<g id="XMLID_1115_">
					<g id="XMLID_1116_">
						<rect id="XMLID_1118_" x="604.3" y="272.1" class="st16" width="38.8" height="64.1"/>
						<rect id="XMLID_1117_" x="604.3" y="272.1" class="st1" width="38.8" height="64.1"/>
					</g>
				</g>
			</g>
			<g id="n1svg-titlemicro-chso_25_">
				<rect id="china-society_25_" x="565.5" y="272.1" class="st15" width="38.8" height="64.1"/>
			</g>
		</g>
		<g id="n1svg-legenda-he-trigger">
			<rect id="XMLID_651_" x="52.5" y="170.6" class="st0" width="21.5" height="21.5"/>
			<g id="XMLID_650_">
				<text id="XMLID_591_" transform="matrix(1 0 0 1 81.42 184.1409)" class="st17 st18">HEALTH/DISEASE</text>
			</g>
		</g>
		<g id="n1svg-legenda-hr-trigger">
			<rect id="XMLID_643_" x="193.9" y="170.6" class="st7" width="21.5" height="21.5"/>
			<g id="XMLID_642_">
				<text id="XMLID_586_" transform="matrix(1 0 0 1 224.925 184.1409)" class="st17 st18">LAW/HUMAN RIGHTS</text>
			</g>
		</g>
		<g id="n1svg-legenda-ar-trigger">
			<rect id="XMLID_635_" x="52.5" y="218" class="st4" width="21.5" height="21.5"/>
			<g id="XMLID_634_">
				<text id="XMLID_583_" transform="matrix(1 0 0 1 83.4553 231.5354)" class="st17 st18">POLITICS/ARMY</text>
			</g>
		</g>
		<g id="n1svg-legenda-po-trigger">
			<rect id="XMLID_630_" x="375.4" y="170.6" class="st11" width="21.5" height="21.5"/>
			<g id="XMLID_629_">
				<text id="XMLID_582_" transform="matrix(1 0 0 1 407.8444 184.1409)" class="st17 st18">POLITICS/GOVERNEMENT</text>
			</g>
		</g>
		<g id="n1svg-legenda-re-trigger">
			<rect id="XMLID_628_" x="193.9" y="218" class="st10" width="21.5" height="21.5"/>
			<g id="XMLID_627_">
				<text id="XMLID_581_" transform="matrix(1 0 0 1 224.9249 231.5354)" class="st17 st18">RELIGION/CHRISTIANITY</text>
			</g>
		</g>
		<g id="n1svg-legenda-so-trigger">
			<rect id="XMLID_624_" x="566.4" y="170.6" class="st16" width="21.5" height="21.5"/>
			<g id="XMLID_623_">
				<text id="XMLID_580_" transform="matrix(1 0 0 1 594.5007 184.5374)" class="st17 st18">SOCIETY/LIFE</text>
			</g>
		</g>
		<g id="n1svg-legenda-wa-trigger">
			<rect id="XMLID_622_" x="375.4" y="218" class="st6" width="21.5" height="21.5"/>
			<g id="XMLID_621_">
				<text id="XMLID_575_" transform="matrix(1 0 0 1 407.8424 231.5354)" class="st17 st18">SOCIETY/WAR</text>
			</g>
		</g>
		<g id="n1svg-legenda-ot-trigger">
			<rect id="XMLID_620_" x="566.4" y="218" class="st13" width="21.5" height="21.5"/>
			<g id="XMLID_619_">
				<text id="XMLID_574_" transform="matrix(1 0 0 1 594.5006 231.5354)" class="st17 st18">OTHER</text>
			</g>
		</g>
		<text id="XMLID_680_" transform="matrix(1 0 0 1 52.4742 82.9469)"><tspan x="0" y="0" class="st19 st18">RELEVANT TOPICS PER COUNTRIES</tspan><tspan x="0" y="13.8" class="st20 st18">Main topics inside titles</tspan></text>
		<g id="n1svg-title-legend">
			<line id="XMLID_443_" class="st21" x1="52.5" y1="255.3" x2="996.7" y2="255.3"/>
			<text id="XMLID_445_" transform="matrix(1 0 0 1 846.6641 246.1946)" class="st17 st22">Click the country for details</text>
		</g>
	</g>
	<g id="n1svg-article-contents">
		<g id="n1svg-article-ar">
			<rect id="XMLID_1753_" x="219.4" y="1425.3" class="st3" width="64.3" height="36.6"/>
			<rect id="XMLID_1721_" x="219.4" y="1461.9" class="st3" width="64.3" height="36.6"/>
			<rect id="XMLID_1717_" x="283.7" y="1611.7" class="st3" width="97.6" height="72.1"/>
			<rect id="XMLID_1681_" x="381.3" y="1465.2" class="st3" width="54.4" height="129.8"/>
			<rect id="XMLID_1673_" x="219.4" y="1388.7" class="st3" width="64.3" height="36.6"/>
			<rect id="XMLID_1649_" x="332.5" y="1326.6" class="st3" width="37.7" height="62.1"/>
			<rect id="XMLID_1581_" x="328.1" y="1130.4" class="st3" width="72.1" height="32.2"/>
			<rect id="XMLID_1565_" x="219.4" y="1216.9" class="st3" width="54.4" height="42.2"/>
			<rect id="XMLID_1561_" x="219.4" y="1173.6" class="st3" width="54.4" height="43.3"/>
			<rect id="XMLID_1349_" x="91" y="1446.4" class="st3" width="39.9" height="58.8"/>
			<rect id="XMLID_1329_" x="91" y="1505.2" class="st3" width="47.7" height="98.7"/>
		</g>
		<g id="n1svg-article-oth">
			<rect id="XMLID_1709_" x="408" y="1326.6" class="st14" width="37.7" height="62.1"/>
			<rect id="XMLID_1357_" x="91" y="1603.9" class="st14" width="119.8" height="79.9"/>
			<rect id="XMLID_1365_" x="53.5" y="1551.3" class="st14" width="32.2" height="67.7"/>
		</g>
		<g id="n1svg-article-hr">
			<rect id="XMLID_1701_" x="219.4" y="1645" class="st8" width="64.3" height="38.8"/>
			<rect id="XMLID_1697_" x="219.4" y="1608.4" class="st8" width="64.3" height="36.6"/>
			<rect id="XMLID_1693_" x="219.4" y="1571.8" class="st8" width="64.3" height="36.6"/>
			<rect id="XMLID_1617_" x="439" y="1388.7" class="st8" width="62.1" height="76.6"/>
			<rect id="XMLID_1613_" x="332.5" y="1264.4" class="st8" width="37.7" height="62.1"/>
			<rect id="XMLID_1609_" x="294.8" y="1264.4" class="st8" width="37.7" height="62.1"/>
			<rect id="XMLID_1605_" x="257.1" y="1264.4" class="st8" width="37.7" height="62.1"/>
			<rect id="XMLID_1601_" x="219.4" y="1264.4" class="st8" width="37.7" height="62.1"/>
			<rect id="XMLID_1573_" x="273.7" y="1173.6" class="st8" width="54.4" height="43.3"/>
			<rect id="XMLID_1569_" x="273.7" y="1130.4" class="st8" width="54.4" height="43.3"/>
			<rect id="XMLID_1557_" x="400.2" y="1130.4" class="st8" width="164.2" height="28.8"/>
			<rect id="XMLID_1353_" x="131" y="1446.4" class="st8" width="39.9" height="58.8"/>
			<rect id="XMLID_1345_" x="138.7" y="1505.2" class="st8" width="72.1" height="98.7"/>
			<rect id="XMLID_1369_" x="53.5" y="1621.2" class="st8" width="32.2" height="61"/>
			<rect id="XMLID_1545_" x="755.3" y="1357.2" class="st8" width="105.4" height="203"/>
			<rect id="XMLID_1541_" x="608.8" y="1470.3" class="st8" width="146.4" height="97.6"/>
			<rect id="XMLID_1537_" x="919.5" y="1193" class="st8" width="38.8" height="61"/>
			<rect id="XMLID_1521_" x="958.3" y="1193" class="st8" width="43.3" height="61"/>
			<rect id="XMLID_1513_" x="745.3" y="1254" class="st8" width="45.5" height="103.2"/>
			<rect id="XMLID_1509_" x="608.8" y="1357.2" class="st8" width="146.4" height="48.8"/>
		</g>
		<g id="n1svg-article-he">
			<rect id="XMLID_1737_" x="283.7" y="1562.9" class="st2" width="97.6" height="48.8"/>
			<rect id="XMLID_1733_" x="370.2" y="1326.6" class="st2" width="37.7" height="62.1"/>
			<rect id="XMLID_1705_" x="283.7" y="1388.7" class="st2" width="31.1" height="76.6"/>
			<rect id="XMLID_1593_" x="328.1" y="1194.7" class="st2" width="72.1" height="64.3"/>
			<rect id="XMLID_1341_" x="170.9" y="1387.6" class="st2" width="39.9" height="58.8"/>
			<rect id="XMLID_1337_" x="131" y="1387.6" class="st2" width="39.9" height="58.8"/>
			<rect id="XMLID_1333_" x="91" y="1387.6" class="st2" width="39.9" height="58.8"/>
			<rect id="XMLID_1765_" x="150.9" y="1169.2" class="st2" width="59.9" height="36.6"/>
			<rect id="XMLID_1761_" x="91" y="1169.2" class="st2" width="59.9" height="36.6"/>
			<rect id="XMLID_1317_" x="150.9" y="1130.4" class="st2" width="59.9" height="36.6"/>
			<rect id="XMLID_1313_" x="91" y="1130.4" class="st2" width="59.9" height="36.6"/>
			<rect id="XMLID_1769_" x="53.5" y="1271.7" class="st2" width="32.2" height="67.7"/>
			<rect id="XMLID_1321_" x="53.5" y="1341.6" class="st2" width="32.2" height="67.7"/>
			<rect id="XMLID_1309_" x="53.5" y="1201.8" class="st2" width="32.2" height="67.7"/>
			<rect id="XMLID_1305_" x="53.5" y="1128.8" class="st2" width="32.2" height="69.2"/>
			<rect id="XMLID_1441_" x="859.6" y="1254" class="st2" width="68.8" height="103.2"/>
		</g>
		<g id="n1svg-article-so">
			<rect id="XMLID_1757_" x="376.9" y="1388.7" class="st15" width="62.1" height="76.6"/>
			<rect id="XMLID_1657_" x="345.8" y="1388.7" class="st15" width="31.1" height="76.6"/>
			<rect id="XMLID_1633_" x="521.1" y="1264.4" class="st15" width="43.3" height="62.1"/>
			<rect id="XMLID_1361_" x="170.9" y="1446.4" class="st15" width="39.9" height="58.8"/>
			<rect id="XMLID_1549_" x="764.2" y="1193" class="st15" width="38.8" height="61"/>
			<rect id="XMLID_1533_" x="880.6" y="1193" class="st15" width="38.8" height="61"/>
			<rect id="XMLID_1529_" x="860.7" y="1357.2" class="st15" width="140.9" height="203"/>
			<rect id="XMLID_1505_" x="725.3" y="1193" class="st15" width="38.8" height="61"/>
			<rect id="XMLID_1501_" x="686.5" y="1193" class="st15" width="38.8" height="61"/>
			<rect id="XMLID_1497_" x="755.3" y="1560.2" class="st15" width="246.3" height="122"/>
			<rect id="XMLID_1453_" x="841.8" y="1193" class="st15" width="38.8" height="61"/>
			<rect id="XMLID_1449_" x="803" y="1193" class="st15" width="38.8" height="61"/>
			<rect id="XMLID_1445_" x="928.4" y="1254" class="st15" width="73.2" height="103.2"/>
			<rect id="XMLID_1433_" x="647.7" y="1193" class="st15" width="38.8" height="61"/>
		</g>
		<g id="n1svg-article-wa">
			<rect id="XMLID_1729_" x="483.4" y="1326.6" class="st5" width="37.7" height="62.1"/>
			<rect id="XMLID_1725_" x="501.2" y="1388.7" class="st5" width="63.2" height="76.6"/>
			<rect id="XMLID_1689_" x="219.4" y="1535.1" class="st5" width="64.3" height="36.6"/>
			<rect id="XMLID_1685_" x="219.4" y="1498.5" class="st5" width="64.3" height="36.6"/>
			<rect id="XMLID_1669_" x="521.1" y="1326.6" class="st5" width="43.3" height="62.1"/>
			<rect id="XMLID_1665_" x="283.7" y="1465.2" class="st5" width="97.6" height="48.8"/>
			<rect id="XMLID_1661_" x="445.7" y="1326.6" class="st5" width="37.7" height="62.1"/>
			<rect id="XMLID_1653_" x="283.7" y="1514.1" class="st5" width="97.6" height="48.8"/>
			<rect id="XMLID_1577_" x="219.4" y="1130.4" class="st5" width="54.4" height="43.3"/>
			<rect id="XMLID_1553_" x="53.5" y="1481.4" class="st5" width="32.2" height="67.7"/>
			<rect id="XMLID_1525_" x="608.8" y="1193" class="st5" width="38.8" height="61"/>
			<rect id="XMLID_1461_" x="608.8" y="1406" class="st5" width="146.4" height="64.3"/>
			<rect id="XMLID_1425_" x="570" y="1193" class="st5" width="38.8" height="61"/>
		</g>
		<g id="n1svg-article-re">
			<rect id="XMLID_1745_" x="370.2" y="1264.4" class="st9" width="37.7" height="62.1"/>
			<rect id="XMLID_1629_" x="483.4" y="1264.4" class="st9" width="37.7" height="62.1"/>
			<rect id="XMLID_1625_" x="445.7" y="1264.4" class="st9" width="37.7" height="62.1"/>
			<rect id="XMLID_1621_" x="408" y="1264.4" class="st9" width="37.7" height="62.1"/>
			<rect id="XMLID_1421_" x="958.3" y="1129.9" class="st9" width="43.3" height="63"/>
		</g>
		<g id="n1svg-article-po">
			<rect id="XMLID_1749_" x="381.3" y="1595.1" class="st12" width="183.1" height="88.8"/>
			<rect id="XMLID_1741_" x="219.4" y="1326.6" class="st12" width="37.7" height="62.1"/>
			<rect id="XMLID_1713_" x="314.8" y="1388.7" class="st12" width="31.1" height="76.6"/>
			<rect id="XMLID_1677_" x="490.1" y="1465.2" class="st12" width="74.3" height="129.8"/>
			<rect id="XMLID_1645_" x="294.8" y="1326.6" class="st12" width="37.7" height="62.1"/>
			<rect id="XMLID_1641_" x="257.1" y="1326.6" class="st12" width="37.7" height="62.1"/>
			<rect id="XMLID_1637_" x="435.7" y="1465.2" class="st12" width="54.4" height="129.8"/>
			<rect id="XMLID_1597_" x="273.7" y="1216.9" class="st12" width="54.4" height="42.2"/>
			<rect id="XMLID_1589_" x="400.2" y="1159.2" class="st12" width="164.2" height="99.8"/>
			<rect id="XMLID_1585_" x="328.1" y="1162.6" class="st12" width="72.1" height="32.2"/>
			<rect id="XMLID_1377_" x="104.3" y="1208" class="st12" width="106.5" height="174.2"/>
			<rect id="XMLID_1373_" x="91" y="1208" class="st12" width="13.3" height="174.2"/>
			<rect id="XMLID_1325_" x="53.5" y="1411.5" class="st12" width="32.2" height="67.7"/>
			<rect id="XMLID_1477_" x="570" y="1376" class="st12" width="38.8" height="61"/>
			<g id="n1svg-articlemicro-chpo_21_">
				<rect id="XMLID_1517_" x="654.3" y="1254" class="st12" width="45.5" height="103.2"/>
			</g>
			<rect id="XMLID_1493_" x="570" y="1620.1" class="st12" width="38.8" height="62.1"/>
			<rect id="XMLID_1489_" x="570" y="1559.1" class="st12" width="38.8" height="61"/>
			<rect id="XMLID_1485_" x="570" y="1498.1" class="st12" width="38.8" height="61"/>
			<rect id="XMLID_1481_" x="570" y="1437" class="st12" width="38.8" height="61"/>
			<rect id="XMLID_1473_" x="570" y="1315" class="st12" width="38.8" height="61"/>
			<rect id="XMLID_1469_" x="570" y="1254" class="st12" width="38.8" height="61"/>
			<rect id="XMLID_1465_" x="699.8" y="1254" class="st12" width="45.5" height="103.2"/>
			<rect id="XMLID_1457_" x="608.8" y="1568" class="st12" width="146.4" height="114.3"/>
			<rect id="XMLID_1437_" x="790.8" y="1254" class="st12" width="68.8" height="103.2"/>
			<rect id="XMLID_1429_" x="608.8" y="1254" class="st12" width="45.5" height="103.2"/>
			<rect id="XMLID_1417_" x="919.5" y="1129.9" class="st12" width="38.8" height="63"/>
			<rect id="XMLID_1413_" x="880.6" y="1129.9" class="st12" width="38.8" height="63"/>
			<rect id="XMLID_1409_" x="841.8" y="1129.9" class="st12" width="38.8" height="63"/>
			<rect id="XMLID_1405_" x="803" y="1129.9" class="st12" width="38.8" height="63"/>
			<rect id="XMLID_1401_" x="764.2" y="1129.9" class="st12" width="38.8" height="63"/>
			<rect id="XMLID_1397_" x="725.3" y="1129.9" class="st12" width="38.8" height="63"/>
			<rect id="XMLID_1393_" x="686.5" y="1129.9" class="st12" width="38.8" height="63"/>
			<rect id="XMLID_1389_" x="647.7" y="1129.9" class="st12" width="38.8" height="63"/>
			<rect id="XMLID_1385_" x="608.8" y="1129.9" class="st12" width="38.8" height="63"/>
			<rect id="XMLID_1381_" x="570" y="1129.9" class="st12" width="38.8" height="63"/>
		</g>
		<g id="n1svg-legenda-so-trigger_1_">
			<rect id="XMLID_462_" x="566.4" y="1020.6" class="st16" width="21.5" height="21.5"/>
			<g id="XMLID_458_">
				<text id="XMLID_573_" transform="matrix(1 0 0 1 594.5007 1034.5098)" class="st17 st18">SOCIETY/LIFE</text>
			</g>
		</g>
		<g id="n1svg-legenda-wa-trigger_1_">
			<rect id="XMLID_447_" x="375.4" y="1068" class="st6" width="21.5" height="21.5"/>
			<g id="XMLID_421_">
				<text id="XMLID_572_" transform="matrix(1 0 0 1 407.8424 1081.5078)" class="st17 st18">SOCIETY/WAR</text>
			</g>
		</g>
		<g id="n1svg-legenda-ot-trigger_1_">
			<rect id="XMLID_6_" x="566.4" y="1068" class="st13" width="21.5" height="21.5"/>
			<g id="XMLID_3_">
				<text id="XMLID_560_" transform="matrix(1 0 0 1 594.5006 1081.5078)" class="st17 st18">OTHER</text>
			</g>
		</g>
		<g id="n1svg-legenda-ar-trigger_1_">
			<rect id="XMLID_485_" x="52.5" y="1068" class="st4" width="21.5" height="21.5"/>
			<g id="XMLID_480_">
				<text id="XMLID_558_" transform="matrix(1 0 0 1 83.4553 1081.5078)" class="st17 st18">POLITICS/ARMY</text>
			</g>
		</g>
		<g id="n1svg-legenda-po-trigger_1_">
			<rect id="XMLID_475_" x="375.4" y="1020.6" class="st11" width="21.5" height="21.5"/>
			<g id="XMLID_471_">
				<text id="XMLID_559_" transform="matrix(1 0 0 1 407.8444 1034.1133)" class="st17 st18">POLITICS/GOVERNEMENT</text>
			</g>
		</g>
		<g id="n1svg-legenda-re-trigger_1_">
			<rect id="XMLID_468_" x="193.9" y="1068" class="st10" width="21.5" height="21.5"/>
			<g id="XMLID_465_">
				<text id="XMLID_571_" transform="matrix(1 0 0 1 224.9249 1081.5078)" class="st17 st18">RELIGION/CHRISTIANITY</text>
			</g>
		</g>
		<g id="n1svg-legenda-he-trigger_1_">
			<rect id="XMLID_615_" x="52.5" y="1020.6" class="st0" width="21.5" height="21.5"/>
			<g id="XMLID_504_">
				<text id="XMLID_567_" transform="matrix(1 0 0 1 81.42 1034.1133)" class="st17 st18">HEALTH/DISEASE</text>
			</g>
		</g>
		<g id="n1svg-legenda-hr-trigger_1_">
			<rect id="XMLID_497_" x="193.9" y="1020.6" class="st7" width="21.5" height="21.5"/>
			<g id="XMLID_492_">
				<text id="XMLID_561_" transform="matrix(1 0 0 1 224.925 1034.1133)" class="st17 st18">LAW/HUMAN RIGHTS</text>
			</g>
		</g>
		<text id="XMLID_4_" transform="matrix(1 0 0 1 52.4742 931.3015)"><tspan x="0" y="0" class="st19 st18">RELEVANT TOPICS PER COUNTRIES</tspan><tspan x="0" y="13.8" class="st20 st18">Main topics inside article corpus</tspan></text>
		<g id="n1svg-article-legend">
			<line id="XMLID_2_" class="st23" x1="52.5" y1="1108.4" x2="1001.6" y2="1108.4"/>
			<text id="XMLID_459_" transform="matrix(1 0 0 1 846.6641 1098.5916)" class="st17 st22">Click the country for details</text>
		</g>
	</g>
	<g id="n1svg-article-macro">
		<rect id="XMLID_1177_" x="570.2" y="1128.3" class="st24" width="433.5" height="556.8"/>
		<rect id="XMLID_1173_" x="218.7" y="1128.3" class="st25" width="346.1" height="131.8"/>
		<rect id="XMLID_1169_" x="218.7" y="1264.1" class="st26" width="346.1" height="421.1"/>
		<rect id="XMLID_1165_" x="90.7" y="1128.3" class="st2" width="121.3" height="38.2"/>
		<rect id="XMLID_1161_" x="49.5" y="1128.3" class="st2" width="38.2" height="555.3"/>
		<rect id="XMLID_1157_" x="90.7" y="1167.9" class="st2" width="121.3" height="38.2"/>
		<rect id="XMLID_1144_" x="90.7" y="1208.1" class="st25" width="121.3" height="174"/>
		<rect id="XMLID_1133_" x="90.7" y="1387.2" class="st27" width="121.3" height="297.9"/>
	</g>
	<g id="n1svg-title-macro">
		<rect id="XMLID_5_" x="563.1" y="269.8" class="st8" width="433.5" height="555.3"/>
		<rect id="XMLID_461_" x="214.5" y="269.8" class="st25" width="346.1" height="131.8"/>
		<rect id="XMLID_467_" x="214.5" y="405.5" class="st25" width="346.1" height="419.6"/>
		<rect id="XMLID_466_" x="86.4" y="269.8" class="st2" width="121.3" height="38.2"/>
		<rect id="XMLID_1132_" x="45.3" y="269.8" class="st2" width="38.2" height="555.3"/>
		<rect id="XMLID_474_" x="86.4" y="309.4" class="st2" width="121.3" height="38.2"/>
		<rect id="XMLID_1123_" x="86.4" y="350.4" class="st25" width="121.3" height="174"/>
		<rect id="XMLID_1127_" x="86.4" y="528.3" class="st5" width="121.3" height="295.8"/>
	</g>
</g>
<g id="Livello_2">
</g>
</svg>
