<?xml version="1.0" encoding="utf-8"?>
<!-- Generator: Adobe Illustrator 19.0.0, SVG Export Plug-In . SVG Version: 6.00 Build 0)  -->
<svg version="1.1" id="Livello_1" xmlns="http://www.w3.org/2000/svg" xmlns:xlink="http://www.w3.org/1999/xlink" x="0px" y="0px"
	 viewBox="-119 -67.9 602.4 671" style="enable-background:new -119 -67.9 602.4 671;" xml:space="preserve">
<style type="text/css">
	.st0{fill:none;}
	.st1{font-family:'Karla-Regular';}
	.st2{font-size:12px;}
	.st3{fill:#BF9CAE;}
	.st4{fill:#BB5076;}
	.st5{fill:#BC7D91;}
	.st6{fill:#BAA9BB;}
	.st7{fill:#A8A6B9;}
	.st8{fill:#6F83B2;}
	.st9{fill:#929EB7;}
	.st10{fill:#7F94B5;}
	.st11{fill:#4A66AE;}
	.st12{fill:#303379;}
</style>
<g id="HeathMap">
	<rect x="-105.2" y="81.4" class="st0" width="183.3" height="12"/>
	<text transform="matrix(1 0 0 1 -100.6097 89.5234)" class="st1 st2">Accomodation and food services</text>
	<rect x="-104.7" y="107.2" class="st0" width="183.3" height="12"/>
	<text transform="matrix(1 0 0 1 -3.7933 115.3373)" class="st1 st2">Manufacturing</text>
	<g id="Livello_12">
	</g>
	<g id="Livello_21">
	</g>
	<g id="Livello_20">
	</g>
	<g id="Livello_19">
	</g>
	<g id="Livello_18">
	</g>
	<g id="Livello_17">
	</g>
	<g id="Livello_16">
	</g>
	<g id="Livello_15">
	</g>
	<g id="Livello_14">
	</g>
	<g id="Livello_13">
	</g>
	<rect x="-104.7" y="135.4" class="st0" width="183.3" height="12"/>
	<text transform="matrix(1 0 0 1 17.3979 143.4948)" class="st1 st2">Agriculture</text>
	<rect x="-104.7" y="161.3" class="st0" width="183.3" height="12"/>
	<text transform="matrix(1 0 0 1 -3.6386 169.3657)" class="st1 st2">Transportation</text>
	<rect x="-104.7" y="189.7" class="st0" width="183.3" height="12"/>
	<text transform="matrix(1 0 0 1 14.9019 197.7869)" class="st1 st2">Retail trade</text>
	<rect x="-104.7" y="217.3" class="st0" width="183.3" height="12"/>
	<text transform="matrix(1 0 0 1 39.981 225.4025)" class="st1 st2">Mining</text>
	<rect x="-104.7" y="245.4" class="st0" width="183.3" height="12"/>
	<text transform="matrix(1 0 0 1 42.0092 253.4994)" class="st1 st2">Others</text>
	<rect x="-104.7" y="273" class="st0" width="183.3" height="12"/>
	<text transform="matrix(1 0 0 1 6.706 281.103)" class="st1 st2">Construction</text>
	<rect x="-104.7" y="300.6" class="st0" width="183.3" height="12"/>
	<text transform="matrix(1 0 0 1 35.0988 308.7341)" class="st1 st2">Utilities</text>
	<rect x="-104.7" y="327.6" class="st0" width="183.3" height="12"/>
	<text transform="matrix(1 0 0 1 15.6212 335.7388)" class="st1 st2">Wholesales</text>
	<rect x="-104.7" y="355.6" class="st0" width="183.3" height="12"/>
	<text transform="matrix(1 0 0 1 35.1575 363.6862)" class="st1 st2">Finance</text>
	<rect x="-104.7" y="382.6" class="st0" width="183.3" height="12"/>
	<text transform="matrix(1 0 0 1 -50.9532 390.6907)" class="st1 st2">Arts and Entertainment</text>
	<rect x="-104.7" y="411" class="st0" width="183.3" height="12"/>
	<text transform="matrix(1 0 0 1 17.6982 419.0996)" class="st1 st2">Real estate</text>
	<rect x="-104.7" y="438" class="st0" width="183.3" height="12"/>
	<text transform="matrix(1 0 0 1 -3.5057 446.104)" class="st1 st2">Administrative</text>
	<rect x="-104.7" y="466.3" class="st0" width="183.3" height="12"/>
	<text transform="matrix(1 0 0 1 18.8862 474.3669)" class="st1 st2">Healthcare</text>
	<rect x="-104.7" y="493.4" class="st0" width="183.3" height="12"/>
	<text transform="matrix(1 0 0 1 12.9222 501.4767)" class="st1 st2">Information</text>
	<rect x="-104.7" y="521.6" class="st0" width="183.3" height="12"/>
	<text transform="matrix(1 0 0 1 -38.7246 529.7555)" class="st1 st2">Professional Services</text>
	<rect x="-104.7" y="550.1" class="st0" width="183.3" height="12"/>
	<text transform="matrix(1 0 0 1 5.6253 558.2311)" class="st1 st2">Management</text>
	<rect x="-104.7" y="577.4" class="st0" width="183.3" height="12"/>
	<text transform="matrix(1 0 0 1 22.6536 585.5378)" class="st1 st2">Education</text>
</g>
<g id="managing">
	<polygon id="_x31__38_" class="st3" points="92.9,74.6 89.2,74.6 89.2,93.1 92.9,93.1 96.7,93.1 96.7,74.6 	"/>
	<polygon id="_x31__37_" class="st4" points="104.8,101.2 101,101.2 97.2,101.2 93.5,101.2 89.7,101.2 89.7,119.7 93.5,119.7 
		97.2,119.7 101,119.7 104.8,119.7 108.5,119.7 108.5,101.2 	"/>
	<polygon id="_x31__36_" class="st4" points="97.2,129.1 93.5,129.1 89.7,129.1 89.7,147.6 93.5,147.6 97.2,147.6 101,147.6 
		101,129.1 	"/>
	<polygon id="_x31__35_" class="st3" points="101,155.6 97.2,155.6 93.5,155.6 89.7,155.6 89.7,174 93.5,174 97.2,174 101,174 
		104.8,174 104.8,155.6 	"/>
	<polygon id="_x31__34_" class="st4" points="97.2,183.4 93.5,183.4 89.7,183.4 89.7,201.9 93.5,201.9 97.2,201.9 101,201.9 
		101,183.4 	"/>
	<polygon id="_x31__33_" class="st5" points="112.3,211.3 108.5,211.3 104.8,211.3 101,211.3 97.2,211.3 93.5,211.3 89.7,211.3 
		89.7,229.8 93.5,229.8 97.2,229.8 101,229.8 104.8,229.8 108.5,229.8 112.3,229.8 116.1,229.8 116.1,211.3 	"/>
	<polygon id="_x31__32_" class="st4" points="112.3,239.2 108.5,239.2 104.8,239.2 101,239.2 97.2,239.2 93.5,239.2 89.7,239.2 
		89.7,257.7 93.5,257.7 97.2,257.7 101,257.7 104.8,257.7 108.5,257.7 112.3,257.7 116.1,257.7 116.1,239.2 	"/>
	<polygon id="_x31__31_" class="st5" points="104.8,267.1 101,267.1 97.2,267.1 93.5,267.1 89.7,267.1 89.7,285.6 93.5,285.6 
		97.2,285.6 101,285.6 104.8,285.6 108.5,285.6 108.5,267.1 	"/>
	<polygon id="_x31__30_" class="st4" points="112.3,294.8 108.5,294.8 104.8,294.8 101,294.8 97.2,294.8 93.5,294.8 89.7,294.8 
		89.7,313.3 93.5,313.3 97.2,313.3 101,313.3 104.8,313.3 108.5,313.3 112.3,313.3 116,313.3 116,294.8 	"/>
	<polygon id="_x31__29_" class="st4" points="104.9,321.5 101.1,321.5 97.3,321.5 93.6,321.5 89.8,321.5 89.8,340 93.6,340 
		97.3,340 101.1,340 104.9,340 108.6,340 108.6,321.5 	"/>
	<polygon id="_x31__28_" class="st4" points="108.6,349.1 104.9,349.1 101.1,349.1 97.3,349.1 93.6,349.1 89.8,349.1 89.8,367.6 
		93.6,367.6 97.3,367.6 101.1,367.6 104.9,367.6 108.6,367.6 112.4,367.6 112.4,349.1 	"/>
	<polygon id="_x31__27_" class="st5" points="123.7,376.8 119.9,376.8 116.2,376.8 112.4,376.8 108.6,376.8 104.9,376.8 
		101.1,376.8 97.3,376.8 93.6,376.8 89.8,376.8 89.8,395.3 93.6,395.3 97.3,395.3 101.1,395.3 104.9,395.3 108.6,395.3 112.4,395.3 
		116.2,395.3 119.9,395.3 123.7,395.3 127.4,395.3 127.4,376.8 	"/>
	<polygon id="_x31__26_" class="st4" points="112.4,404.5 108.6,404.5 104.9,404.5 101.1,404.5 97.3,404.5 93.6,404.5 89.8,404.5 
		89.8,423 93.6,423 97.3,423 101.1,423 104.9,423 108.6,423 112.4,423 116.2,423 116.2,404.5 	"/>
	<polygon id="_x31__25_" class="st5" points="107,432.2 103.6,432.2 100.2,432.2 96.7,432.2 93.3,432.2 89.8,432.2 89.8,450.7 
		93.3,450.7 96.7,450.7 100.2,450.7 103.6,450.7 107,450.7 110.5,450.7 110.5,432.2 	"/>
	<polygon id="_x31__24_" class="st4" points="116,460.1 112.3,460.1 108.5,460.1 104.8,460.1 101,460.1 97.2,460.1 93.5,460.1 
		89.7,460.1 89.7,478.6 93.5,478.6 97.2,478.6 101,478.6 104.8,478.6 108.5,478.6 112.3,478.6 116,478.6 119.8,478.6 119.8,460.1 	
		"/>
	<polygon id="_x31__23_" class="st4" points="104.8,487.9 101,487.9 97.2,487.9 93.5,487.9 89.7,487.9 89.7,506.4 93.5,506.4 
		97.2,506.4 101,506.4 104.8,506.4 108.5,506.4 108.5,487.9 	"/>
	<polygon id="_x31__22_" class="st4" points="112.4,515.7 108.6,515.7 104.9,515.7 101.1,515.7 97.3,515.7 93.6,515.7 89.8,515.7 
		89.8,534.2 93.6,534.2 97.3,534.2 101.1,534.2 104.9,534.2 108.6,534.2 112.4,534.2 116.2,534.2 116.2,515.7 	"/>
	<polygon id="_x31__21_" class="st4" points="123.7,543.6 119.9,543.6 116.2,543.6 112.4,543.6 108.6,543.6 104.9,543.6 
		101.1,543.6 97.3,543.6 93.6,543.6 89.8,543.6 89.8,562.1 93.6,562.1 97.3,562.1 101.1,562.1 104.9,562.1 108.6,562.1 112.4,562.1 
		116.2,562.1 119.9,562.1 123.7,562.1 127.4,562.1 127.4,543.6 	"/>
	<polygon id="_x31__20_" class="st4" points="168.8,571.4 165.1,571.4 161.3,571.4 157.5,571.4 153.8,571.4 150,571.4 146.2,571.4 
		142.5,571.4 138.7,571.4 135,571.4 131.2,571.4 127.4,571.4 123.7,571.4 119.9,571.4 116.2,571.4 112.4,571.4 108.6,571.4 
		104.9,571.4 101.1,571.4 97.3,571.4 93.6,571.4 89.8,571.4 89.8,589.9 93.6,589.9 97.3,589.9 101.1,589.9 104.9,589.9 108.6,589.9 
		112.4,589.9 116.2,589.9 119.9,589.9 123.7,589.9 127.4,589.9 131.2,589.9 135,589.9 138.7,589.9 142.5,589.9 146.2,589.9 
		150,589.9 153.8,589.9 157.5,589.9 161.3,589.9 165.1,589.9 168.8,589.9 172.6,589.9 172.6,571.4 	"/>
	<g id="ManagingOthers">
		<g id="Livello_11">
			<g>
				<path d="M44.3-7.7c0.8-0.8,1.7-1.8,2.4-2.6l0,0c-0.9,0.5-1.8,0.9-2.9,1.5L40-7l-0.6-0.6l1.8-3.6c0.5-1.1,1-2,1.6-2.9l0,0
					c-0.7,0.7-1.7,1.6-2.6,2.4l-2.6,2.3l-0.7-0.7l6.1-5.3l0.9,0.9l-1.8,3.7c-0.5,0.9-0.9,1.8-1.3,2.5l0,0c0.7-0.4,1.6-0.9,2.5-1.3
					l3.8-1.7l0.9,0.9l-5.4,6.1L41.9-5L44.3-7.7z"/>
				<path d="M46.1-0.9l0.5-0.6l0,0c-0.6,0.1-1.3-0.1-1.9-0.6c-0.8-0.8-0.7-1.8-0.1-2.4c1-1,2.4-0.7,4,0.9l0.1-0.1
					c0.3-0.3,0.9-1,0-1.9c-0.4-0.4-0.9-0.7-1.4-0.8l0.3-0.7c0.6,0.1,1.2,0.5,1.7,1c1.3,1.3,0.7,2.4-0.1,3.2l-1.5,1.5
					C47.3-1,47-0.7,46.8-0.3L46.1-0.9z M48-3.1c-0.8-0.8-1.9-1.6-2.7-0.8c-0.5,0.5-0.4,1,0,1.4C45.8-2,46.5-2,47-2.2
					c0.1-0.1,0.2-0.1,0.3-0.2L48-3.1z"/>
				<path d="M50.9-2.1c0.4-0.4,0.8-0.8,1.1-1.1l0.7,0.7l-0.6,0.7l0,0c0.6-0.2,1.5-0.1,2.1,0.6c0.6,0.6,1.1,1.8-0.3,3.2l-2.5,2.5
					l-0.7-0.7l2.4-2.4c0.7-0.7,1-1.5,0.3-2.2c-0.5-0.5-1.2-0.5-1.8-0.2c-0.1,0.1-0.3,0.2-0.4,0.3l-2.5,2.5L48,1.1L50.9-2.1z"/>
				<path d="M54.9,7.9l0.5-0.6l0,0c-0.6,0.1-1.3-0.1-1.9-0.6c-0.8-0.8-0.7-1.8-0.1-2.4c1-1,2.4-0.7,4,0.9l0.1-0.1
					c0.3-0.3,0.9-1,0-1.9c-0.4-0.4-0.9-0.7-1.4-0.8l0.3-0.7c0.6,0.1,1.2,0.5,1.7,1C59.4,4,58.8,5.1,58,5.9l-1.5,1.5
					c-0.4,0.4-0.7,0.7-0.9,1.1L54.9,7.9z M56.8,5.7c-0.8-0.8-1.9-1.6-2.7-0.8c-0.5,0.5-0.4,1,0,1.4c0.5,0.5,1.2,0.5,1.7,0.3
					c0.1-0.1,0.2-0.1,0.3-0.2L56.8,5.7z"/>
				<path d="M64.3,9.2c-0.3,0.3-0.7,0.6-1.2,1.1l-2.4,2.4C59.8,13.6,59,14,58.2,14s-1.5-0.5-2-1s-0.9-1.2-1-1.7l0.8-0.4
					c0.1,0.4,0.4,1,0.9,1.5c0.8,0.8,1.7,0.9,2.8-0.1l0.5-0.5l0,0c-0.6,0.2-1.4,0-2-0.6c-1-1-0.9-2.6,0.3-3.7c1.4-1.4,3.1-1.3,4-0.3
					c0.7,0.7,0.7,1.5,0.6,2l0,0l0.7-0.6L64.3,9.2z M61.9,10c0.1-0.1,0.2-0.2,0.3-0.4c0.3-0.6,0.3-1.3-0.3-1.8
					c-0.7-0.7-1.8-0.6-2.8,0.3c-0.8,0.8-1.1,1.9-0.3,2.7c0.5,0.5,1.2,0.6,1.8,0.3c0.2-0.1,0.3-0.2,0.5-0.3L61.9,10z"/>
				<path d="M67.5,10c-0.2,0.3-0.6,0.3-0.9,0s-0.2-0.7,0-0.9c0.3-0.3,0.7-0.3,0.9,0S67.7,9.7,67.5,10z M61.4,14.4l4.1-4.1l0.7,0.7
					l-4.1,4.1L61.4,14.4z"/>
				<path d="M66.3,13.4c0.4-0.4,0.8-0.8,1.1-1.1l0.7,0.7l-0.6,0.7l0,0c0.6-0.2,1.5-0.1,2.1,0.6c0.6,0.6,1.1,1.8-0.3,3.2L66.8,20
					l-0.7-0.7l2.4-2.4c0.7-0.7,1-1.5,0.3-2.2c-0.5-0.5-1.2-0.5-1.8-0.2c-0.1,0.1-0.3,0.2-0.4,0.3l-2.5,2.5l-0.7-0.7L66.3,13.4z"/>
				<path d="M75.7,20.6c-0.3,0.3-0.7,0.6-1.2,1.1l-2.4,2.4c-0.9,0.9-1.7,1.3-2.5,1.3s-1.5-0.5-2-1s-0.9-1.2-1-1.7l0.8-0.4
					c0.1,0.4,0.4,1,0.9,1.5c0.8,0.8,1.7,0.9,2.8-0.1l0.5-0.5l0,0c-0.6,0.2-1.4,0-2-0.6c-1-1-0.9-2.6,0.3-3.7c1.4-1.4,3.1-1.3,4-0.3
					c0.7,0.7,0.7,1.5,0.6,2l0,0l0.7-0.6L75.7,20.6z M73.3,21.4c0.1-0.1,0.2-0.2,0.3-0.4c0.3-0.6,0.3-1.3-0.3-1.8
					c-0.7-0.7-1.8-0.6-2.8,0.3c-0.8,0.8-1.1,1.9-0.3,2.7c0.5,0.5,1.2,0.6,1.8,0.3c0.2-0.1,0.3-0.2,0.5-0.3L73.3,21.4z"/>
				<path d="M82.4,29.7c-2,2-4.2,1.8-5.7,0.4c-1.5-1.5-1.4-3.7,0.3-5.5c1.8-1.8,4.1-1.9,5.7-0.3C84.3,25.8,84.1,28,82.4,29.7z
					 M77.9,25.3c-1.2,1.2-1.7,3-0.5,4.1c1.2,1.2,2.9,0.8,4.2-0.5c1.1-1.1,1.7-2.9,0.5-4.1C80.9,23.5,79.2,24.1,77.9,25.3z"/>
				<path d="M86.8,29.3l-1.2,1.2l1.1,1.1l-0.6,0.6L85,31.1l-2.2,2.2c-0.5,0.5-0.7,0.9-0.2,1.4c0.2,0.2,0.4,0.3,0.5,0.4l-0.5,0.6
					c-0.2-0.1-0.5-0.3-0.8-0.6c-0.3-0.3-0.5-0.7-0.5-1.1s0.3-0.9,0.8-1.4l2.2-2.2l-0.6-0.6l0.6-0.6l0.6,0.6l1-1L86.8,29.3z"/>
				<path d="M89.4,30.4l0.7,0.7l-2.6,2.6l0,0c0.3-0.1,0.7-0.1,1.1,0c0.3,0.1,0.7,0.3,1,0.6c0.6,0.6,1.1,1.8-0.3,3.2l-2.4,2.4
					l-0.7-0.7l2.4-2.4c0.7-0.7,1-1.5,0.3-2.2c-0.5-0.5-1.2-0.5-1.7-0.3c-0.1,0.1-0.3,0.2-0.4,0.3l-2.5,2.5l-0.7-0.7L89.4,30.4z"/>
				<path d="M90.4,39.7c-1,1-0.8,2.1,0,2.8c0.5,0.5,0.9,0.8,1.3,0.9l-0.4,0.7c-0.4-0.1-1-0.5-1.6-1.1c-1.3-1.3-1.2-2.8,0.1-4.1
					c1.2-1.2,2.9-1.5,4.1-0.3c1.3,1.3,0.5,2.9-0.2,3.6c-0.2,0.2-0.3,0.3-0.4,0.3L90.4,39.7z M93.2,41.3c0.5-0.5,1-1.4,0.2-2.2
					c-0.8-0.8-1.8-0.4-2.4,0.1L93.2,41.3z"/>
				<path d="M95.2,42.6c0.5-0.5,0.9-0.9,1.2-1.3l0.7,0.7l-0.8,0.8l0,0c0.7-0.4,1.5-0.3,2,0.2c0.1,0.1,0.1,0.2,0.2,0.2l-0.7,0.7
					c-0.1-0.1-0.1-0.2-0.2-0.3c-0.5-0.5-1.3-0.5-2,0c-0.1,0.1-0.3,0.2-0.4,0.3L93,46.1l-0.7-0.7L95.2,42.6z"/>
				<path d="M95.8,47.3c0.1,0.4,0.3,0.9,0.7,1.3c0.5,0.5,1.1,0.5,1.4,0.2c0.4-0.4,0.3-0.8,0-1.5c-0.5-1-0.4-1.8,0.1-2.2
					c0.7-0.7,1.7-0.7,2.6,0.2c0.4,0.4,0.7,0.9,0.8,1.3l-0.7,0.4c-0.1-0.3-0.2-0.7-0.6-1.1s-0.9-0.4-1.2-0.1s-0.2,0.7,0.1,1.5
					c0.4,1,0.4,1.7-0.2,2.3c-0.7,0.7-1.8,0.7-2.8-0.3c-0.4-0.4-0.8-1-0.9-1.4L95.8,47.3z"/>
			</g>
		</g>
	</g>
</g>
<g id="expert">
	<polygon id="_x32__4_" class="st6" points="111.7,74.6 108,74.6 104.2,74.6 100.5,74.6 96.7,74.6 96.7,93.1 100.5,93.1 104.2,93.1 
		108,93.1 111.7,93.1 115.5,93.1 115.5,74.6 	"/>
	<polygon id="_x32__2_" class="st5" points="153.7,101.2 149.9,101.2 146.1,101.2 142.4,101.2 138.6,101.2 134.9,101.2 131.1,101.2 
		127.3,101.2 123.6,101.2 119.8,101.2 116.1,101.2 112.3,101.2 108.5,101.2 108.5,119.7 112.3,119.7 116.1,119.7 119.8,119.7 
		123.6,119.7 127.3,119.7 131.1,119.7 134.9,119.7 138.6,119.7 142.4,119.7 146.1,119.7 149.9,119.7 153.7,119.7 157.4,119.7 
		157.4,101.2 	"/>
	<polygon id="_x32_" class="st6" points="116.1,129.1 112.3,129.1 108.5,129.1 104.8,129.1 101,129.1 101,147.6 104.8,147.6 
		108.5,147.6 112.3,147.6 116.1,147.6 119.8,147.6 119.8,129.1 	"/>
	<polygon id="_x32__1_" class="st6" points="131.1,155.6 127.3,155.6 123.6,155.6 119.8,155.6 116.1,155.6 112.3,155.6 108.5,155.6 
		104.8,155.6 104.8,174 108.5,174 112.3,174 116.1,174 119.8,174 123.6,174 127.3,174 131.1,174 134.9,174 134.9,155.6 	"/>
	<polygon id="_x32__3_" class="st7" points="119.8,183.4 116.1,183.4 112.3,183.4 108.5,183.4 104.8,183.4 101,183.4 101,201.9 
		104.8,201.9 108.5,201.9 112.3,201.9 116.1,201.9 119.8,201.9 123.6,201.9 123.6,183.4 	"/>
	<polygon id="_x32__5_" class="st3" points="153.7,211.3 149.9,211.3 146.1,211.3 142.4,211.3 138.6,211.3 134.9,211.3 131.1,211.3 
		127.3,211.3 123.6,211.3 119.8,211.3 116.1,211.3 116.1,229.8 119.8,229.8 123.6,229.8 127.3,229.8 131.1,229.8 134.9,229.8 
		138.6,229.8 142.4,229.8 146.1,229.8 149.9,229.8 153.7,229.8 157.4,229.8 157.4,211.3 	"/>
	<polygon id="_x32__6_" class="st3" points="157.4,239.2 153.7,239.2 149.9,239.2 146.1,239.2 142.4,239.2 138.6,239.2 134.9,239.2 
		131.1,239.2 127.3,239.2 123.6,239.2 119.8,239.2 116.1,239.2 116.1,257.7 119.8,257.7 123.6,257.7 127.3,257.7 131.1,257.7 
		134.9,257.7 138.6,257.7 142.4,257.7 146.1,257.7 149.9,257.7 153.7,257.7 157.4,257.7 161.2,257.7 161.2,239.2 	"/>
	<polygon id="_x32__7_" class="st5" points="142.4,267.1 138.6,267.1 134.8,267.1 131.1,267.1 127.3,267.1 123.6,267.1 119.8,267.1 
		116,267.1 112.3,267.1 108.5,267.1 108.5,285.6 112.3,285.6 116,285.6 119.8,285.6 123.6,285.6 127.3,285.6 131.1,285.6 
		134.8,285.6 138.6,285.6 142.4,285.6 146.1,285.6 146.1,267.1 	"/>
	<polygon id="_x32__8_" class="st5" points="164.9,294.8 161.2,294.8 157.4,294.8 153.7,294.8 149.9,294.8 146.1,294.8 142.4,294.8 
		138.6,294.8 134.9,294.8 131.1,294.8 127.3,294.8 123.6,294.8 119.8,294.8 116,294.8 116,313.3 119.8,313.3 123.6,313.3 
		127.3,313.3 131.1,313.3 134.9,313.3 138.6,313.3 142.4,313.3 146.1,313.3 149.9,313.3 153.7,313.3 157.4,313.3 161.2,313.3 
		164.9,313.3 168.7,313.3 168.7,294.8 	"/>
	<polygon id="_x32__9_" class="st3" points="150,321.5 146.2,321.5 142.5,321.5 138.7,321.5 135,321.5 131.2,321.5 127.4,321.5 
		123.7,321.5 119.9,321.5 116.2,321.5 112.4,321.5 108.6,321.5 108.6,340 112.4,340 116.2,340 119.9,340 123.7,340 127.4,340 
		131.2,340 135,340 138.7,340 142.5,340 146.2,340 150,340 153.8,340 153.8,321.5 	"/>
	<polygon id="_x32__10_" class="st5" points="180.1,349.1 176.3,349.1 172.6,349.1 168.8,349.1 165.1,349.1 161.3,349.1 
		157.5,349.1 153.8,349.1 150,349.1 146.2,349.1 142.5,349.1 138.7,349.1 135,349.1 131.2,349.1 127.4,349.1 123.7,349.1 
		119.9,349.1 116.2,349.1 112.4,349.1 112.4,367.6 116.2,367.6 119.9,367.6 123.7,367.6 127.4,367.6 131.2,367.6 135,367.6 
		138.7,367.6 142.5,367.6 146.2,367.6 150,367.6 153.8,367.6 157.5,367.6 161.3,367.6 165.1,367.6 168.8,367.6 172.6,367.6 
		176.3,367.6 180.1,367.6 183.9,367.6 183.9,349.1 	"/>
	<polygon id="_x32__11_" class="st3" points="172.6,376.8 168.8,376.8 165.1,376.8 161.3,376.8 157.5,376.8 153.8,376.8 150,376.8 
		146.2,376.8 142.5,376.8 138.7,376.8 135,376.8 131.2,376.8 127.4,376.8 127.4,395.3 131.2,395.3 135,395.3 138.7,395.3 
		142.5,395.3 146.2,395.3 150,395.3 153.8,395.3 157.5,395.3 161.3,395.3 165.1,395.3 168.8,395.3 172.6,395.3 176.3,395.3 
		176.3,376.8 	"/>
	<polygon id="_x32__12_" class="st3" points="157.5,404.5 153.8,404.5 150,404.5 146.2,404.5 142.5,404.5 138.7,404.5 135,404.5 
		131.2,404.5 127.4,404.5 123.7,404.5 119.9,404.5 116.2,404.5 116.2,423 119.9,423 123.7,423 127.4,423 131.2,423 135,423 
		138.7,423 142.5,423 146.2,423 150,423 153.8,423 157.5,423 161.3,423 161.3,404.5 	"/>
	<polygon id="_x32__13_" class="st5" points="157.4,432.2 153.5,432.2 149.6,432.2 145.7,432.2 141.8,432.2 137.9,432.2 134,432.2 
		130,432.2 126.1,432.2 122.2,432.2 118.3,432.2 114.4,432.2 110.5,432.2 110.5,450.7 114.4,450.7 118.3,450.7 122.2,450.7 
		126.1,450.7 130,450.7 134,450.7 137.9,450.7 141.8,450.7 145.7,450.7 149.6,450.7 153.5,450.7 157.4,450.7 161.3,450.7 
		161.3,432.2 	"/>
	<polygon id="_x32__14_" class="st5" points="168.7,460.1 164.9,460.1 161.2,460.1 157.4,460.1 153.7,460.1 149.9,460.1 
		146.1,460.1 142.4,460.1 138.6,460.1 134.8,460.1 131.1,460.1 127.3,460.1 123.6,460.1 119.8,460.1 119.8,478.6 123.6,478.6 
		127.3,478.6 131.1,478.6 134.8,478.6 138.6,478.6 142.4,478.6 146.1,478.6 149.9,478.6 153.7,478.6 157.4,478.6 161.2,478.6 
		164.9,478.6 168.7,478.6 172.5,478.6 172.5,460.1 	"/>
	<polygon id="_x32__15_" class="st5" points="198.8,487.9 195,487.9 191.3,487.9 187.5,487.9 183.8,487.9 180,487.9 176.2,487.9 
		172.5,487.9 168.7,487.9 164.9,487.9 161.2,487.9 157.4,487.9 153.7,487.9 149.9,487.9 146.1,487.9 142.4,487.9 138.6,487.9 
		134.8,487.9 131.1,487.9 127.3,487.9 123.6,487.9 119.8,487.9 116,487.9 112.3,487.9 108.5,487.9 108.5,506.4 112.3,506.4 
		116,506.4 119.8,506.4 123.6,506.4 127.3,506.4 131.1,506.4 134.8,506.4 138.6,506.4 142.4,506.4 146.1,506.4 149.9,506.4 
		153.7,506.4 157.4,506.4 161.2,506.4 164.9,506.4 168.7,506.4 172.5,506.4 176.2,506.4 180,506.4 183.8,506.4 187.5,506.4 
		191.3,506.4 195,506.4 198.8,506.4 202.6,506.4 202.6,487.9 	"/>
	<polygon id="_x32__16_" class="st5" points="214,515.7 210.2,515.7 206.4,515.7 202.7,515.7 198.9,515.7 195.2,515.7 191.4,515.7 
		187.6,515.7 183.9,515.7 180.1,515.7 176.3,515.7 172.6,515.7 168.8,515.7 165.1,515.7 161.3,515.7 157.5,515.7 153.8,515.7 
		150,515.7 146.2,515.7 142.5,515.7 138.7,515.7 135,515.7 131.2,515.7 127.4,515.7 123.7,515.7 119.9,515.7 116.2,515.7 
		116.2,534.2 119.9,534.2 123.7,534.2 127.4,534.2 131.2,534.2 135,534.2 138.7,534.2 142.5,534.2 146.2,534.2 150,534.2 
		153.8,534.2 157.5,534.2 161.3,534.2 165.1,534.2 168.8,534.2 172.6,534.2 176.3,534.2 180.1,534.2 183.9,534.2 187.6,534.2 
		191.4,534.2 195.2,534.2 198.9,534.2 202.7,534.2 206.4,534.2 210.2,534.2 214,534.2 217.7,534.2 217.7,515.7 	"/>
	<rect id="_x32__17_" x="127.4" y="543.6" class="st5" width="3.8" height="18.5"/>
	<polygon id="_x32__18_" class="st5" points="277.9,571.4 274.1,571.4 270.4,571.4 266.6,571.4 262.9,571.4 259.1,571.4 
		255.3,571.4 251.6,571.4 247.8,571.4 244.1,571.4 240.3,571.4 236.5,571.4 232.8,571.4 229,571.4 225.2,571.4 221.5,571.4 
		217.7,571.4 214,571.4 210.2,571.4 206.4,571.4 202.7,571.4 198.9,571.4 195.2,571.4 191.4,571.4 187.6,571.4 183.9,571.4 
		180.1,571.4 176.3,571.4 172.6,571.4 172.6,589.9 176.3,589.9 180.1,589.9 183.9,589.9 187.6,589.9 191.4,589.9 195.2,589.9 
		198.9,589.9 202.7,589.9 206.4,589.9 210.2,589.9 214,589.9 217.7,589.9 221.5,589.9 225.2,589.9 229,589.9 232.8,589.9 
		236.5,589.9 240.3,589.9 244.1,589.9 247.8,589.9 251.6,589.9 255.3,589.9 259.1,589.9 262.9,589.9 266.6,589.9 270.4,589.9 
		274.1,589.9 277.9,589.9 281.7,589.9 281.7,571.4 	"/>
	<g id="ApplyingExpertise">
		<g>
			<path d="M95.4-15L93-13.8l-0.8-0.8l7.7-3.8l0.9,0.9L97-9.8l-0.8-0.8l1.2-2.4L95.4-15z M97.9-13.7l1.1-2.2
				c0.2-0.5,0.5-0.9,0.7-1.3l0,0c-0.4,0.3-0.9,0.5-1.3,0.7l-2.2,1.1L97.9-13.7z"/>
			<path d="M100.6-11.7c0.5-0.5,0.9-1,1.3-1.4l0.7,0.7l-0.7,0.7l0,0c0.8-0.2,1.6,0,2.3,0.7c1,1,0.9,2.6-0.3,3.8
				c-1.5,1.5-3.1,1.3-4.1,0.3c-0.5-0.5-0.8-1.3-0.6-1.9l0,0l-2.3,2.2l-0.7-0.7L100.6-11.7z M100.2-9.9c-0.1,0.1-0.2,0.2-0.3,0.3
				c-0.4,0.7-0.3,1.5,0.2,2c0.8,0.8,1.9,0.6,2.8-0.3c0.8-0.8,1.1-2,0.3-2.7c-0.5-0.5-1.3-0.6-2.1-0.2c-0.1,0.1-0.3,0.2-0.4,0.3
				L100.2-9.9z"/>
			<path d="M105.4-6.9c0.5-0.5,0.9-1,1.3-1.4l0.7,0.7l-0.7,0.7l0,0c0.8-0.2,1.6,0,2.3,0.7c1,1,0.9,2.6-0.3,3.8
				c-1.5,1.5-3.1,1.3-4.1,0.3c-0.5-0.5-0.8-1.3-0.6-1.9l0,0l-2.2,2.2l-0.7-0.7L105.4-6.9z M105.1-5.1c-0.1,0.1-0.2,0.2-0.3,0.3
				c-0.4,0.7-0.3,1.5,0.2,2c0.8,0.8,1.9,0.6,2.8-0.3c0.8-0.8,1.1-2,0.3-2.7c-0.5-0.5-1.3-0.6-2.1-0.2c-0.1,0.1-0.3,0.2-0.4,0.3
				L105.1-5.1z"/>
			<path d="M113.5-5.3l0.7,0.7l-6,6l-0.7-0.7L113.5-5.3z"/>
			<path d="M113.9-1.2l-1.5,3.3c-0.2,0.4-0.4,0.8-0.6,1.1l0,0c0.3-0.2,0.7-0.4,1.1-0.6l3.2-1.6l0.8,0.8l-4,1.8c-1.9,0.9-3,1.2-4,1.2
				c-0.7,0-1.2-0.3-1.4-0.4l0.4-0.8c0.2,0.1,0.6,0.3,1,0.3s0.9,0,1.5-0.2c0.1,0,0.2-0.1,0.2-0.1s0.1-0.1,0.1-0.2l2.3-5.3L113.9-1.2z
				"/>
			<path d="M119.6,2.3c-0.2,0.3-0.6,0.3-0.9,0s-0.2-0.7,0-0.9c0.3-0.3,0.7-0.3,0.9,0C119.9,1.6,119.8,2,119.6,2.3z M113.5,6.7
				l4.1-4.1l0.7,0.7l-4.1,4.1L113.5,6.7z"/>
			<path d="M118.5,5.7c0.4-0.4,0.8-0.8,1.1-1.1l0.7,0.7L119.7,6l0,0c0.6-0.2,1.5-0.1,2.1,0.6c0.6,0.6,1.1,1.8-0.3,3.2l-2.5,2.5
				l-0.7-0.7l2.4-2.4c0.7-0.7,1-1.5,0.3-2.2c-0.5-0.5-1.2-0.5-1.8-0.2c-0.1,0.1-0.3,0.2-0.4,0.3l-2.5,2.5l-0.7-0.7L118.5,5.7z"/>
			<path d="M127.8,12.8c-0.3,0.3-0.7,0.6-1.2,1.1l-2.4,2.4c-0.9,0.9-1.7,1.3-2.5,1.3s-1.5-0.5-2-1s-0.9-1.2-1-1.7l0.8-0.4
				c0.1,0.4,0.4,1,0.9,1.5c0.8,0.8,1.7,0.9,2.8-0.1l0.5-0.5l0,0c-0.6,0.2-1.4,0-2-0.6c-1-1-0.9-2.6,0.3-3.7c1.4-1.4,3.1-1.3,4-0.3
				c0.7,0.7,0.7,1.5,0.6,2l0,0l0.7-0.6L127.8,12.8z M125.4,13.7c0.1-0.1,0.2-0.2,0.3-0.4c0.3-0.6,0.3-1.3-0.3-1.8
				c-0.7-0.7-1.8-0.6-2.8,0.3c-0.8,0.8-1.1,1.9-0.3,2.7c0.5,0.5,1.2,0.6,1.8,0.3c0.2-0.1,0.3-0.2,0.5-0.3L125.4,13.7z"/>
			<path d="M132.4,20.2l-2.2-2.2l-2.1,2.1l2.5,2.5l-0.6,0.6l-3.2-3.2l5.7-5.7l3.1,3.1L135,18l-2.3-2.3l-1.8,1.8l2.2,2.2L132.4,20.2z
				"/>
			<path d="M135.4,20.3l-0.3,1.5c-0.1,0.4-0.2,0.7-0.3,1.1l0,0c0.4-0.1,0.7-0.2,1.1-0.3l1.5-0.3l0.8,0.8l-3.4,0.6l-0.7,3.6l-0.8-0.8
				l0.3-1.5c0.1-0.4,0.2-0.8,0.3-1.2l0,0c-0.4,0.1-0.7,0.2-1.1,0.3l-1.5,0.3l-0.8-0.8l3.6-0.6l0.6-3.4L135.4,20.3z"/>
			<path d="M137.6,25.3c0.5-0.5,0.9-1,1.3-1.4l0.7,0.7l-0.7,0.7l0,0c0.8-0.2,1.6,0,2.3,0.7c1,1,0.9,2.6-0.3,3.8
				c-1.5,1.5-3.1,1.3-4.1,0.3c-0.5-0.5-0.8-1.3-0.6-1.9l0,0l-2.3,2.2l-0.7-0.7L137.6,25.3z M137.2,27.1c-0.1,0.1-0.2,0.2-0.3,0.3
				c-0.4,0.7-0.3,1.5,0.2,2c0.8,0.8,1.9,0.6,2.8-0.3c0.8-0.8,1.1-2,0.3-2.7c-0.5-0.5-1.3-0.6-2.1-0.2c-0.1,0.1-0.3,0.2-0.4,0.3
				L137.2,27.1z"/>
			<path d="M142,31.3c-1,1-0.8,2.1,0,2.8c0.5,0.5,0.9,0.8,1.3,0.9l-0.4,0.7c-0.4-0.1-1-0.5-1.6-1.1c-1.3-1.3-1.2-2.8,0.1-4.1
				c1.2-1.2,2.9-1.5,4.1-0.3c1.3,1.3,0.5,2.9-0.2,3.6c-0.2,0.2-0.3,0.3-0.4,0.3L142,31.3z M144.7,33c0.5-0.5,1-1.4,0.2-2.2
				c-0.8-0.8-1.8-0.4-2.4,0.1L144.7,33z"/>
			<path d="M146.7,34.3c0.5-0.5,0.9-0.9,1.2-1.3l0.7,0.7l-0.8,0.8l0,0c0.7-0.4,1.5-0.3,2,0.2c0.1,0.1,0.1,0.2,0.2,0.2l-0.7,0.7
				c-0.1-0.1-0.1-0.2-0.2-0.3c-0.5-0.5-1.3-0.5-2,0c-0.1,0.1-0.3,0.2-0.4,0.3l-2.2,2.2l-0.7-0.7L146.7,34.3z"/>
			<path d="M153.1,35.7l-1.2,1.2L153,38l-0.6,0.6l-1.1-1.1l-2.2,2.2c-0.5,0.5-0.7,0.9-0.2,1.4c0.2,0.2,0.4,0.3,0.5,0.4l-0.5,0.6
				c-0.2-0.1-0.5-0.3-0.8-0.6c-0.3-0.3-0.5-0.7-0.5-1.1s0.3-0.9,0.8-1.4l2.2-2.2l-0.6-0.6l0.6-0.6l0.6,0.6l1-1L153.1,35.7z"/>
			<path d="M155.8,38.5c-0.2,0.3-0.6,0.3-0.9,0s-0.2-0.7,0-0.9c0.3-0.3,0.7-0.3,0.9,0C156.1,37.8,156,38.2,155.8,38.5z M149.7,42.9
				l4.1-4.1l0.7,0.7l-4.1,4.1L149.7,42.9z"/>
			<path d="M152.3,44c0.1,0.4,0.3,0.9,0.7,1.3c0.5,0.5,1.1,0.5,1.4,0.2c0.4-0.4,0.3-0.8,0-1.5c-0.5-1-0.4-1.8,0.1-2.2
				c0.7-0.7,1.7-0.7,2.6,0.2c0.4,0.4,0.7,0.9,0.8,1.3l-0.7,0.4c-0.1-0.3-0.2-0.7-0.6-1.1s-0.9-0.4-1.2-0.1c-0.3,0.3-0.2,0.7,0.1,1.5
				c0.4,1,0.4,1.7-0.2,2.3c-0.7,0.7-1.8,0.7-2.8-0.3c-0.4-0.4-0.8-1-0.9-1.4L152.3,44z"/>
			<path d="M157.4,46.7c-1,1-0.8,2.1,0,2.8c0.5,0.5,0.9,0.8,1.3,0.9l-0.4,0.7c-0.4-0.1-1-0.5-1.6-1.1c-1.3-1.3-1.2-2.8,0.1-4.1
				c1.2-1.2,2.9-1.5,4.1-0.3c1.3,1.3,0.5,2.9-0.2,3.6c-0.2,0.2-0.3,0.3-0.4,0.3L157.4,46.7z M160.1,48.4c0.5-0.5,1-1.4,0.2-2.2
				c-0.8-0.8-1.8-0.4-2.4,0.1L160.1,48.4z"/>
		</g>
	</g>
</g>
<g id="stakeholder">
	<polygon id="_x33__38_" class="st7" points="194.5,74.6 190.7,74.6 187,74.6 183.2,74.6 179.4,74.6 175.7,74.6 171.9,74.6 
		168.2,74.6 164.4,74.6 160.6,74.6 156.9,74.6 153.1,74.6 149.4,74.6 145.6,74.6 141.8,74.6 138.1,74.6 134.3,74.6 130.5,74.6 
		126.8,74.6 123,74.6 119.3,74.6 115.5,74.6 115.5,93.1 119.3,93.1 123,93.1 126.8,93.1 130.5,93.1 134.3,93.1 138.1,93.1 
		141.8,93.1 145.6,93.1 149.4,93.1 153.1,93.1 156.9,93.1 160.6,93.1 164.4,93.1 168.2,93.1 171.9,93.1 175.7,93.1 179.4,93.1 
		183.2,93.1 187,93.1 190.7,93.1 194.5,93.1 198.3,93.1 198.3,74.6 	"/>
	<polygon id="_x33__37_" class="st5" points="183.8,101.2 180,101.2 176.2,101.2 172.5,101.2 168.7,101.2 165,101.2 161.2,101.2 
		157.4,101.2 157.4,119.7 161.2,119.7 165,119.7 168.7,119.7 172.5,119.7 176.2,119.7 180,119.7 183.8,119.7 187.5,119.7 
		187.5,101.2 	"/>
	<polygon id="_x33__36_" class="st6" points="142.4,129.1 138.6,129.1 134.9,129.1 131.1,129.1 127.3,129.1 123.6,129.1 
		119.8,129.1 119.8,147.6 123.6,147.6 127.3,147.6 131.1,147.6 134.9,147.6 138.6,147.6 142.4,147.6 146.1,147.6 146.1,129.1 	"/>
	<polygon id="_x33__35_" class="st6" points="183.8,155.6 180,155.6 176.2,155.6 172.5,155.6 168.7,155.6 165,155.6 161.2,155.6 
		157.4,155.6 153.7,155.6 149.9,155.6 146.1,155.6 142.4,155.6 138.6,155.6 134.9,155.6 134.9,174 138.6,174 142.4,174 146.1,174 
		149.9,174 153.7,174 157.4,174 161.2,174 165,174 168.7,174 172.5,174 176.2,174 180,174 183.8,174 187.5,174 187.5,155.6 	"/>
	<polygon id="_x33__34_" class="st4" points="217.6,183.4 213.9,183.4 210.1,183.4 206.3,183.4 202.6,183.4 198.8,183.4 195,183.4 
		191.3,183.4 187.5,183.4 183.8,183.4 180,183.4 176.2,183.4 172.5,183.4 168.7,183.4 165,183.4 161.2,183.4 157.4,183.4 
		153.7,183.4 149.9,183.4 146.1,183.4 142.4,183.4 138.6,183.4 134.9,183.4 131.1,183.4 127.3,183.4 123.6,183.4 123.6,201.9 
		127.3,201.9 131.1,201.9 134.9,201.9 138.6,201.9 142.4,201.9 146.1,201.9 149.9,201.9 153.7,201.9 157.4,201.9 161.2,201.9 
		165,201.9 168.7,201.9 172.5,201.9 176.2,201.9 180,201.9 183.8,201.9 187.5,201.9 191.3,201.9 195,201.9 198.8,201.9 202.6,201.9 
		206.3,201.9 210.1,201.9 213.9,201.9 217.6,201.9 221.4,201.9 221.4,183.4 	"/>
	<polygon id="_x33__33_" class="st3" points="183.8,211.3 180,211.3 176.2,211.3 172.5,211.3 168.7,211.3 165,211.3 161.2,211.3 
		157.4,211.3 157.4,229.8 161.2,229.8 165,229.8 168.7,229.8 172.5,229.8 176.2,229.8 180,229.8 183.8,229.8 187.5,229.8 
		187.5,211.3 	"/>
	<polygon id="_x33__32_" class="st5" points="221.4,239.2 217.6,239.2 213.9,239.2 210.1,239.2 206.3,239.2 202.6,239.2 
		198.8,239.2 195,239.2 191.3,239.2 187.5,239.2 183.8,239.2 180,239.2 176.2,239.2 172.5,239.2 168.7,239.2 165,239.2 161.2,239.2 
		161.2,257.7 165,257.7 168.7,257.7 172.5,257.7 176.2,257.7 180,257.7 183.8,257.7 187.5,257.7 191.3,257.7 195,257.7 198.8,257.7 
		202.6,257.7 206.3,257.7 210.1,257.7 213.9,257.7 217.6,257.7 221.4,257.7 225.1,257.7 225.1,239.2 	"/>
	<polygon id="_x33__31_" class="st3" points="172.5,267.1 168.7,267.1 164.9,267.1 161.2,267.1 157.4,267.1 153.7,267.1 
		149.9,267.1 146.1,267.1 146.1,285.6 149.9,285.6 153.7,285.6 157.4,285.6 161.2,285.6 164.9,285.6 168.7,285.6 172.5,285.6 
		176.2,285.6 176.2,267.1 	"/>
	<polygon id="_x33__30_" class="st5" points="213.9,294.8 210.1,294.8 206.3,294.8 202.6,294.8 198.8,294.8 195,294.8 191.3,294.8 
		187.5,294.8 183.8,294.8 180,294.8 176.2,294.8 172.5,294.8 168.7,294.8 168.7,313.3 172.5,313.3 176.2,313.3 180,313.3 
		183.8,313.3 187.5,313.3 191.3,313.3 195,313.3 198.8,313.3 202.6,313.3 206.3,313.3 210.1,313.3 213.9,313.3 217.6,313.3 
		217.6,294.8 	"/>
	<polygon id="_x33__29_" class="st5" points="240.3,321.5 236.5,321.5 232.8,321.5 229,321.5 225.2,321.5 221.5,321.5 217.7,321.5 
		214,321.5 210.2,321.5 206.4,321.5 202.7,321.5 198.9,321.5 195.2,321.5 191.4,321.5 187.6,321.5 183.9,321.5 180.1,321.5 
		176.3,321.5 172.6,321.5 168.8,321.5 165.1,321.5 161.3,321.5 157.5,321.5 153.8,321.5 153.8,340 157.5,340 161.3,340 165.1,340 
		168.8,340 172.6,340 176.3,340 180.1,340 183.9,340 187.6,340 191.4,340 195.2,340 198.9,340 202.7,340 206.4,340 210.2,340 
		214,340 217.7,340 221.5,340 225.2,340 229,340 232.8,340 236.5,340 240.3,340 244.1,340 244.1,321.5 	"/>
	<polygon id="_x33__28_" class="st5" points="266.6,349.1 262.9,349.1 259.1,349.1 255.3,349.1 251.6,349.1 247.8,349.1 
		244.1,349.1 240.3,349.1 236.5,349.1 232.8,349.1 229,349.1 225.2,349.1 221.5,349.1 217.7,349.1 214,349.1 210.2,349.1 
		206.4,349.1 202.7,349.1 198.9,349.1 195.2,349.1 191.4,349.1 187.6,349.1 183.9,349.1 183.9,367.6 187.6,367.6 191.4,367.6 
		195.2,367.6 198.9,367.6 202.7,367.6 206.4,367.6 210.2,367.6 214,367.6 217.7,367.6 221.5,367.6 225.2,367.6 229,367.6 
		232.8,367.6 236.5,367.6 240.3,367.6 244.1,367.6 247.8,367.6 251.6,367.6 255.3,367.6 259.1,367.6 262.9,367.6 266.6,367.6 
		270.4,367.6 270.4,349.1 	"/>
	<polygon id="_x33__27_" class="st3" points="262.9,376.8 259.1,376.8 255.3,376.8 251.6,376.8 247.8,376.8 244.1,376.8 
		240.3,376.8 236.5,376.8 232.8,376.8 229,376.8 225.2,376.8 221.5,376.8 217.7,376.8 214,376.8 210.2,376.8 206.4,376.8 
		202.7,376.8 198.9,376.8 195.2,376.8 191.4,376.8 187.6,376.8 183.9,376.8 180.1,376.8 176.3,376.8 176.3,395.3 180.1,395.3 
		183.9,395.3 187.6,395.3 191.4,395.3 195.2,395.3 198.9,395.3 202.7,395.3 206.4,395.3 210.2,395.3 214,395.3 217.7,395.3 
		221.5,395.3 225.2,395.3 229,395.3 232.8,395.3 236.5,395.3 240.3,395.3 244.1,395.3 247.8,395.3 251.6,395.3 255.3,395.3 
		259.1,395.3 262.9,395.3 266.6,395.3 266.6,376.8 	"/>
	<polygon id="_x33__26_" class="st3" points="236.5,404.5 232.8,404.5 229,404.5 225.2,404.5 221.5,404.5 217.7,404.5 214,404.5 
		210.2,404.5 206.4,404.5 202.7,404.5 198.9,404.5 195.2,404.5 191.4,404.5 187.6,404.5 183.9,404.5 180.1,404.5 176.3,404.5 
		172.6,404.5 168.8,404.5 165.1,404.5 161.3,404.5 161.3,423 165.1,423 168.8,423 172.6,423 176.3,423 180.1,423 183.9,423 
		187.6,423 191.4,423 195.2,423 198.9,423 202.7,423 206.4,423 210.2,423 214,423 217.7,423 221.5,423 225.2,423 229,423 232.8,423 
		236.5,423 240.3,423 240.3,404.5 	"/>
	<polygon id="_x33__25_" class="st3" points="210.2,432.2 206.4,432.2 202.7,432.2 198.9,432.2 195.2,432.2 191.4,432.2 
		187.6,432.2 183.9,432.2 180.1,432.2 176.3,432.2 172.6,432.2 168.8,432.2 165.1,432.2 161.3,432.2 161.3,450.7 165.1,450.7 
		168.8,450.7 172.6,450.7 176.3,450.7 180.1,450.7 183.9,450.7 187.6,450.7 191.4,450.7 195.2,450.7 198.9,450.7 202.7,450.7 
		206.4,450.7 210.2,450.7 214,450.7 214,432.2 	"/>
	<polygon id="_x33__24_" class="st5" points="221.4,460.1 217.6,460.1 213.8,460.1 210.1,460.1 206.3,460.1 202.6,460.1 
		198.8,460.1 195,460.1 191.3,460.1 187.5,460.1 183.8,460.1 180,460.1 176.2,460.1 172.5,460.1 172.5,478.6 176.2,478.6 180,478.6 
		183.8,478.6 187.5,478.6 191.3,478.6 195,478.6 198.8,478.6 202.6,478.6 206.3,478.6 210.1,478.6 213.8,478.6 217.6,478.6 
		221.4,478.6 225.1,478.6 225.1,460.1 	"/>
	<polygon id="_x33__23_" class="st5" points="274,487.9 270.3,487.9 266.5,487.9 262.7,487.9 259,487.9 255.2,487.9 251.5,487.9 
		247.7,487.9 243.9,487.9 240.2,487.9 236.4,487.9 232.7,487.9 228.9,487.9 225.1,487.9 221.4,487.9 217.6,487.9 213.8,487.9 
		210.1,487.9 206.3,487.9 202.6,487.9 202.6,506.4 206.3,506.4 210.1,506.4 213.8,506.4 217.6,506.4 221.4,506.4 225.1,506.4 
		228.9,506.4 232.7,506.4 236.4,506.4 240.2,506.4 243.9,506.4 247.7,506.4 251.5,506.4 255.2,506.4 259,506.4 262.7,506.4 
		266.5,506.4 270.3,506.4 274,506.4 277.8,506.4 277.8,487.9 	"/>
	<polygon id="_x33__22_" class="st5" points="274.1,515.7 270.4,515.7 266.6,515.7 262.9,515.7 259.1,515.7 255.3,515.7 
		251.6,515.7 247.8,515.7 244.1,515.7 240.3,515.7 236.5,515.7 232.8,515.7 229,515.7 225.2,515.7 221.5,515.7 217.7,515.7 
		217.7,534.2 221.5,534.2 225.2,534.2 229,534.2 232.8,534.2 236.5,534.2 240.3,534.2 244.1,534.2 247.8,534.2 251.6,534.2 
		255.3,534.2 259.1,534.2 262.9,534.2 266.6,534.2 270.4,534.2 274.1,534.2 277.9,534.2 277.9,515.7 	"/>
	<polygon id="_x33__21_" class="st5" points="217.7,543.6 214,543.6 210.2,543.6 206.4,543.6 202.7,543.6 198.9,543.6 195.2,543.6 
		191.4,543.6 187.6,543.6 183.9,543.6 180.1,543.6 176.3,543.6 172.6,543.6 168.8,543.6 165.1,543.6 161.3,543.6 157.5,543.6 
		153.8,543.6 150,543.6 146.2,543.6 142.5,543.6 138.7,543.6 135,543.6 131.2,543.6 131.2,562.1 135,562.1 138.7,562.1 142.5,562.1 
		146.2,562.1 150,562.1 153.8,562.1 157.5,562.1 161.3,562.1 165.1,562.1 168.8,562.1 172.6,562.1 176.3,562.1 180.1,562.1 
		183.9,562.1 187.6,562.1 191.4,562.1 195.2,562.1 198.9,562.1 202.7,562.1 206.4,562.1 210.2,562.1 214,562.1 217.7,562.1 
		221.5,562.1 221.5,543.6 	"/>
	<polygon id="_x33__20_" class="st5" points="315.5,571.4 311.8,571.4 308,571.4 304.2,571.4 300.5,571.4 296.7,571.4 293,571.4 
		289.2,571.4 285.4,571.4 281.7,571.4 281.7,589.9 285.4,589.9 289.2,589.9 293,589.9 296.7,589.9 300.5,589.9 304.2,589.9 
		308,589.9 311.8,589.9 315.5,589.9 319.3,589.9 319.3,571.4 	"/>
	<g id="stakeholderGroup_stakeholder_x5F_Interaction">
		<g>
			<path d="M136.8-31.3c0.1,0.5,0.4,1.2,0.9,1.7c0.8,0.8,1.6,0.8,2.2,0.2c0.5-0.5,0.5-1.1,0.1-2.2c-0.6-1.3-0.7-2.3,0.1-3.1
				c0.9-0.9,2.3-0.8,3.4,0.3c0.6,0.6,0.9,1.1,1,1.5l-0.8,0.4c-0.1-0.3-0.3-0.8-0.8-1.4c-0.8-0.8-1.5-0.6-1.9-0.2
				c-0.5,0.5-0.4,1.1,0,2.2c0.6,1.3,0.6,2.3-0.2,3.1c-0.9,0.9-2.3,1-3.6-0.4c-0.6-0.6-1-1.3-1.1-1.8L136.8-31.3z"/>
			<path d="M146.3-30.6l-1.2,1.2l1.1,1.1l-0.6,0.6l-1.1-1.1l-2.2,2.2c-0.5,0.5-0.7,0.9-0.2,1.4c0.2,0.2,0.4,0.3,0.5,0.4l-0.5,0.6
				c-0.2-0.1-0.5-0.3-0.8-0.6s-0.5-0.7-0.5-1.1s0.3-0.9,0.8-1.4l2.2-2.2l-0.6-0.6l0.6-0.6l0.6,0.6l1-1L146.3-30.6z"/>
			<path d="M145.2-21.1l0.5-0.6l0,0c-0.6,0.1-1.3-0.1-1.9-0.6c-0.8-0.8-0.7-1.8-0.1-2.4c1-1,2.4-0.7,4,0.9l0.1-0.1
				c0.3-0.3,0.9-1,0-1.9c-0.4-0.4-0.9-0.7-1.4-0.8l0.3-0.7c0.6,0.1,1.2,0.5,1.7,1c1.3,1.3,0.7,2.4-0.1,3.2l-1.5,1.5
				c-0.4,0.4-0.7,0.7-0.9,1.1L145.2-21.1z M147.2-23.3c-0.8-0.8-1.9-1.6-2.7-0.8c-0.5,0.5-0.4,1,0,1.4c0.5,0.5,1.2,0.5,1.7,0.3
				c0.1-0.1,0.2-0.1,0.3-0.2L147.2-23.3z"/>
			<path d="M150-20.8L150-20.8c0.3,0,0.6-0.1,0.8-0.1l2.6-0.2l0.9,0.9l-3.3,0.1l-0.6,4.2l-0.9-0.9l0.6-3.4h-0.8l-1.5,1.5l-0.7-0.7
				l6-6l0.7,0.7L150-20.8z"/>
			<path d="M153.3-16.8c-1,1-0.8,2.1,0,2.8c0.5,0.5,0.9,0.8,1.3,0.9l-0.4,0.7c-0.4-0.1-1-0.5-1.6-1.1c-1.3-1.3-1.2-2.8,0.1-4.1
				c1.2-1.2,2.9-1.5,4.1-0.3c1.3,1.3,0.5,2.9-0.2,3.6c-0.2,0.2-0.3,0.3-0.4,0.3L153.3-16.8z M156-15.1c0.5-0.5,1-1.4,0.2-2.2
				s-1.8-0.4-2.4,0.1L156-15.1z"/>
			<path d="M161.3-17.1l0.7,0.7l-2.6,2.6l0,0c0.3-0.1,0.7-0.1,1.1,0c0.3,0.1,0.7,0.3,1,0.6c0.6,0.6,1.1,1.8-0.3,3.2l-2.4,2.4
				l-0.7-0.7l2.4-2.4c0.7-0.7,1-1.5,0.3-2.2c-0.5-0.5-1.2-0.5-1.7-0.3c-0.1,0.1-0.3,0.2-0.4,0.3l-2.5,2.5l-0.7-0.7L161.3-17.1z"/>
			<path d="M165.7-4.7c-1.5,1.5-3.2,1.1-4.2,0.1c-1.1-1.1-1.2-2.8,0.1-4.1c1.4-1.4,3.1-1.3,4.2-0.1C167.1-7.6,167-6,165.7-4.7z
				 M162.4-7.9c-0.9,0.9-1.1,2.1-0.3,2.8c0.7,0.7,1.9,0.6,2.8-0.3c0.7-0.7,1.2-1.9,0.3-2.8C164.4-9.1,163.2-8.7,162.4-7.9z"/>
			<path d="M170.6-7.7l0.7,0.7l-6,6l-0.7-0.7L170.6-7.7z"/>
			<path d="M176.2-2.2l-5,5c-0.4,0.4-0.8,0.8-1,1.1l-0.7-0.7l0.7-0.7l0,0c-0.7,0.2-1.5,0.1-2.2-0.6c-1-1-0.9-2.6,0.3-3.8
				c1.4-1.4,3-1.4,4-0.4c0.6,0.6,0.8,1.3,0.6,1.9l0,0l2.5-2.5L176.2-2.2z M171.8,0.7c0.1-0.1,0.2-0.2,0.3-0.3
				c0.4-0.6,0.3-1.4-0.2-1.9c-0.8-0.8-1.9-0.6-2.8,0.4c-0.8,0.8-1.1,1.9-0.3,2.7c0.5,0.5,1.3,0.6,2,0.2c0.1-0.1,0.2-0.2,0.4-0.3
				L171.8,0.7z"/>
			<path d="M173.7,3.6c-1,1-0.8,2.1,0,2.8c0.5,0.5,0.9,0.8,1.3,0.9L174.6,8c-0.4-0.1-1-0.5-1.6-1.1c-1.3-1.3-1.2-2.8,0.1-4.1
				c1.2-1.2,2.9-1.5,4.1-0.3c1.3,1.3,0.5,2.9-0.2,3.6c-0.2,0.2-0.3,0.3-0.4,0.3L173.7,3.6z M176.4,5.3c0.5-0.5,1-1.4,0.2-2.2
				c-0.8-0.8-1.8-0.4-2.4,0.1L176.4,5.3z"/>
			<path d="M178.5,6.5c0.5-0.5,0.9-0.9,1.2-1.3l0.7,0.7l-0.8,0.8l0,0c0.7-0.4,1.5-0.3,2,0.2c0.1,0.1,0.1,0.2,0.2,0.2l-0.7,0.7
				c-0.1-0.1-0.1-0.2-0.2-0.3c-0.5-0.5-1.3-0.5-2,0c-0.1,0.1-0.3,0.2-0.4,0.3l-2.2,2.2l-0.7-0.7L178.5,6.5z"/>
			<path d="M186.7,9l-5.7,5.7l-0.7-0.7l5.7-5.7L186.7,9z"/>
			<path d="M185.3,13.1c0.4-0.4,0.8-0.8,1.1-1.1l0.7,0.7l-0.6,0.7l0,0c0.6-0.2,1.5-0.1,2.1,0.6c0.6,0.6,1.1,1.8-0.3,3.2l-2.5,2.5
				l-0.7-0.7l2.4-2.4c0.7-0.7,1-1.5,0.3-2.2c-0.5-0.5-1.2-0.5-1.8-0.2c-0.1,0.1-0.3,0.2-0.4,0.3l-2.5,2.5l-0.7-0.7L185.3,13.1z"/>
			<path d="M193.2,16.3l-1.2,1.2l1.1,1.1l-0.6,0.6l-1.1-1.1l-2.2,2.2c-0.5,0.5-0.7,0.9-0.2,1.4c0.2,0.2,0.4,0.3,0.5,0.4l-0.5,0.6
				c-0.2-0.1-0.5-0.3-0.8-0.6c-0.3-0.3-0.5-0.7-0.5-1.1s0.3-0.9,0.8-1.4l2.2-2.2l-0.6-0.6l0.6-0.6l0.6,0.6l1-1L193.2,16.3z"/>
			<path d="M192.1,22c-1,1-0.8,2.1,0,2.8c0.5,0.5,0.9,0.8,1.3,0.9l-0.4,0.7c-0.4-0.1-1-0.5-1.6-1.1c-1.3-1.3-1.2-2.8,0.1-4.1
				c1.2-1.2,2.9-1.5,4.1-0.3c1.3,1.3,0.5,2.9-0.2,3.6c-0.2,0.2-0.3,0.3-0.4,0.3L192.1,22z M194.8,23.6c0.5-0.5,1-1.4,0.2-2.2
				c-0.8-0.8-1.8-0.4-2.4,0.1L194.8,23.6z"/>
			<path d="M196.8,24.9c0.5-0.5,0.9-0.9,1.2-1.3l0.7,0.7l-0.8,0.8l0,0c0.7-0.4,1.5-0.3,2,0.2c0.1,0.1,0.1,0.2,0.2,0.2l-0.7,0.7
				c-0.1-0.1-0.1-0.2-0.2-0.3c-0.5-0.5-1.3-0.5-2,0c-0.1,0.1-0.3,0.2-0.4,0.3l-2.2,2.2l-0.7-0.7L196.8,24.9z"/>
			<path d="M199,32.7l0.5-0.6l0,0c-0.6,0.1-1.3-0.1-1.9-0.6c-0.8-0.8-0.7-1.8-0.1-2.4c1-1,2.4-0.7,4,0.9l0.1-0.1
				c0.3-0.3,0.9-1,0-1.9c-0.4-0.4-0.9-0.7-1.4-0.8l0.3-0.7c0.6,0.1,1.2,0.5,1.7,1c1.3,1.3,0.7,2.4-0.1,3.2l-1.5,1.5
				c-0.4,0.4-0.7,0.7-0.9,1.1L199,32.7z M201,30.5c-0.8-0.8-1.9-1.6-2.7-0.8c-0.5,0.5-0.4,1,0,1.4c0.5,0.5,1.2,0.5,1.7,0.3
				c0.1-0.1,0.2-0.1,0.3-0.2L201,30.5z"/>
			<path d="M203.9,37.3c-0.3-0.1-0.9-0.4-1.4-0.9c-1.2-1.2-1.2-2.9,0.1-4.1c1.3-1.3,3-1.3,4.4,0c0.4,0.4,0.7,0.9,0.8,1.2l-0.7,0.4
				c-0.1-0.3-0.3-0.7-0.7-1.1c-0.9-0.9-2.1-0.8-3,0.1s-0.9,2.1-0.1,3c0.4,0.4,0.8,0.6,1.1,0.7L203.9,37.3z"/>
			<path d="M210.9,34.1l-1.2,1.2l1.1,1.1l-0.6,0.6l-1.1-1.1l-2.2,2.2c-0.5,0.5-0.7,0.9-0.2,1.4c0.2,0.2,0.4,0.3,0.5,0.4l-0.5,0.6
				c-0.2-0.1-0.5-0.3-0.8-0.6c-0.3-0.3-0.5-0.7-0.5-1.1s0.3-0.9,0.8-1.4l2.2-2.2l-0.6-0.6l0.6-0.6l0.6,0.6l1-1L210.9,34.1z"/>
			<path d="M213.6,36.8c-0.2,0.3-0.6,0.3-0.9,0s-0.2-0.7,0-0.9c0.3-0.3,0.7-0.3,0.9,0C213.9,36.2,213.9,36.6,213.6,36.8z
				 M207.6,41.3l4.1-4.1l0.7,0.7l-4.1,4.1L207.6,41.3z"/>
			<path d="M215.3,44.9c-1.5,1.5-3.2,1.1-4.2,0.1c-1.1-1.1-1.2-2.8,0.1-4.1c1.4-1.4,3.1-1.3,4.2-0.1C216.7,42,216.6,43.6,215.3,44.9
				z M212,41.7c-0.9,0.9-1.1,2.1-0.3,2.8c0.7,0.7,1.9,0.6,2.8-0.3c0.7-0.7,1.2-1.9,0.3-2.8C214,40.5,212.8,40.9,212,41.7z"/>
			<path d="M217.2,44.9c0.4-0.4,0.8-0.8,1.1-1.1l0.7,0.7l-0.6,0.7l0,0c0.6-0.2,1.5-0.1,2.1,0.6c0.6,0.6,1.1,1.8-0.3,3.2l-2.5,2.5
				l-0.7-0.7l2.4-2.4c0.7-0.7,1-1.5,0.3-2.2c-0.5-0.5-1.2-0.5-1.8-0.2c-0.1,0.1-0.3,0.2-0.4,0.3l-2.5,2.5l-0.7-0.7L217.2,44.9z"/>
		</g>
	</g>
</g>
<g id="unpredictable">
	<polygon id="_x34__4_" class="st4" points="213.3,74.6 209.5,74.6 205.8,74.6 202,74.6 198.3,74.6 198.3,93.1 202,93.1 205.8,93.1 
		209.5,93.1 213.3,93.1 217.1,93.1 217.1,74.6 	"/>
	<polygon id="_x34__2_" class="st6" points="213.9,101.2 210.1,101.2 206.3,101.2 202.6,101.2 198.8,101.2 195,101.2 191.3,101.2 
		187.5,101.2 187.5,119.7 191.3,119.7 195,119.7 198.8,119.7 202.6,119.7 206.3,119.7 210.1,119.7 213.9,119.7 217.6,119.7 
		217.6,101.2 	"/>
	<polygon id="_x34_" class="st7" points="334.2,129.1 330.5,129.1 326.7,129.1 322.9,129.1 319.2,129.1 315.4,129.1 311.7,129.1 
		307.9,129.1 304.1,129.1 300.4,129.1 296.6,129.1 292.9,129.1 289.1,129.1 285.3,129.1 281.6,129.1 277.8,129.1 274,129.1 
		270.3,129.1 266.5,129.1 262.8,129.1 259,129.1 255.2,129.1 251.5,129.1 247.7,129.1 244,129.1 240.2,129.1 236.4,129.1 
		232.7,129.1 228.9,129.1 225.1,129.1 221.4,129.1 217.6,129.1 213.9,129.1 210.1,129.1 206.3,129.1 202.6,129.1 198.8,129.1 
		195,129.1 191.3,129.1 187.5,129.1 183.8,129.1 180,129.1 176.2,129.1 172.5,129.1 168.7,129.1 165,129.1 161.2,129.1 157.4,129.1 
		153.7,129.1 149.9,129.1 146.1,129.1 146.1,147.6 149.9,147.6 153.7,147.6 157.4,147.6 161.2,147.6 165,147.6 168.7,147.6 
		172.5,147.6 176.2,147.6 180,147.6 183.8,147.6 187.5,147.6 191.3,147.6 195,147.6 198.8,147.6 202.6,147.6 206.3,147.6 
		210.1,147.6 213.9,147.6 217.6,147.6 221.4,147.6 225.1,147.6 228.9,147.6 232.7,147.6 236.4,147.6 240.2,147.6 244,147.6 
		247.7,147.6 251.5,147.6 255.2,147.6 259,147.6 262.8,147.6 266.5,147.6 270.3,147.6 274,147.6 277.8,147.6 281.6,147.6 
		285.3,147.6 289.1,147.6 292.9,147.6 296.6,147.6 300.4,147.6 304.1,147.6 307.9,147.6 311.7,147.6 315.4,147.6 319.2,147.6 
		322.9,147.6 326.7,147.6 330.5,147.6 334.2,147.6 338,147.6 338,129.1 	"/>
	<polygon id="_x34__1_" class="st6" points="236.4,155.6 232.7,155.6 228.9,155.6 225.1,155.6 221.4,155.6 217.6,155.6 213.9,155.6 
		210.1,155.6 206.3,155.6 202.6,155.6 198.8,155.6 195,155.6 191.3,155.6 187.5,155.6 187.5,174 191.3,174 195,174 198.8,174 
		202.6,174 206.3,174 210.1,174 213.9,174 217.6,174 221.4,174 225.1,174 228.9,174 232.7,174 236.4,174 240.2,174 240.2,155.6 	"/>
	<polygon id="_x34__3_" class="st6" points="236.4,183.4 232.7,183.4 228.9,183.4 225.1,183.4 221.4,183.4 221.4,201.9 225.1,201.9 
		228.9,201.9 232.7,201.9 236.4,201.9 240.2,201.9 240.2,183.4 	"/>
	<polygon id="_x34__5_" class="st6" points="274,211.3 270.3,211.3 266.5,211.3 262.8,211.3 259,211.3 255.2,211.3 251.5,211.3 
		247.7,211.3 244,211.3 240.2,211.3 236.4,211.3 232.7,211.3 228.9,211.3 225.1,211.3 221.4,211.3 217.6,211.3 213.9,211.3 
		210.1,211.3 206.3,211.3 202.6,211.3 198.8,211.3 195,211.3 191.3,211.3 187.5,211.3 187.5,229.8 191.3,229.8 195,229.8 
		198.8,229.8 202.6,229.8 206.3,229.8 210.1,229.8 213.9,229.8 217.6,229.8 221.4,229.8 225.1,229.8 228.9,229.8 232.7,229.8 
		236.4,229.8 240.2,229.8 244,229.8 247.7,229.8 251.5,229.8 255.2,229.8 259,229.8 262.8,229.8 266.5,229.8 270.3,229.8 274,229.8 
		277.8,229.8 277.8,211.3 	"/>
	<polygon id="_x34__6_" class="st6" points="270.3,239.2 266.5,239.2 262.8,239.2 259,239.2 255.2,239.2 251.5,239.2 247.7,239.2 
		244,239.2 240.2,239.2 236.4,239.2 232.7,239.2 228.9,239.2 225.1,239.2 225.1,257.7 228.9,257.7 232.7,257.7 236.4,257.7 
		240.2,257.7 244,257.7 247.7,257.7 251.5,257.7 255.2,257.7 259,257.7 262.8,257.7 266.5,257.7 270.3,257.7 274,257.7 274,239.2 	
		"/>
	<polygon id="_x34__7_" class="st6" points="326.7,267.1 322.9,267.1 319.2,267.1 315.4,267.1 311.6,267.1 307.9,267.1 304.1,267.1 
		300.4,267.1 296.6,267.1 292.8,267.1 289.1,267.1 285.3,267.1 281.6,267.1 277.8,267.1 274,267.1 270.3,267.1 266.5,267.1 
		262.7,267.1 259,267.1 255.2,267.1 251.5,267.1 247.7,267.1 243.9,267.1 240.2,267.1 236.4,267.1 232.7,267.1 228.9,267.1 
		225.1,267.1 221.4,267.1 217.6,267.1 213.8,267.1 210.1,267.1 206.3,267.1 202.6,267.1 198.8,267.1 195,267.1 191.3,267.1 
		187.5,267.1 183.8,267.1 180,267.1 176.2,267.1 176.2,285.6 180,285.6 183.8,285.6 187.5,285.6 191.3,285.6 195,285.6 198.8,285.6 
		202.6,285.6 206.3,285.6 210.1,285.6 213.8,285.6 217.6,285.6 221.4,285.6 225.1,285.6 228.9,285.6 232.7,285.6 236.4,285.6 
		240.2,285.6 243.9,285.6 247.7,285.6 251.5,285.6 255.2,285.6 259,285.6 262.7,285.6 266.5,285.6 270.3,285.6 274,285.6 
		277.8,285.6 281.6,285.6 285.3,285.6 289.1,285.6 292.8,285.6 296.6,285.6 300.4,285.6 304.1,285.6 307.9,285.6 311.6,285.6 
		315.4,285.6 319.2,285.6 322.9,285.6 326.7,285.6 330.5,285.6 330.5,267.1 	"/>
	<polygon id="_x34__8_" class="st3" points="274,294.8 270.3,294.8 266.5,294.8 262.8,294.8 259,294.8 255.2,294.8 251.5,294.8 
		247.7,294.8 243.9,294.8 240.2,294.8 236.4,294.8 232.7,294.8 228.9,294.8 225.1,294.8 221.4,294.8 217.6,294.8 217.6,313.3 
		221.4,313.3 225.1,313.3 228.9,313.3 232.7,313.3 236.4,313.3 240.2,313.3 243.9,313.3 247.7,313.3 251.5,313.3 255.2,313.3 
		259,313.3 262.8,313.3 266.5,313.3 270.3,313.3 274,313.3 277.8,313.3 277.8,294.8 	"/>
	<polygon id="_x34__9_" class="st6" points="281.7,321.5 277.9,321.5 274.1,321.5 270.4,321.5 266.6,321.5 262.9,321.5 259.1,321.5 
		255.3,321.5 251.6,321.5 247.8,321.5 244.1,321.5 244.1,340 247.8,340 251.6,340 255.3,340 259.1,340 262.9,340 266.6,340 
		270.4,340 274.1,340 277.9,340 281.7,340 285.4,340 285.4,321.5 	"/>
	<rect id="_x34__10_" x="270.4" y="349.1" class="st5" width="3.8" height="18.5"/>
	<polygon id="_x34__11_" class="st5" points="319.3,376.8 315.5,376.8 311.8,376.8 308,376.8 304.2,376.8 300.5,376.8 296.7,376.8 
		293,376.8 289.2,376.8 285.4,376.8 281.7,376.8 277.9,376.8 274.1,376.8 270.4,376.8 266.6,376.8 266.6,395.3 270.4,395.3 
		274.1,395.3 277.9,395.3 281.7,395.3 285.4,395.3 289.2,395.3 293,395.3 296.7,395.3 300.5,395.3 304.2,395.3 308,395.3 
		311.8,395.3 315.5,395.3 319.3,395.3 323,395.3 323,376.8 	"/>
	<polygon id="_x34__12_" class="st5" points="296.7,404.5 293,404.5 289.2,404.5 285.4,404.5 281.7,404.5 277.9,404.5 274.1,404.5 
		270.4,404.5 266.6,404.5 262.9,404.5 259.1,404.5 255.3,404.5 251.6,404.5 247.8,404.5 244.1,404.5 240.3,404.5 240.3,423 
		244.1,423 247.8,423 251.6,423 255.3,423 259.1,423 262.9,423 266.6,423 270.4,423 274.1,423 277.9,423 281.7,423 285.4,423 
		289.2,423 293,423 296.7,423 300.5,423 300.5,404.5 	"/>
	<polygon id="_x34__13_" class="st5" points="296.7,432.2 293,432.2 289.2,432.2 285.4,432.2 281.7,432.2 277.9,432.2 274.1,432.2 
		270.4,432.2 266.6,432.2 262.9,432.2 259.1,432.2 255.3,432.2 251.6,432.2 247.8,432.2 244.1,432.2 240.3,432.2 236.5,432.2 
		232.8,432.2 229,432.2 225.2,432.2 221.5,432.2 217.7,432.2 214,432.2 214,450.7 217.7,450.7 221.5,450.7 225.2,450.7 229,450.7 
		232.8,450.7 236.5,450.7 240.3,450.7 244.1,450.7 247.8,450.7 251.6,450.7 255.3,450.7 259.1,450.7 262.9,450.7 266.6,450.7 
		270.4,450.7 274.1,450.7 277.9,450.7 281.7,450.7 285.4,450.7 289.2,450.7 293,450.7 296.7,450.7 300.5,450.7 300.5,432.2 	"/>
	<polygon id="_x34__14_" class="st5" points="262.7,460.1 259,460.1 255.2,460.1 251.5,460.1 247.7,460.1 243.9,460.1 240.2,460.1 
		236.4,460.1 232.7,460.1 228.9,460.1 225.1,460.1 225.1,478.6 228.9,478.6 232.7,478.6 236.4,478.6 240.2,478.6 243.9,478.6 
		247.7,478.6 251.5,478.6 255.2,478.6 259,478.6 262.7,478.6 266.5,478.6 266.5,460.1 	"/>
	<polygon id="_x34__15_" class="st6" points="300.4,487.9 296.6,487.9 292.8,487.9 289.1,487.9 285.3,487.9 281.6,487.9 
		277.8,487.9 277.8,506.4 281.6,506.4 285.3,506.4 289.1,506.4 292.8,506.4 296.6,506.4 300.4,506.4 304.1,506.4 304.1,487.9 	"/>
	<polygon id="_x34__16_" class="st5" points="281.7,515.7 277.9,515.7 277.9,534.2 281.7,534.2 285.4,534.2 285.4,515.7 	"/>
	<polygon id="_x34__17_" class="st5" points="289.2,543.6 285.4,543.6 281.7,543.6 277.9,543.6 274.1,543.6 270.4,543.6 
		266.6,543.6 262.9,543.6 259.1,543.6 255.3,543.6 251.6,543.6 247.8,543.6 244.1,543.6 240.3,543.6 236.5,543.6 232.8,543.6 
		229,543.6 225.2,543.6 221.5,543.6 221.5,562.1 225.2,562.1 229,562.1 232.8,562.1 236.5,562.1 240.3,562.1 244.1,562.1 
		247.8,562.1 251.6,562.1 255.3,562.1 259.1,562.1 262.9,562.1 266.6,562.1 270.4,562.1 274.1,562.1 277.9,562.1 281.7,562.1 
		285.4,562.1 289.2,562.1 293,562.1 293,543.6 	"/>
	<polygon id="_x34__18_" class="st3" points="345.6,571.4 341.9,571.4 338.1,571.4 334.3,571.4 330.6,571.4 326.8,571.4 323,571.4 
		319.3,571.4 319.3,589.9 323,589.9 326.8,589.9 330.6,589.9 334.3,589.9 338.1,589.9 341.9,589.9 345.6,589.9 349.4,589.9 
		349.4,571.4 	"/>
	<g id="UnpredPhysWork">
		<g>
			<path d="M185.5-53.4l-3.4,3.4c-1.3,1.3-1.3,2.4-0.5,3.2c0.8,0.8,2,0.8,3.2-0.4l3.4-3.4l0.7,0.7l-3.3,3.3
				c-1.8,1.8-3.4,1.6-4.6,0.3c-1.2-1.2-1.4-2.7,0.4-4.5l3.4-3.4L185.5-53.4z"/>
			<path d="M187.5-46c0.4-0.4,0.8-0.8,1.1-1.1l0.7,0.7l-0.6,0.7l0,0c0.6-0.2,1.5-0.1,2.1,0.6c0.6,0.6,1.1,1.8-0.3,3.2l-2.5,2.5
				l-0.7-0.7l2.4-2.4c0.7-0.7,1-1.5,0.3-2.2c-0.5-0.5-1.2-0.5-1.8-0.2c-0.1,0.1-0.3,0.2-0.4,0.3l-2.5,2.5l-0.7-0.7L187.5-46z"/>
			<path d="M191.9-41c0.5-0.5,0.9-1,1.3-1.4l0.7,0.7l-0.7,0.7l0,0c0.8-0.2,1.6,0,2.3,0.7c1,1,0.9,2.6-0.3,3.8
				c-1.5,1.5-3.1,1.3-4.1,0.3c-0.5-0.5-0.8-1.3-0.6-1.9l0,0l-2.2,2.2l-0.7-0.7L191.9-41z M191.6-39.2c-0.1,0.1-0.2,0.2-0.3,0.3
				c-0.4,0.7-0.3,1.5,0.2,2c0.8,0.8,1.9,0.6,2.8-0.3c0.8-0.8,1.1-2,0.3-2.7c-0.5-0.5-1.3-0.6-2.1-0.2c-0.1,0.1-0.3,0.2-0.4,0.3
				L191.6-39.2z"/>
			<path d="M196.8-36.3c0.5-0.5,0.9-0.9,1.2-1.3l0.7,0.7l-0.8,0.8l0,0c0.7-0.4,1.5-0.3,2,0.2c0.1,0.1,0.1,0.2,0.2,0.2l-0.7,0.7
				c-0.1-0.1-0.1-0.2-0.2-0.3c-0.5-0.5-1.3-0.5-2,0c-0.1,0.1-0.3,0.2-0.4,0.3l-2.2,2.2l-0.7-0.7L196.8-36.3z"/>
			<path d="M199-32.3c-1,1-0.8,2.1,0,2.8c0.5,0.5,0.9,0.8,1.3,0.9l-0.4,0.7c-0.4-0.1-1-0.5-1.6-1.1c-1.3-1.3-1.2-2.8,0.1-4.1
				c1.2-1.2,2.9-1.5,4.1-0.3c1.3,1.3,0.5,2.9-0.2,3.6c-0.2,0.2-0.3,0.3-0.4,0.3L199-32.3z M201.8-30.6c0.5-0.5,1-1.4,0.2-2.2
				s-1.8-0.4-2.4,0.1L201.8-30.6z"/>
			<path d="M210.5-29l-5,5c-0.4,0.4-0.8,0.8-1,1.1l-0.6-0.7l0.7-0.7l0,0c-0.7,0.2-1.5,0.1-2.2-0.6c-1-1-0.9-2.6,0.3-3.8
				c1.4-1.4,3-1.4,4-0.4c0.6,0.6,0.8,1.3,0.6,1.9l0,0l2.5-2.5L210.5-29z M206.2-26.1c0.1-0.1,0.2-0.2,0.3-0.3
				c0.4-0.6,0.3-1.4-0.2-1.9c-0.8-0.8-1.9-0.6-2.8,0.4c-0.8,0.8-1.1,1.9-0.3,2.7c0.5,0.5,1.3,0.6,2,0.2c0.1-0.1,0.2-0.2,0.4-0.3
				L206.2-26.1z"/>
			<path d="M211.8-26.1c-0.2,0.3-0.6,0.3-0.9,0s-0.2-0.7,0-0.9c0.3-0.3,0.7-0.3,0.9,0C212.1-26.8,212.1-26.4,211.8-26.1z
				 M205.7-21.7l4.1-4.1l0.7,0.7l-4.1,4.1L205.7-21.7z"/>
			<path d="M210.8-17c-0.3-0.1-0.9-0.4-1.4-0.9c-1.2-1.2-1.2-2.9,0.1-4.1c1.3-1.3,3-1.3,4.4,0c0.4,0.4,0.7,0.9,0.8,1.2l-0.7,0.4
				c-0.1-0.3-0.3-0.7-0.7-1.1c-0.9-0.9-2.1-0.8-3,0.1s-0.9,2.1-0.1,3c0.4,0.4,0.8,0.6,1.1,0.7L210.8-17z"/>
			<path d="M217.8-20.2l-1.2,1.2l1.1,1.1l-0.6,0.6l-1.1-1.1l-2.2,2.2c-0.5,0.5-0.7,0.9-0.2,1.4c0.2,0.2,0.4,0.3,0.5,0.4l-0.5,0.6
				c-0.2-0.1-0.5-0.3-0.8-0.6s-0.5-0.7-0.5-1.1s0.3-0.9,0.8-1.4l2.2-2.2l-0.6-0.6l0.6-0.6l0.6,0.6l1-1L217.8-20.2z"/>
			<path d="M216.7-10.7l0.5-0.6l0,0c-0.6,0.1-1.3-0.1-1.9-0.6c-0.8-0.8-0.7-1.8-0.1-2.4c1-1,2.4-0.7,4,0.9l0.1-0.1
				c0.3-0.3,0.9-1,0-1.9c-0.4-0.4-0.9-0.7-1.4-0.8l0.3-0.7c0.6,0.1,1.2,0.5,1.7,1c1.3,1.3,0.7,2.4-0.1,3.2l-1.5,1.5
				c-0.4,0.4-0.7,0.7-0.9,1.1L216.7-10.7z M218.7-12.9c-0.8-0.8-1.9-1.6-2.7-0.8c-0.5,0.5-0.4,1,0,1.4c0.5,0.5,1.2,0.5,1.7,0.3
				c0.1-0.1,0.2-0.1,0.3-0.2L218.7-12.9z"/>
			<path d="M218.5-9c0.3-0.3,0.7-0.7,1.1-1l5-5l0.7,0.7l-2.6,2.6l0,0c0.7-0.2,1.5,0,2.2,0.6c1,1,0.9,2.6-0.4,3.8
				c-1.5,1.5-3.1,1.3-4,0.4c-0.6-0.6-0.8-1.3-0.6-2.1l0,0l-0.7,0.6L218.5-9z M220.9-9.8c-0.1,0.1-0.2,0.2-0.2,0.3
				c-0.4,0.7-0.3,1.5,0.2,2c0.8,0.8,1.9,0.6,2.8-0.3c0.8-0.8,1.1-2,0.3-2.7c-0.5-0.5-1.3-0.6-2.1-0.2c-0.1,0.1-0.2,0.1-0.3,0.3
				L220.9-9.8z"/>
			<path d="M229.4-10.1l0.7,0.7l-6,6l-0.7-0.7L229.4-10.1z"/>
			<path d="M227.7-3.6c-1,1-0.8,2.1,0,2.8c0.5,0.5,0.9,0.8,1.3,0.9l-0.4,0.7c-0.4-0.1-1-0.5-1.6-1.1c-1.3-1.3-1.2-2.8,0.1-4.1
				c1.2-1.2,2.9-1.5,4.1-0.3c1.3,1.3,0.5,2.9-0.2,3.6c-0.2,0.2-0.3,0.3-0.4,0.3L227.7-3.6z M230.4-1.9c0.5-0.5,1-1.4,0.2-2.2
				c-0.8-0.8-1.8-0.4-2.4,0.1L230.4-1.9z"/>
			<path d="M237.1-1.7c0.4,0.3,0.9,0.7,1.5,1.3c0.7,0.7,1.1,1.4,1.1,2.1c0,0.6-0.2,1.2-0.7,1.7s-1.1,0.8-1.7,0.8
				c-0.8,0-1.7-0.4-2.4-1.1c-0.2-0.2-0.4-0.4-0.5-0.6l-2.3,2.3l-0.7-0.7L237.1-1.7z M235.1,1.8c0.1,0.2,0.3,0.4,0.6,0.7
				c0.9,0.9,1.9,1,2.7,0.2c0.8-0.8,0.6-1.7-0.2-2.5c-0.3-0.3-0.6-0.5-0.8-0.6L235.1,1.8z"/>
			<path d="M241.9,2.4l0.7,0.7L240,5.7l0,0c0.3-0.1,0.7-0.1,1.1,0c0.3,0.1,0.7,0.3,1,0.6c0.6,0.6,1.1,1.8-0.3,3.2l-2.4,2.4l-0.7-0.7
				l2.4-2.4c0.7-0.7,1-1.5,0.3-2.2c-0.5-0.5-1.2-0.5-1.7-0.3c-0.1,0.1-0.3,0.2-0.4,0.3l-2.5,2.5l-0.9-0.7L241.9,2.4z"/>
			<path d="M244.9,9.2l-1.5,3.3c-0.2,0.4-0.4,0.8-0.6,1.1l0,0c0.3-0.2,0.7-0.4,1.1-0.6l3.2-1.6l0.8,0.8l-4,1.8c-1.9,0.9-3,1.2-4,1.2
				c-0.7,0-1.2-0.3-1.4-0.4l0.4-0.8c0.2,0.1,0.6,0.3,1,0.3s0.9,0,1.5-0.2c0.1,0,0.2-0.1,0.2-0.1s0.1-0.1,0.1-0.2l2.3-5.3L244.9,9.2z
				"/>
			<path d="M245.1,16.1c0.1,0.4,0.3,0.9,0.7,1.3c0.5,0.5,1.1,0.5,1.4,0.2c0.4-0.4,0.3-0.8,0-1.5c-0.5-1-0.4-1.8,0.1-2.2
				c0.7-0.7,1.7-0.7,2.6,0.2c0.4,0.4,0.7,0.9,0.8,1.3l-0.7,0.4c-0.1-0.3-0.2-0.7-0.6-1.1s-0.9-0.4-1.2-0.1c-0.3,0.3-0.2,0.7,0.1,1.5
				c0.4,1,0.4,1.7-0.2,2.3c-0.7,0.7-1.8,0.7-2.8-0.3c-0.4-0.4-0.8-1-0.9-1.4L245.1,16.1z"/>
			<path d="M253.9,15.9c-0.2,0.3-0.6,0.3-0.9,0s-0.2-0.7,0-0.9c0.3-0.3,0.7-0.3,0.9,0C254.2,15.3,254.1,15.6,253.9,15.9z
				 M247.8,20.3l4.1-4.1l0.7,0.7l-4.1,4.1L247.8,20.3z"/>
			<path d="M252.9,25.1c-0.3-0.1-0.9-0.4-1.4-0.9c-1.2-1.2-1.2-2.9,0.1-4.1c1.3-1.3,3-1.3,4.4,0c0.4,0.4,0.7,0.9,0.8,1.2l-0.7,0.4
				c-0.1-0.3-0.3-0.7-0.7-1.1c-0.9-0.9-2.1-0.8-3,0.1s-0.9,2.1-0.1,3c0.4,0.4,0.8,0.6,1.1,0.7L252.9,25.1z"/>
			<path d="M255.8,28.4l0.5-0.6l0,0c-0.6,0.1-1.3-0.1-1.9-0.6c-0.8-0.8-0.7-1.8-0.1-2.4c1-1,2.4-0.7,4,0.9l0.1-0.1
				c0.3-0.3,0.9-1,0-1.9c-0.4-0.4-0.9-0.7-1.4-0.8l0.3-0.7c0.6,0.1,1.2,0.5,1.7,1c1.3,1.3,0.7,2.4-0.1,3.2l-1.5,1.5
				c-0.4,0.4-0.7,0.7-0.9,1.1L255.8,28.4z M257.8,26.2c-0.8-0.8-1.9-1.6-2.7-0.8c-0.5,0.5-0.4,1,0,1.4c0.5,0.5,1.2,0.5,1.7,0.3
				c0.1-0.1,0.2-0.1,0.3-0.2L257.8,26.2z"/>
			<path d="M263.7,24.2l0.7,0.7l-6,6l-0.7-0.7L263.7,24.2z"/>
			<path d="M262.1,34.7l4.3-7.2l0.8,0.8l-2.2,3.6c-0.5,0.9-1.1,1.7-1.6,2.4l0,0c0.7-0.5,1.5-1,2.5-1.5l3.6-2.1l0.8,0.8l-2.2,3.6
				c-0.5,0.8-1,1.7-1.6,2.4l0,0c0.7-0.5,1.5-1,2.4-1.5l3.6-2.1l0.8,0.8l-7.3,4.1l-0.8-0.8l2.3-3.7c0.6-0.9,1-1.6,1.5-2.2l0,0
				c-0.7,0.5-1.4,0.9-2.3,1.4l-3.8,1.9L262.1,34.7z"/>
			<path d="M273.9,42.2c-1.5,1.5-3.2,1.1-4.2,0.1c-1.1-1.1-1.2-2.8,0.1-4.1c1.4-1.4,3.1-1.3,4.2-0.1C275.2,39.3,275.1,41,273.9,42.2
				z M270.6,39c-0.9,0.9-1.1,2.1-0.3,2.8c0.7,0.7,1.9,0.6,2.8-0.3c0.7-0.7,1.2-1.9,0.3-2.8C272.5,37.8,271.3,38.2,270.6,39z"/>
			<path d="M275.5,42.4c0.5-0.5,0.9-0.9,1.2-1.3l0.7,0.7l-0.8,0.8l0,0c0.7-0.4,1.5-0.3,2,0.2c0.1,0.1,0.1,0.2,0.2,0.2l-0.7,0.7
				c-0.1-0.1-0.1-0.2-0.2-0.3c-0.5-0.5-1.3-0.5-2,0c-0.1,0.1-0.3,0.2-0.4,0.3l-2.2,2.2l-0.7-0.7L275.5,42.4z"/>
			<path d="M278.5,46.6L278.5,46.6c0.3,0,0.6-0.1,0.8-0.1l2.6-0.2l0.9,0.9l-3.3,0.1l-0.6,4.2l-0.9-0.9l0.6-3.4h-0.8l-1.5,1.5
				l-0.7-0.7l6-6l0.7,0.7L278.5,46.6z"/>
		</g>
	</g>
</g>
<g id="data_collection">
	<polygon id="_x35__38_" class="st8" points="243.4,74.6 239.6,74.6 235.9,74.6 232.1,74.6 228.3,74.6 224.6,74.6 220.8,74.6 
		217.1,74.6 217.1,93.1 220.8,93.1 224.6,93.1 228.3,93.1 232.1,93.1 235.9,93.1 239.6,93.1 243.4,93.1 247.2,93.1 247.2,74.6 	"/>
	<polygon id="_x35__37_" class="st8" points="296.6,101.2 292.9,101.2 289.1,101.2 285.3,101.2 281.6,101.2 277.8,101.2 274,101.2 
		270.3,101.2 266.5,101.2 262.8,101.2 259,101.2 255.2,101.2 251.5,101.2 247.7,101.2 244,101.2 240.2,101.2 236.4,101.2 
		232.7,101.2 228.9,101.2 225.1,101.2 221.4,101.2 217.6,101.2 217.6,119.7 221.4,119.7 225.1,119.7 228.9,119.7 232.7,119.7 
		236.4,119.7 240.2,119.7 244,119.7 247.7,119.7 251.5,119.7 255.2,119.7 259,119.7 262.8,119.7 266.5,119.7 270.3,119.7 274,119.7 
		277.8,119.7 281.6,119.7 285.3,119.7 289.1,119.7 292.9,119.7 296.6,119.7 300.4,119.7 300.4,101.2 	"/>
	<polygon id="_x35__36_" class="st8" points="319.2,155.6 315.4,155.6 311.7,155.6 307.9,155.6 304.1,155.6 300.4,155.6 
		296.6,155.6 292.9,155.6 289.1,155.6 285.3,155.6 281.6,155.6 277.8,155.6 274,155.6 270.3,155.6 266.5,155.6 262.8,155.6 
		259,155.6 255.2,155.6 251.5,155.6 247.7,155.6 244,155.6 240.2,155.6 240.2,174 244,174 247.7,174 251.5,174 255.2,174 259,174 
		262.8,174 266.5,174 270.3,174 274,174 277.8,174 281.6,174 285.3,174 289.1,174 292.9,174 296.6,174 300.4,174 304.1,174 
		307.9,174 311.7,174 315.4,174 319.2,174 322.9,174 322.9,155.6 	"/>
	<polygon id="_x35__35_" class="st8" points="292.9,183.4 289.1,183.4 285.3,183.4 281.6,183.4 277.8,183.4 274,183.4 270.3,183.4 
		266.5,183.4 262.8,183.4 259,183.4 255.2,183.4 251.5,183.4 247.7,183.4 244,183.4 240.2,183.4 240.2,201.9 244,201.9 247.7,201.9 
		251.5,201.9 255.2,201.9 259,201.9 262.8,201.9 266.5,201.9 270.3,201.9 274,201.9 277.8,201.9 281.6,201.9 285.3,201.9 
		289.1,201.9 292.9,201.9 296.6,201.9 296.6,183.4 	"/>
	<polygon id="_x35__34_" class="st8" points="353,211.3 349.3,211.3 345.5,211.3 341.8,211.3 338,211.3 334.2,211.3 330.5,211.3 
		326.7,211.3 322.9,211.3 319.2,211.3 315.4,211.3 311.7,211.3 307.9,211.3 304.1,211.3 300.4,211.3 296.6,211.3 292.9,211.3 
		289.1,211.3 285.3,211.3 281.6,211.3 277.8,211.3 277.8,229.8 281.6,229.8 285.3,229.8 289.1,229.8 292.9,229.8 296.6,229.8 
		300.4,229.8 304.1,229.8 307.9,229.8 311.7,229.8 315.4,229.8 319.2,229.8 322.9,229.8 326.7,229.8 330.5,229.8 334.2,229.8 
		338,229.8 341.8,229.8 345.5,229.8 349.3,229.8 353,229.8 356.8,229.8 356.8,211.3 	"/>
	<polygon id="_x35__33_" class="st8" points="326.7,239.2 322.9,239.2 319.2,239.2 315.4,239.2 311.7,239.2 307.9,239.2 
		304.1,239.2 300.4,239.2 296.6,239.2 292.9,239.2 289.1,239.2 285.3,239.2 281.6,239.2 277.8,239.2 274,239.2 274,257.7 
		277.8,257.7 281.6,257.7 285.3,257.7 289.1,257.7 292.9,257.7 296.6,257.7 300.4,257.7 304.1,257.7 307.9,257.7 311.7,257.7 
		315.4,257.7 319.2,257.7 322.9,257.7 326.7,257.7 330.5,257.7 330.5,239.2 	"/>
	<polygon id="_x35__32_" class="st8" points="383.1,267.1 379.4,267.1 375.6,267.1 371.8,267.1 368.1,267.1 364.3,267.1 
		360.6,267.1 356.8,267.1 353,267.1 349.3,267.1 345.5,267.1 341.7,267.1 338,267.1 334.2,267.1 330.5,267.1 330.5,285.6 
		334.2,285.6 338,285.6 341.7,285.6 345.5,285.6 349.3,285.6 353,285.6 356.8,285.6 360.6,285.6 364.3,285.6 368.1,285.6 
		371.8,285.6 375.6,285.6 379.4,285.6 383.1,285.6 386.9,285.6 386.9,267.1 	"/>
	<polygon id="_x35__31_" class="st8" points="360.6,294.8 356.8,294.8 353,294.8 349.3,294.8 345.5,294.8 341.7,294.8 338,294.8 
		334.2,294.8 330.5,294.8 326.7,294.8 322.9,294.8 319.2,294.8 315.4,294.8 311.7,294.8 307.9,294.8 304.1,294.8 300.4,294.8 
		296.6,294.8 292.8,294.8 289.1,294.8 285.3,294.8 281.6,294.8 277.8,294.8 277.8,313.3 281.6,313.3 285.3,313.3 289.1,313.3 
		292.8,313.3 296.6,313.3 300.4,313.3 304.1,313.3 307.9,313.3 311.7,313.3 315.4,313.3 319.2,313.3 322.9,313.3 326.7,313.3 
		330.5,313.3 334.2,313.3 338,313.3 341.7,313.3 345.5,313.3 349.3,313.3 353,313.3 356.8,313.3 360.6,313.3 364.3,313.3 
		364.3,294.8 	"/>
	<polygon id="_x35__30_" class="st8" points="345.6,321.5 341.9,321.5 338.1,321.5 334.3,321.5 330.6,321.5 326.8,321.5 323,321.5 
		319.3,321.5 315.5,321.5 311.8,321.5 308,321.5 304.2,321.5 300.5,321.5 296.7,321.5 293,321.5 289.2,321.5 285.4,321.5 285.4,340 
		289.2,340 293,340 296.7,340 300.5,340 304.2,340 308,340 311.8,340 315.5,340 319.3,340 323,340 326.8,340 330.6,340 334.3,340 
		338.1,340 341.9,340 345.6,340 349.4,340 349.4,321.5 	"/>
	<polygon id="_x35__29_" class="st9" points="330.6,349.1 326.8,349.1 323,349.1 319.3,349.1 315.5,349.1 311.8,349.1 308,349.1 
		304.2,349.1 300.5,349.1 296.7,349.1 293,349.1 289.2,349.1 285.4,349.1 281.7,349.1 277.9,349.1 274.1,349.1 274.1,367.6 
		277.9,367.6 281.7,367.6 285.4,367.6 289.2,367.6 293,367.6 296.7,367.6 300.5,367.6 304.2,367.6 308,367.6 311.8,367.6 
		315.5,367.6 319.3,367.6 323,367.6 326.8,367.6 330.6,367.6 334.3,367.6 334.3,349.1 	"/>
	<polygon id="_x35__28_" class="st10" points="368.2,376.8 364.4,376.8 360.7,376.8 356.9,376.8 353.1,376.8 349.4,376.8 
		345.6,376.8 341.9,376.8 338.1,376.8 334.3,376.8 330.6,376.8 326.8,376.8 323,376.8 323,395.3 326.8,395.3 330.6,395.3 
		334.3,395.3 338.1,395.3 341.9,395.3 345.6,395.3 349.4,395.3 353.1,395.3 356.9,395.3 360.7,395.3 364.4,395.3 368.2,395.3 
		372,395.3 372,376.8 	"/>
	<polygon id="_x35__27_" class="st10" points="356.9,404.5 353.1,404.5 349.4,404.5 345.6,404.5 341.9,404.5 338.1,404.5 
		334.3,404.5 330.6,404.5 326.8,404.5 323,404.5 319.3,404.5 315.5,404.5 311.8,404.5 308,404.5 304.2,404.5 300.5,404.5 300.5,423 
		304.2,423 308,423 311.8,423 315.5,423 319.3,423 323,423 326.8,423 330.6,423 334.3,423 338.1,423 341.9,423 345.6,423 349.4,423 
		353.1,423 356.9,423 360.7,423 360.7,404.5 	"/>
	<polygon id="_x35__26_" class="st9" points="375.7,432.2 372,432.2 368.2,432.2 364.4,432.2 360.7,432.2 356.9,432.2 353.1,432.2 
		349.4,432.2 345.6,432.2 341.9,432.2 338.1,432.2 334.3,432.2 330.6,432.2 326.8,432.2 323,432.2 319.3,432.2 315.5,432.2 
		311.8,432.2 308,432.2 304.2,432.2 300.5,432.2 300.5,450.7 304.2,450.7 308,450.7 311.8,450.7 315.5,450.7 319.3,450.7 323,450.7 
		326.8,450.7 330.6,450.7 334.3,450.7 338.1,450.7 341.9,450.7 345.6,450.7 349.4,450.7 353.1,450.7 356.9,450.7 360.7,450.7 
		364.4,450.7 368.2,450.7 372,450.7 375.7,450.7 379.5,450.7 379.5,432.2 	"/>
	<polygon id="_x35__25_" class="st9" points="338,460.1 334.2,460.1 330.5,460.1 326.7,460.1 322.9,460.1 319.2,460.1 315.4,460.1 
		311.6,460.1 307.9,460.1 304.1,460.1 300.4,460.1 296.6,460.1 292.8,460.1 289.1,460.1 285.3,460.1 281.6,460.1 277.8,460.1 
		274,460.1 270.3,460.1 266.5,460.1 266.5,478.6 270.3,478.6 274,478.6 277.8,478.6 281.6,478.6 285.3,478.6 289.1,478.6 
		292.8,478.6 296.6,478.6 300.4,478.6 304.1,478.6 307.9,478.6 311.6,478.6 315.4,478.6 319.2,478.6 322.9,478.6 326.7,478.6 
		330.5,478.6 334.2,478.6 338,478.6 341.7,478.6 341.7,460.1 	"/>
	<polygon id="_x35__24_" class="st10" points="360.6,487.9 356.8,487.9 353,487.9 349.3,487.9 345.5,487.9 341.7,487.9 338,487.9 
		334.2,487.9 330.5,487.9 326.7,487.9 322.9,487.9 319.2,487.9 315.4,487.9 311.6,487.9 307.9,487.9 304.1,487.9 304.1,506.4 
		307.9,506.4 311.6,506.4 315.4,506.4 319.2,506.4 322.9,506.4 326.7,506.4 330.5,506.4 334.2,506.4 338,506.4 341.7,506.4 
		345.5,506.4 349.3,506.4 353,506.4 356.8,506.4 360.6,506.4 364.3,506.4 364.3,487.9 	"/>
	<polygon id="_x35__23_" class="st9" points="353.1,515.7 349.4,515.7 345.6,515.7 341.9,515.7 338.1,515.7 334.3,515.7 
		330.6,515.7 326.8,515.7 323,515.7 319.3,515.7 315.5,515.7 311.8,515.7 308,515.7 304.2,515.7 300.5,515.7 296.7,515.7 293,515.7 
		289.2,515.7 285.4,515.7 285.4,534.2 289.2,534.2 293,534.2 296.7,534.2 300.5,534.2 304.2,534.2 308,534.2 311.8,534.2 
		315.5,534.2 319.3,534.2 323,534.2 326.8,534.2 330.6,534.2 334.3,534.2 338.1,534.2 341.9,534.2 345.6,534.2 349.4,534.2 
		353.1,534.2 356.9,534.2 356.9,515.7 	"/>
	<polygon id="_x35__22_" class="st9" points="353.1,543.6 349.4,543.6 345.6,543.6 341.9,543.6 338.1,543.6 334.3,543.6 
		330.6,543.6 326.8,543.6 323,543.6 319.3,543.6 315.5,543.6 311.8,543.6 308,543.6 304.2,543.6 300.5,543.6 296.7,543.6 293,543.6 
		293,562.1 296.7,562.1 300.5,562.1 304.2,562.1 308,562.1 311.8,562.1 315.5,562.1 319.3,562.1 323,562.1 326.8,562.1 330.6,562.1 
		334.3,562.1 338.1,562.1 341.9,562.1 345.6,562.1 349.4,562.1 353.1,562.1 356.9,562.1 356.9,543.6 	"/>
	<polygon id="_x35__21_" class="st9" points="394.5,571.4 390.8,571.4 387,571.4 383.2,571.4 379.5,571.4 375.7,571.4 372,571.4 
		368.2,571.4 364.4,571.4 360.7,571.4 356.9,571.4 353.1,571.4 349.4,571.4 349.4,589.9 353.1,589.9 356.9,589.9 360.7,589.9 
		364.4,589.9 368.2,589.9 372,589.9 375.7,589.9 379.5,589.9 383.2,589.9 387,589.9 390.8,589.9 394.5,589.9 398.3,589.9 
		398.3,571.4 	"/>
	<polygon id="_x35__20_" class="st11" points="375.6,129.1 371.8,129.1 368.1,129.1 364.3,129.1 360.6,129.1 356.8,129.1 353,129.1 
		349.3,129.1 345.5,129.1 341.8,129.1 338,129.1 338,147.6 341.8,147.6 345.5,147.6 349.3,147.6 353,147.6 356.8,147.6 360.6,147.6 
		364.3,147.6 368.1,147.6 371.8,147.6 375.6,147.6 379.4,147.6 379.4,129.1 	"/>
	<g id="DataCollection">
		<g>
			<path d="M284.3-9.4c0.5,0.4,1.1,0.9,1.7,1.5c1.1,1.1,1.6,2.1,1.6,3c0,1-0.3,1.9-1.2,2.9c-0.9,0.9-2,1.4-3,1.4
				c-1.1,0-2.2-0.6-3.3-1.7c-0.5-0.5-0.9-1-1.3-1.4L284.3-9.4z M280-3.6c0.2,0.2,0.4,0.5,0.7,0.8c1.6,1.6,3.3,1.6,4.9,0
				c1.4-1.3,1.5-3-0.1-4.5c-0.4-0.4-0.7-0.6-0.9-0.8L280-3.6z"/>
			<path d="M286.5,4.2l0.5-0.6l0,0c-0.6,0.1-1.3-0.1-1.9-0.6c-0.8-0.8-0.7-1.8-0.1-2.4c1-1,2.4-0.7,4,0.9l0.1-0.1
				c0.3-0.3,0.9-1,0-1.9c-0.4-0.4-0.9-0.7-1.4-0.8L288-2c0.6,0.1,1.2,0.5,1.7,1c1.3,1.3,0.7,2.4-0.1,3.2l-1.5,1.5
				c-0.4,0.4-0.7,0.7-0.9,1.1L286.5,4.2z M288.5,1.9c-0.8-0.8-1.9-1.6-2.7-0.8c-0.5,0.5-0.4,1,0,1.4c0.5,0.5,1.2,0.5,1.7,0.3
				c0.1-0.1,0.2-0.1,0.3-0.2L288.5,1.9z"/>
			<path d="M294.5,1.6l-1.2,1.2l1.1,1.1l-0.6,0.6l-1.1-1.1l-2.2,2.2c-0.5,0.5-0.7,0.9-0.2,1.4c0.2,0.2,0.4,0.3,0.5,0.4L290.3,8
				c-0.2-0.1-0.5-0.3-0.8-0.6c-0.3-0.3-0.5-0.7-0.5-1.1s0.3-0.9,0.8-1.4l2.2-2.2l-0.6-0.6l0.6-0.6l0.6,0.6l1-1L294.5,1.6z"/>
			<path d="M293.4,11l0.5-0.6l0,0c-0.6,0.1-1.3-0.1-1.9-0.6c-0.8-0.8-0.7-1.8-0.1-2.4c1-1,2.4-0.7,4,0.9l0.1-0.1
				c0.3-0.3,0.9-1,0-1.9c-0.4-0.4-0.9-0.7-1.4-0.8l0.3-0.7c0.6,0.1,1.2,0.5,1.7,1c1.3,1.3,0.7,2.4-0.1,3.2l-1.5,1.5
				c-0.4,0.4-0.7,0.7-0.9,1.1L293.4,11z M295.4,8.8c-0.8-0.8-1.9-1.6-2.7-0.8c-0.5,0.5-0.4,1,0,1.4c0.5,0.5,1.2,0.5,1.7,0.3
				c0.1-0.1,0.2-0.1,0.3-0.2L295.4,8.8z"/>
			<path d="M301.2,18.5c-0.4-0.1-1.1-0.5-1.8-1.2c-1.6-1.6-1.8-3.8,0.1-5.7c1.8-1.8,4.2-1.8,6,0c0.7,0.7,1,1.3,1.1,1.6l-0.8,0.4
				c-0.1-0.4-0.4-0.9-0.9-1.4c-1.3-1.3-3.1-1.4-4.6,0.1c-1.4,1.4-1.5,3.1-0.1,4.5c0.4,0.4,1,0.8,1.4,1L301.2,18.5z"/>
			<path d="M307.6,21.1c-1.5,1.5-3.2,1.1-4.2,0.1c-1.1-1.1-1.2-2.8,0.1-4.1c1.4-1.4,3.1-1.3,4.2-0.1C309,18.2,308.9,19.8,307.6,21.1
				z M304.3,17.9c-0.9,0.9-1.1,2.1-0.3,2.8c0.7,0.7,1.9,0.6,2.8-0.3c0.7-0.7,1.2-1.9,0.3-2.8C306.3,16.7,305.1,17.1,304.3,17.9z"/>
			<path d="M312.5,18.1l0.7,0.7l-6,6l-0.7-0.7L312.5,18.1z"/>
			<path d="M314.5,20.1l0.7,0.7l-6,6l-0.7-0.7L314.5,20.1z"/>
			<path d="M312.8,26.6c-1,1-0.8,2.1,0,2.8c0.5,0.5,0.9,0.8,1.3,0.9l-0.4,0.7c-0.4-0.1-1-0.5-1.6-1.1c-1.3-1.3-1.2-2.8,0.1-4.1
				s2.9-1.5,4.1-0.3c1.3,1.3,0.5,2.9-0.2,3.6c-0.2,0.2-0.3,0.3-0.4,0.3L312.8,26.6z M315.6,28.3c0.5-0.5,1-1.4,0.2-2.2
				c-0.8-0.8-1.8-0.4-2.4,0.1L315.6,28.3z"/>
			<path d="M317.8,35.2c-0.3-0.1-0.9-0.4-1.4-0.9c-1.2-1.2-1.2-2.9,0.1-4.1c1.3-1.3,3-1.3,4.4,0c0.4,0.4,0.7,0.9,0.8,1.2l-0.7,0.4
				c-0.1-0.3-0.3-0.7-0.7-1.1c-0.9-0.9-2.1-0.8-3,0.1s-0.9,2.1-0.1,3c0.4,0.4,0.8,0.6,1.1,0.7L317.8,35.2z"/>
			<path d="M324.8,31.9l-1.2,1.2l1.1,1.1l-0.6,0.6l-1.1-1.1l-2.2,2.2c-0.5,0.5-0.7,0.9-0.2,1.4c0.2,0.2,0.4,0.3,0.5,0.4l-0.5,0.6
				c-0.2-0.1-0.5-0.3-0.8-0.6c-0.3-0.3-0.5-0.7-0.5-1.1s0.3-0.9,0.8-1.4l2.2-2.2l-0.6-0.6l0.6-0.6l0.6,0.6l1-1L324.8,31.9z"/>
			<path d="M327.6,34.7c-0.2,0.3-0.6,0.3-0.9,0s-0.2-0.7,0-0.9c0.3-0.3,0.7-0.3,0.9,0C327.8,34,327.8,34.4,327.6,34.7z M321.5,39.1
				l4.1-4.1l0.7,0.7l-4.1,4.1L321.5,39.1z"/>
			<path d="M329.3,42.7c-1.5,1.5-3.2,1.1-4.2,0.1c-1.1-1.1-1.2-2.8,0.1-4.1c1.4-1.4,3.1-1.3,4.2-0.1
				C330.6,39.8,330.5,41.5,329.3,42.7z M326,39.5c-0.9,0.9-1.1,2.1-0.3,2.8c0.7,0.7,1.9,0.6,2.8-0.3c0.7-0.7,1.2-1.9,0.3-2.8
				C327.9,38.3,326.7,38.7,326,39.5z"/>
			<path d="M331.1,42.7c0.4-0.4,0.8-0.8,1.1-1.1l0.7,0.7l-0.6,0.7l0,0c0.6-0.2,1.5-0.1,2.1,0.6c0.6,0.6,1.1,1.8-0.3,3.2l-2.5,2.5
				l-0.7-0.7l2.4-2.4c0.7-0.7,1-1.5,0.3-2.2c-0.5-0.5-1.2-0.5-1.8-0.2c-0.1,0.1-0.3,0.2-0.4,0.3l-2.5,2.5l-0.7-0.7L331.1,42.7z"/>
		</g>
	</g>
</g>
<g id="data_processing">
	<polygon id="_x36_" class="st8" points="409.5,129.1 405.7,129.1 401.9,129.1 398.2,129.1 394.4,129.1 390.7,129.1 386.9,129.1 
		383.1,129.1 379.4,129.1 379.4,147.6 383.1,147.6 386.9,147.6 390.7,147.6 394.4,147.6 398.2,147.6 401.9,147.6 405.7,147.6 
		409.5,147.6 413.2,147.6 413.2,129.1 	"/>
	<polygon id="_x36__4_" class="st11" points="281,74.6 277.3,74.6 273.5,74.6 269.7,74.6 266,74.6 262.2,74.6 258.4,74.6 
		254.7,74.6 250.9,74.6 247.2,74.6 247.2,93.1 250.9,93.1 254.7,93.1 258.4,93.1 262.2,93.1 266,93.1 269.7,93.1 273.5,93.1 
		277.3,93.1 281,93.1 284.8,93.1 284.8,74.6 	"/>
	<polygon id="_x36__2_" class="st10" points="338,101.2 334.2,101.2 330.5,101.2 326.7,101.2 322.9,101.2 319.2,101.2 315.4,101.2 
		311.7,101.2 307.9,101.2 304.1,101.2 300.4,101.2 300.4,119.7 304.1,119.7 307.9,119.7 311.7,119.7 315.4,119.7 319.2,119.7 
		322.9,119.7 326.7,119.7 330.5,119.7 334.2,119.7 338,119.7 341.8,119.7 341.8,101.2 	"/>
	<polygon id="_x36__1_" class="st11" points="371.8,155.6 368.1,155.6 364.3,155.6 360.6,155.6 356.8,155.6 353,155.6 349.3,155.6 
		345.5,155.6 341.8,155.6 338,155.6 334.2,155.6 330.5,155.6 326.7,155.6 322.9,155.6 322.9,174 326.7,174 330.5,174 334.2,174 
		338,174 341.8,174 345.5,174 349.3,174 353,174 356.8,174 360.6,174 364.3,174 368.1,174 371.8,174 375.6,174 375.6,155.6 	"/>
	<polygon id="_x36__3_" class="st8" points="398.2,183.4 394.4,183.4 390.7,183.4 386.9,183.4 383.1,183.4 379.4,183.4 375.6,183.4 
		371.8,183.4 368.1,183.4 364.3,183.4 360.6,183.4 356.8,183.4 353,183.4 349.3,183.4 345.5,183.4 341.8,183.4 338,183.4 
		334.2,183.4 330.5,183.4 326.7,183.4 322.9,183.4 319.2,183.4 315.4,183.4 311.7,183.4 307.9,183.4 304.1,183.4 300.4,183.4 
		296.6,183.4 296.6,201.9 300.4,201.9 304.1,201.9 307.9,201.9 311.7,201.9 315.4,201.9 319.2,201.9 322.9,201.9 326.7,201.9 
		330.5,201.9 334.2,201.9 338,201.9 341.8,201.9 345.5,201.9 349.3,201.9 353,201.9 356.8,201.9 360.6,201.9 364.3,201.9 
		368.1,201.9 371.8,201.9 375.6,201.9 379.4,201.9 383.1,201.9 386.9,201.9 390.7,201.9 394.4,201.9 398.2,201.9 401.9,201.9 
		401.9,183.4 	"/>
	<polygon id="_x36__5_" class="st10" points="398.2,211.3 394.4,211.3 390.7,211.3 386.9,211.3 383.1,211.3 379.4,211.3 
		375.6,211.3 371.8,211.3 368.1,211.3 364.3,211.3 360.6,211.3 356.8,211.3 356.8,229.8 360.6,229.8 364.3,229.8 368.1,229.8 
		371.8,229.8 375.6,229.8 379.4,229.8 383.1,229.8 386.9,229.8 390.7,229.8 394.4,229.8 398.2,229.8 401.9,229.8 401.9,211.3 	"/>
	<polygon id="_x36__6_" class="st10" points="368.1,239.2 364.3,239.2 360.6,239.2 356.8,239.2 353,239.2 349.3,239.2 345.5,239.2 
		341.8,239.2 338,239.2 334.2,239.2 330.5,239.2 330.5,257.7 334.2,257.7 338,257.7 341.8,257.7 345.5,257.7 349.3,257.7 353,257.7 
		356.8,257.7 360.6,257.7 364.3,257.7 368.1,257.7 371.8,257.7 371.8,239.2 	"/>
	<polygon id="_x36__7_" class="st8" points="424.5,267.1 420.7,267.1 417,267.1 413.2,267.1 409.5,267.1 405.7,267.1 401.9,267.1 
		398.2,267.1 394.4,267.1 390.6,267.1 386.9,267.1 386.9,285.6 390.6,285.6 394.4,285.6 398.2,285.6 401.9,285.6 405.7,285.6 
		409.5,285.6 413.2,285.6 417,285.6 420.7,285.6 424.5,285.6 428.3,285.6 428.3,267.1 	"/>
	<polygon id="_x36__8_" class="st10" points="409.5,294.8 405.7,294.8 401.9,294.8 398.2,294.8 394.4,294.8 390.7,294.8 
		386.9,294.8 383.1,294.8 379.4,294.8 375.6,294.8 371.8,294.8 368.1,294.8 364.3,294.8 364.3,313.3 368.1,313.3 371.8,313.3 
		375.6,313.3 379.4,313.3 383.1,313.3 386.9,313.3 390.7,313.3 394.4,313.3 398.2,313.3 401.9,313.3 405.7,313.3 409.5,313.3 
		413.2,313.3 413.2,294.8 	"/>
	<polygon id="_x36__9_" class="st10" points="420.9,321.5 417.1,321.5 413.3,321.5 409.6,321.5 405.8,321.5 402,321.5 398.3,321.5 
		394.5,321.5 390.8,321.5 387,321.5 383.2,321.5 379.5,321.5 375.7,321.5 371.9,321.5 368.2,321.5 364.4,321.5 360.7,321.5 
		356.9,321.5 353.1,321.5 349.4,321.5 349.4,340 353.1,340 356.9,340 360.7,340 364.4,340 368.2,340 371.9,340 375.7,340 379.5,340 
		383.2,340 387,340 390.8,340 394.5,340 398.3,340 402,340 405.8,340 409.6,340 413.3,340 417.1,340 420.9,340 424.6,340 
		424.6,321.5 	"/>
	<polygon id="_x36__10_" class="st8" points="450.9,349.1 447.2,349.1 443.4,349.1 439.7,349.1 435.9,349.1 432.1,349.1 
		428.4,349.1 424.6,349.1 420.9,349.1 417.1,349.1 413.3,349.1 409.6,349.1 405.8,349.1 402,349.1 398.3,349.1 394.5,349.1 
		390.8,349.1 387,349.1 383.2,349.1 379.5,349.1 375.7,349.1 372,349.1 368.2,349.1 364.4,349.1 360.7,349.1 356.9,349.1 
		353.1,349.1 349.4,349.1 345.6,349.1 341.9,349.1 338.1,349.1 334.3,349.1 334.3,367.6 338.1,367.6 341.9,367.6 345.6,367.6 
		349.4,367.6 353.1,367.6 356.9,367.6 360.7,367.6 364.4,367.6 368.2,367.6 372,367.6 375.7,367.6 379.5,367.6 383.2,367.6 
		387,367.6 390.8,367.6 394.5,367.6 398.3,367.6 402,367.6 405.8,367.6 409.6,367.6 413.3,367.6 417.1,367.6 420.9,367.6 
		424.6,367.6 428.4,367.6 432.1,367.6 435.9,367.6 439.7,367.6 443.4,367.6 447.2,367.6 450.9,367.6 454.7,367.6 454.7,349.1 	"/>
	<polygon id="_x36__11_" class="st8" points="409.6,376.8 405.8,376.8 402,376.8 398.3,376.8 394.5,376.8 390.8,376.8 387,376.8 
		383.2,376.8 379.5,376.8 375.7,376.8 372,376.8 372,395.3 375.7,395.3 379.5,395.3 383.2,395.3 387,395.3 390.8,395.3 394.5,395.3 
		398.3,395.3 402,395.3 405.8,395.3 409.6,395.3 413.3,395.3 413.3,376.8 	"/>
	<polygon id="_x36__12_" class="st8" points="424.6,404.5 420.9,404.5 417.1,404.5 413.3,404.5 409.6,404.5 405.8,404.5 402,404.5 
		398.3,404.5 394.5,404.5 390.8,404.5 387,404.5 383.2,404.5 379.5,404.5 375.7,404.5 372,404.5 368.2,404.5 364.4,404.5 
		360.7,404.5 360.7,423 364.4,423 368.2,423 372,423 375.7,423 379.5,423 383.2,423 387,423 390.8,423 394.5,423 398.3,423 402,423 
		405.8,423 409.6,423 413.3,423 417.1,423 420.9,423 424.6,423 428.4,423 428.4,404.5 	"/>
	<polygon id="_x36__13_" class="st10" points="424.6,432.2 420.9,432.2 417.1,432.2 413.3,432.2 409.6,432.2 405.8,432.2 402,432.2 
		398.3,432.2 394.5,432.2 390.8,432.2 387,432.2 383.2,432.2 379.5,432.2 379.5,450.7 383.2,450.7 387,450.7 390.8,450.7 
		394.5,450.7 398.3,450.7 402,450.7 405.8,450.7 409.6,450.7 413.3,450.7 417.1,450.7 420.9,450.7 424.6,450.7 428.4,450.7 
		428.4,432.2 	"/>
	<polygon id="_x36__14_" class="st10" points="386.9,460.1 383.1,460.1 379.4,460.1 375.6,460.1 371.8,460.1 368.1,460.1 
		364.3,460.1 360.6,460.1 356.8,460.1 353,460.1 349.3,460.1 345.5,460.1 341.7,460.1 341.7,478.6 345.5,478.6 349.3,478.6 
		353,478.6 356.8,478.6 360.6,478.6 364.3,478.6 368.1,478.6 371.8,478.6 375.6,478.6 379.4,478.6 383.1,478.6 386.9,478.6 
		390.6,478.6 390.6,460.1 	"/>
	<polygon id="_x36__15_" class="st9" points="439.5,487.9 435.8,487.9 432,487.9 428.3,487.9 424.5,487.9 420.7,487.9 417,487.9 
		413.2,487.9 409.5,487.9 405.7,487.9 401.9,487.9 398.2,487.9 394.4,487.9 390.6,487.9 386.9,487.9 383.1,487.9 379.4,487.9 
		375.6,487.9 371.8,487.9 368.1,487.9 364.3,487.9 364.3,506.4 368.1,506.4 371.8,506.4 375.6,506.4 379.4,506.4 383.1,506.4 
		386.9,506.4 390.6,506.4 394.4,506.4 398.2,506.4 401.9,506.4 405.7,506.4 409.5,506.4 413.2,506.4 417,506.4 420.7,506.4 
		424.5,506.4 428.3,506.4 432,506.4 435.8,506.4 439.5,506.4 443.3,506.4 443.3,487.9 	"/>
	<polygon id="_x36__16_" class="st9" points="443.4,515.7 439.7,515.7 435.9,515.7 432.1,515.7 428.4,515.7 424.6,515.7 
		420.9,515.7 417.1,515.7 413.3,515.7 409.6,515.7 405.8,515.7 402,515.7 398.3,515.7 394.5,515.7 390.8,515.7 387,515.7 
		383.2,515.7 379.5,515.7 375.7,515.7 372,515.7 368.2,515.7 364.4,515.7 360.7,515.7 356.9,515.7 356.9,534.2 360.7,534.2 
		364.4,534.2 368.2,534.2 372,534.2 375.7,534.2 379.5,534.2 383.2,534.2 387,534.2 390.8,534.2 394.5,534.2 398.3,534.2 402,534.2 
		405.8,534.2 409.6,534.2 413.3,534.2 417.1,534.2 420.9,534.2 424.6,534.2 428.4,534.2 432.1,534.2 435.9,534.2 439.7,534.2 
		443.4,534.2 447.2,534.2 447.2,515.7 	"/>
	<polygon id="_x36__17_" class="st9" points="443.4,543.6 439.7,543.6 435.9,543.6 432.1,543.6 428.4,543.6 424.6,543.6 
		420.9,543.6 417.1,543.6 413.3,543.6 409.6,543.6 405.8,543.6 402,543.6 398.3,543.6 394.5,543.6 390.8,543.6 387,543.6 
		383.2,543.6 379.5,543.6 375.7,543.6 372,543.6 368.2,543.6 364.4,543.6 360.7,543.6 356.9,543.6 356.9,562.1 360.7,562.1 
		364.4,562.1 368.2,562.1 372,562.1 375.7,562.1 379.5,562.1 383.2,562.1 387,562.1 390.8,562.1 394.5,562.1 398.3,562.1 402,562.1 
		405.8,562.1 409.6,562.1 413.3,562.1 417.1,562.1 420.9,562.1 424.6,562.1 428.4,562.1 432.1,562.1 435.9,562.1 439.7,562.1 
		443.4,562.1 447.2,562.1 447.2,543.6 	"/>
	<polygon id="_x36__18_" class="st10" points="432.1,571.4 428.4,571.4 424.6,571.4 420.9,571.4 417.1,571.4 413.3,571.4 
		409.6,571.4 405.8,571.4 402,571.4 398.3,571.4 398.3,589.9 402,589.9 405.8,589.9 409.6,589.9 413.3,589.9 417.1,589.9 
		420.9,589.9 424.6,589.9 428.4,589.9 432.1,589.9 435.9,589.9 435.9,571.4 	"/>
	<g id="DataProcessing">
		<g>
			<path d="M343.3-10.9c0.5,0.4,1.1,0.9,1.7,1.5c1.1,1.1,1.6,2.1,1.6,3c0,1-0.3,1.9-1.2,2.9c-0.9,0.9-2,1.4-3,1.4
				c-1.1,0-2.2-0.6-3.3-1.7c-0.5-0.5-0.9-1-1.3-1.4L343.3-10.9z M339-5.1c0.2,0.2,0.4,0.5,0.7,0.8c1.6,1.6,3.3,1.6,4.9,0
				c1.4-1.3,1.5-3-0.1-4.5c-0.4-0.4-0.7-0.6-0.9-0.8L339-5.1z"/>
			<path d="M345.6,2.7l0.5-0.6l0,0c-0.6,0.1-1.3-0.1-1.9-0.6c-0.8-0.8-0.7-1.8-0.1-2.4c1-1,2.4-0.7,4,0.9l0.1-0.1
				c0.3-0.3,0.9-1,0-1.9c-0.4-0.4-0.9-0.7-1.4-0.8l0.3-0.7c0.6,0.1,1.2,0.5,1.7,1c1.3,1.3,0.7,2.4-0.1,3.2l-1.5,1.5
				c-0.4,0.4-0.7,0.7-0.9,1.1L345.6,2.7z M347.6,0.5c-0.8-0.8-1.9-1.6-2.7-0.8c-0.5,0.5-0.4,1,0,1.4c0.5,0.5,1.2,0.5,1.7,0.3
				c0.1-0.1,0.2-0.1,0.3-0.2L347.6,0.5z"/>
			<path d="M353.5,0.1l-1.2,1.2l1.1,1.1L352.8,3l-1.1-1.1l-2.2,2.2c-0.5,0.5-0.7,0.9-0.2,1.4c0.2,0.2,0.4,0.3,0.5,0.4l-0.5,0.6
				c-0.2-0.1-0.5-0.3-0.8-0.6c-0.3-0.3-0.5-0.7-0.5-1.1s0.3-0.9,0.8-1.4l2.2-2.2l-0.6-0.6L351,0l0.6,0.6l1-1L353.5,0.1z"/>
			<path d="M352.4,9.6l0.5-0.6l0,0c-0.6,0.1-1.3-0.1-1.9-0.6c-0.8-0.8-0.7-1.8-0.1-2.4c1-1,2.4-0.7,4,0.9l0.1-0.1
				c0.3-0.3,0.9-1,0-1.9c-0.4-0.4-0.9-0.7-1.4-0.8l0.3-0.7c0.6,0.1,1.2,0.5,1.7,1c1.3,1.3,0.7,2.4-0.1,3.2L354,9.1
				c-0.4,0.4-0.7,0.7-0.9,1.1L352.4,9.6z M354.4,7.3c-0.8-0.8-1.9-1.6-2.7-0.8c-0.5,0.5-0.4,1,0,1.4c0.5,0.5,1.2,0.5,1.7,0.3
				c0.1-0.1,0.2-0.1,0.3-0.2L354.4,7.3z"/>
			<path d="M361.7,7.5c0.4,0.3,0.9,0.7,1.5,1.3c0.7,0.7,1.1,1.4,1.1,2.1c0,0.6-0.2,1.2-0.7,1.7s-1.1,0.8-1.7,0.8
				c-0.8,0-1.7-0.4-2.4-1.1c-0.2-0.2-0.4-0.4-0.5-0.6l-2.3,2.3l-0.7-0.7L361.7,7.5z M359.7,11c0.1,0.2,0.3,0.4,0.6,0.7
				c0.9,0.9,1.9,1,2.7,0.2s0.6-1.7-0.2-2.5c-0.3-0.3-0.6-0.5-0.8-0.6L359.7,11z"/>
			<path d="M363.3,14.7c0.5-0.5,0.9-0.9,1.2-1.3l0.7,0.7l-0.8,0.8l0,0c0.7-0.4,1.5-0.3,2,0.2c0.1,0.1,0.1,0.2,0.2,0.2l-0.7,0.7
				c-0.1-0.1-0.1-0.2-0.2-0.3c-0.5-0.5-1.3-0.5-2,0c-0.1,0.1-0.3,0.2-0.4,0.3l-2.2,2.2l-0.7-0.7L363.3,14.7z"/>
			<path d="M368.9,21.9c-1.5,1.5-3.2,1.1-4.2,0.1c-1.1-1.1-1.2-2.8,0.1-4.1c1.4-1.4,3.1-1.3,4.2-0.1C370.2,19,370.2,20.6,368.9,21.9
				z M365.6,18.6c-0.9,0.9-1.1,2.1-0.3,2.8c0.7,0.7,1.9,0.6,2.8-0.3c0.7-0.7,1.2-1.9,0.3-2.8C367.6,17.4,366.4,17.9,365.6,18.6z"/>
			<path d="M370.9,27.7c-0.3-0.1-0.9-0.4-1.4-0.9c-1.2-1.2-1.2-2.9,0.1-4.1c1.3-1.3,3-1.3,4.4,0c0.4,0.4,0.7,0.9,0.8,1.2l-0.7,0.4
				c-0.1-0.3-0.3-0.7-0.7-1.1c-0.9-0.9-2.1-0.8-3,0.1s-0.9,2.1-0.1,3c0.4,0.4,0.8,0.6,1.1,0.7L370.9,27.7z"/>
			<path d="M373.9,27.1c-1,1-0.8,2.1,0,2.8c0.5,0.5,0.9,0.8,1.3,0.9l-0.4,0.7c-0.4-0.1-1-0.5-1.6-1.1c-1.3-1.3-1.2-2.8,0.1-4.1
				c1.2-1.2,2.9-1.5,4.1-0.3c1.3,1.3,0.5,2.9-0.2,3.6c-0.2,0.2-0.3,0.3-0.4,0.3L373.9,27.1z M376.6,28.8c0.5-0.5,1-1.4,0.2-2.2
				c-0.8-0.8-1.8-0.4-2.4,0.1L376.6,28.8z"/>
			<path d="M376.4,32c0.1,0.4,0.3,0.9,0.7,1.3c0.5,0.5,1.1,0.5,1.4,0.2c0.4-0.4,0.3-0.8,0-1.5c-0.5-1-0.4-1.8,0.1-2.2
				c0.7-0.7,1.7-0.7,2.6,0.2c0.4,0.4,0.7,0.9,0.8,1.3l-0.7,0.4c-0.1-0.3-0.2-0.7-0.6-1.1c-0.4-0.4-0.9-0.4-1.2-0.1s-0.2,0.7,0.1,1.5
				c0.4,1,0.4,1.7-0.2,2.3c-0.7,0.7-1.8,0.7-2.8-0.3c-0.4-0.4-0.8-1-0.9-1.4L376.4,32z"/>
			<path d="M379.8,35.4c0.1,0.4,0.3,0.9,0.7,1.3c0.5,0.5,1.1,0.5,1.4,0.2c0.4-0.4,0.3-0.8,0-1.5c-0.5-1-0.4-1.8,0.1-2.2
				c0.7-0.7,1.7-0.7,2.6,0.2c0.4,0.4,0.7,0.9,0.8,1.3l-0.7,0.4c-0.1-0.3-0.2-0.7-0.6-1.1c-0.4-0.4-0.9-0.4-1.2-0.1s-0.2,0.7,0.1,1.5
				c0.4,1,0.4,1.7-0.2,2.3c-0.7,0.7-1.8,0.7-2.8-0.3c-0.4-0.4-0.8-1-0.9-1.4L379.8,35.4z"/>
			<path d="M388.6,35.2c-0.2,0.3-0.6,0.3-0.9,0c-0.3-0.3-0.2-0.7,0-0.9c0.3-0.3,0.7-0.3,0.9,0C388.9,34.5,388.9,34.9,388.6,35.2z
				 M382.5,39.6l4.1-4.1l0.7,0.7l-4.1,4.1L382.5,39.6z"/>
			<path d="M387.5,38.6c0.4-0.4,0.8-0.8,1.1-1.1l0.7,0.7l-0.6,0.7l0,0c0.6-0.2,1.5-0.1,2.1,0.6c0.6,0.6,1.1,1.8-0.3,3.2l-2.5,2.5
				l-0.7-0.7l2.4-2.4c0.7-0.7,1-1.5,0.3-2.2c-0.5-0.5-1.2-0.5-1.8-0.2c-0.1,0.1-0.3,0.2-0.4,0.3l-2.5,2.5l-0.7-0.7L387.5,38.6z"/>
			<path d="M396.8,45.7c-0.3,0.3-0.7,0.6-1.2,1.1l-2.4,2.4c-0.9,0.9-1.7,1.3-2.5,1.3s-1.5-0.5-2-1s-0.9-1.2-1-1.7l0.8-0.4
				c0.1,0.4,0.4,1,0.9,1.5c0.8,0.8,1.7,0.9,2.8-0.1l0.5-0.5l0,0c-0.6,0.2-1.4,0-2-0.6c-1-1-0.9-2.6,0.3-3.7c1.4-1.4,3.1-1.3,4-0.3
				c0.7,0.7,0.7,1.5,0.6,2l0,0l0.7-0.6L396.8,45.7z M394.4,46.6c0.1-0.1,0.2-0.2,0.3-0.4c0.3-0.6,0.3-1.3-0.3-1.8
				c-0.7-0.7-1.8-0.6-2.8,0.3c-0.8,0.8-1.1,1.9-0.3,2.7c0.5,0.5,1.2,0.6,1.8,0.3c0.2-0.1,0.3-0.2,0.5-0.3L394.4,46.6z"/>
		</g>
	</g>
</g>
<g id="predictable">
	<polygon id="_x37__38_" class="st12" points="461.6,74.6 457.8,74.6 454,74.6 450.3,74.6 446.5,74.6 442.8,74.6 439,74.6 
		435.2,74.6 431.5,74.6 427.7,74.6 424,74.6 420.2,74.6 416.4,74.6 412.7,74.6 408.9,74.6 405.1,74.6 401.4,74.6 397.6,74.6 
		393.9,74.6 390.1,74.6 386.3,74.6 382.6,74.6 378.8,74.6 375.1,74.6 371.3,74.6 367.5,74.6 363.8,74.6 360,74.6 356.2,74.6 
		352.5,74.6 348.7,74.6 345,74.6 341.2,74.6 337.4,74.6 333.7,74.6 329.9,74.6 326.2,74.6 322.4,74.6 318.6,74.6 314.9,74.6 
		311.1,74.6 307.3,74.6 303.6,74.6 299.8,74.6 296.1,74.6 292.3,74.6 288.5,74.6 284.8,74.6 284.8,93.1 288.5,93.1 292.3,93.1 
		296.1,93.1 299.8,93.1 303.6,93.1 307.3,93.1 311.1,93.1 314.9,93.1 318.6,93.1 322.4,93.1 326.2,93.1 329.9,93.1 333.7,93.1 
		337.4,93.1 341.2,93.1 345,93.1 348.7,93.1 352.5,93.1 356.2,93.1 360,93.1 363.8,93.1 367.5,93.1 371.3,93.1 375.1,93.1 
		378.8,93.1 382.6,93.1 386.3,93.1 390.1,93.1 393.9,93.1 397.6,93.1 401.4,93.1 405.1,93.1 408.9,93.1 412.7,93.1 416.4,93.1 
		420.2,93.1 424,93.1 427.7,93.1 431.5,93.1 435.2,93.1 439,93.1 442.8,93.1 446.5,93.1 450.3,93.1 454,93.1 457.8,93.1 461.6,93.1 
		465.3,93.1 465.3,74.6 	"/>
	<polygon id="_x37__37_" class="st11" points="462.1,101.2 458.4,101.2 454.6,101.2 450.8,101.2 447.1,101.2 443.3,101.2 
		439.6,101.2 435.8,101.2 432,101.2 428.3,101.2 424.5,101.2 420.7,101.2 417,101.2 413.2,101.2 409.5,101.2 405.7,101.2 
		401.9,101.2 398.2,101.2 394.4,101.2 390.7,101.2 386.9,101.2 383.1,101.2 379.4,101.2 375.6,101.2 371.8,101.2 368.1,101.2 
		364.3,101.2 360.6,101.2 356.8,101.2 353,101.2 349.3,101.2 345.5,101.2 341.8,101.2 341.8,119.7 345.5,119.7 349.3,119.7 
		353,119.7 356.8,119.7 360.6,119.7 364.3,119.7 368.1,119.7 371.8,119.7 375.6,119.7 379.4,119.7 383.1,119.7 386.9,119.7 
		390.7,119.7 394.4,119.7 398.2,119.7 401.9,119.7 405.7,119.7 409.5,119.7 413.2,119.7 417,119.7 420.7,119.7 424.5,119.7 
		428.3,119.7 432,119.7 435.8,119.7 439.6,119.7 443.3,119.7 447.1,119.7 450.8,119.7 454.6,119.7 458.4,119.7 462.1,119.7 
		465.9,119.7 465.9,101.2 	"/>
	<polygon id="_x37__36_" class="st8" points="462.1,129.1 458.4,129.1 454.6,129.1 450.8,129.1 447.1,129.1 443.3,129.1 
		439.6,129.1 435.8,129.1 432,129.1 428.3,129.1 424.5,129.1 420.7,129.1 417,129.1 413.2,129.1 413.2,147.6 417,147.6 420.7,147.6 
		424.5,147.6 428.3,147.6 432,147.6 435.8,147.6 439.6,147.6 443.3,147.6 447.1,147.6 450.8,147.6 454.6,147.6 458.4,147.6 
		462.1,147.6 465.9,147.6 465.9,129.1 	"/>
	<polygon id="_x37__35_" class="st9" points="462.1,155.6 458.4,155.6 454.6,155.6 450.8,155.6 447.1,155.6 443.3,155.6 
		439.6,155.6 435.8,155.6 432,155.6 428.3,155.6 424.5,155.6 420.7,155.6 417,155.6 413.2,155.6 409.5,155.6 405.7,155.6 
		401.9,155.6 398.2,155.6 394.4,155.6 390.7,155.6 386.9,155.6 383.1,155.6 379.4,155.6 375.6,155.6 375.6,174 379.4,174 383.1,174 
		386.9,174 390.7,174 394.4,174 398.2,174 401.9,174 405.7,174 409.5,174 413.2,174 417,174 420.7,174 424.5,174 428.3,174 432,174 
		435.8,174 439.6,174 443.3,174 447.1,174 450.8,174 454.6,174 458.4,174 462.1,174 465.9,174 465.9,155.6 	"/>
	<polygon id="_x37__34_" class="st11" points="462.1,183.4 458.4,183.4 454.6,183.4 450.8,183.4 447.1,183.4 443.3,183.4 
		439.6,183.4 435.8,183.4 432,183.4 428.3,183.4 424.5,183.4 420.7,183.4 417,183.4 413.2,183.4 409.5,183.4 405.7,183.4 
		401.9,183.4 401.9,201.9 405.7,201.9 409.5,201.9 413.2,201.9 417,201.9 420.7,201.9 424.5,201.9 428.3,201.9 432,201.9 
		435.8,201.9 439.6,201.9 443.3,201.9 447.1,201.9 450.8,201.9 454.6,201.9 458.4,201.9 462.1,201.9 465.9,201.9 465.9,183.4 	"/>
	<polygon id="_x37__33_" class="st8" points="462.1,211.3 458.4,211.3 454.6,211.3 450.8,211.3 447.1,211.3 443.3,211.3 
		439.6,211.3 435.8,211.3 432,211.3 428.3,211.3 424.5,211.3 420.7,211.3 417,211.3 413.2,211.3 409.5,211.3 405.7,211.3 
		401.9,211.3 401.9,229.8 405.7,229.8 409.5,229.8 413.2,229.8 417,229.8 420.7,229.8 424.5,229.8 428.3,229.8 432,229.8 
		435.8,229.8 439.6,229.8 443.3,229.8 447.1,229.8 450.8,229.8 454.6,229.8 458.4,229.8 462.1,229.8 465.9,229.8 465.9,211.3 	"/>
	<polygon id="_x37__32_" class="st8" points="462.1,239.2 458.4,239.2 454.6,239.2 450.8,239.2 447.1,239.2 443.3,239.2 
		439.6,239.2 435.8,239.2 432,239.2 428.3,239.2 424.5,239.2 420.7,239.2 417,239.2 413.2,239.2 409.5,239.2 405.7,239.2 
		401.9,239.2 398.2,239.2 394.4,239.2 390.7,239.2 386.9,239.2 383.1,239.2 379.4,239.2 375.6,239.2 371.8,239.2 371.8,257.7 
		375.6,257.7 379.4,257.7 383.1,257.7 386.9,257.7 390.7,257.7 394.4,257.7 398.2,257.7 401.9,257.7 405.7,257.7 409.5,257.7 
		413.2,257.7 417,257.7 420.7,257.7 424.5,257.7 428.3,257.7 432,257.7 435.8,257.7 439.6,257.7 443.3,257.7 447.1,257.7 
		450.8,257.7 454.6,257.7 458.4,257.7 462.1,257.7 465.9,257.7 465.9,239.2 	"/>
	<polygon id="_x37__31_" class="st11" points="462.1,267.1 458.4,267.1 454.6,267.1 450.8,267.1 447.1,267.1 443.3,267.1 
		439.5,267.1 435.8,267.1 432,267.1 428.3,267.1 428.3,285.6 432,285.6 435.8,285.6 439.5,285.6 443.3,285.6 447.1,285.6 
		450.8,285.6 454.6,285.6 458.4,285.6 462.1,285.6 465.9,285.6 465.9,267.1 	"/>
	<polygon id="_x37__30_" class="st11" points="462.1,294.8 458.4,294.8 454.6,294.8 450.8,294.8 447.1,294.8 443.3,294.8 
		439.6,294.8 435.8,294.8 432,294.8 428.3,294.8 424.5,294.8 420.7,294.8 417,294.8 413.2,294.8 413.2,313.3 417,313.3 420.7,313.3 
		424.5,313.3 428.3,313.3 432,313.3 435.8,313.3 439.6,313.3 443.3,313.3 447.1,313.3 450.8,313.3 454.6,313.3 458.4,313.3 
		462.1,313.3 465.9,313.3 465.9,294.8 	"/>
	<polygon id="_x37__29_" class="st10" points="462.2,321.5 458.5,321.5 454.7,321.5 450.9,321.5 447.2,321.5 443.4,321.5 
		439.7,321.5 435.9,321.5 432.1,321.5 428.4,321.5 424.6,321.5 424.6,340 428.4,340 432.1,340 435.9,340 439.7,340 443.4,340 
		447.2,340 450.9,340 454.7,340 458.5,340 462.2,340 466,340 466,321.5 	"/>
	<polygon id="_x37__28_" class="st12" points="462.2,349.1 458.5,349.1 454.7,349.1 454.7,367.6 458.5,367.6 462.2,367.6 466,367.6 
		466,349.1 	"/>
	<polygon id="_x37__27_" class="st11" points="462.2,376.8 458.5,376.8 454.7,376.8 450.9,376.8 447.2,376.8 443.4,376.8 
		439.7,376.8 435.9,376.8 432.1,376.8 428.4,376.8 424.6,376.8 420.9,376.8 417.1,376.8 413.3,376.8 413.3,395.3 417.1,395.3 
		420.9,395.3 424.6,395.3 428.4,395.3 432.1,395.3 435.9,395.3 439.7,395.3 443.4,395.3 447.2,395.3 450.9,395.3 454.7,395.3 
		458.5,395.3 462.2,395.3 466,395.3 466,376.8 	"/>
	<polygon id="_x37__26_" class="st10" points="462.2,404.5 458.5,404.5 454.7,404.5 450.9,404.5 447.2,404.5 443.4,404.5 
		439.7,404.5 435.9,404.5 432.1,404.5 428.4,404.5 428.4,423 432.1,423 435.9,423 439.7,423 443.4,423 447.2,423 450.9,423 
		454.7,423 458.5,423 462.2,423 466,423 466,404.5 	"/>
	<polygon id="_x37__25_" class="st8" points="462.2,432.2 458.5,432.2 454.7,432.2 450.9,432.2 447.2,432.2 443.4,432.2 
		439.7,432.2 435.9,432.2 432.1,432.2 428.4,432.2 428.4,450.7 432.1,450.7 435.9,450.7 439.7,450.7 443.4,450.7 447.2,450.7 
		450.9,450.7 454.7,450.7 458.5,450.7 462.2,450.7 466,450.7 466,432.2 	"/>
	<polygon id="_x37__24_" class="st9" points="462.1,460.1 458.4,460.1 454.6,460.1 450.8,460.1 447.1,460.1 443.3,460.1 
		439.5,460.1 435.8,460.1 432,460.1 428.3,460.1 424.5,460.1 420.7,460.1 417,460.1 413.2,460.1 409.5,460.1 405.7,460.1 
		401.9,460.1 398.2,460.1 394.4,460.1 390.6,460.1 390.6,478.6 394.4,478.6 398.2,478.6 401.9,478.6 405.7,478.6 409.5,478.6 
		413.2,478.6 417,478.6 420.7,478.6 424.5,478.6 428.3,478.6 432,478.6 435.8,478.6 439.5,478.6 443.3,478.6 447.1,478.6 
		450.8,478.6 454.6,478.6 458.4,478.6 462.1,478.6 465.9,478.6 465.9,460.1 	"/>
	<polygon id="_x37__23_" class="st8" points="462.1,487.9 458.4,487.9 454.6,487.9 450.8,487.9 447.1,487.9 443.3,487.9 
		443.3,506.4 447.1,506.4 450.8,506.4 454.6,506.4 458.4,506.4 462.1,506.4 465.9,506.4 465.9,487.9 	"/>
	<polygon id="_x37__22_" class="st8" points="462.2,515.7 458.5,515.7 454.7,515.7 450.9,515.7 447.2,515.7 447.2,534.2 
		450.9,534.2 454.7,534.2 458.5,534.2 462.2,534.2 466,534.2 466,515.7 	"/>
	<polygon id="_x37__21_" class="st11" points="462.2,543.6 458.5,543.6 454.7,543.6 450.9,543.6 447.2,543.6 447.2,562.1 
		450.9,562.1 454.7,562.1 458.5,562.1 462.2,562.1 466,562.1 466,543.6 	"/>
	<polygon id="_x37__20_" class="st10" points="462.2,571.4 458.5,571.4 454.7,571.4 450.9,571.4 447.2,571.4 443.4,571.4 
		439.7,571.4 435.9,571.4 435.9,589.9 439.7,589.9 443.4,589.9 447.2,589.9 450.9,589.9 454.7,589.9 458.5,589.9 462.2,589.9 
		466,589.9 466,571.4 	"/>
	<g id="PredPhysWork">
		<g>
			<path d="M367.5-44.4c0.4,0.3,0.9,0.7,1.5,1.3c0.7,0.7,1.1,1.4,1.1,2.1c0,0.6-0.2,1.2-0.7,1.7s-1.1,0.8-1.7,0.8
				c-0.8,0-1.7-0.4-2.4-1.1c-0.2-0.2-0.4-0.4-0.5-0.6l-2.3,2.3l-0.7-0.7L367.5-44.4z M365.5-40.9c0.1,0.2,0.3,0.4,0.6,0.7
				c0.9,0.9,1.9,1,2.7,0.2s0.6-1.7-0.2-2.5c-0.3-0.3-0.6-0.5-0.8-0.6L365.5-40.9z"/>
			<path d="M369.1-37.2c0.5-0.5,0.9-0.9,1.2-1.3l0.7,0.7l-0.8,0.8l0,0c0.7-0.4,1.5-0.3,2,0.2c0.1,0.1,0.1,0.2,0.2,0.2l-0.7,0.7
				c-0.1-0.1-0.1-0.2-0.2-0.3c-0.5-0.5-1.3-0.5-2,0c-0.1,0.1-0.3,0.2-0.4,0.3l-2.2,2.2l-0.7-0.7L369.1-37.2z"/>
			<path d="M371.3-33.2c-1,1-0.8,2.1,0,2.8c0.5,0.5,0.9,0.8,1.3,0.9l-0.4,0.7c-0.4-0.1-1-0.5-1.6-1.1c-1.3-1.3-1.2-2.8,0.1-4.1
				c1.2-1.2,2.9-1.5,4.1-0.3c1.3,1.3,0.5,2.9-0.2,3.6c-0.2,0.2-0.3,0.3-0.4,0.3L371.3-33.2z M374-31.5c0.5-0.5,1-1.4,0.2-2.2
				s-1.8-0.4-2.4,0.1L374-31.5z"/>
			<path d="M382.7-29.9l-5,5c-0.4,0.4-0.8,0.8-1,1.1l-0.7-0.7l0.7-0.7l0,0c-0.7,0.2-1.5,0.1-2.2-0.6c-1-1-0.9-2.6,0.3-3.8
				c1.4-1.4,3-1.4,4-0.4c0.6,0.6,0.8,1.3,0.6,1.9l0,0l2.5-2.5L382.7-29.9z M378.4-27c0.1-0.1,0.2-0.2,0.3-0.3
				c0.4-0.6,0.3-1.4-0.2-1.9c-0.8-0.8-1.9-0.6-2.8,0.4c-0.8,0.8-1.1,1.9-0.3,2.7c0.5,0.5,1.3,0.6,2,0.2c0.1-0.1,0.2-0.2,0.4-0.3
				L378.4-27z"/>
			<path d="M384.1-27.1c-0.2,0.3-0.6,0.3-0.9,0c-0.3-0.3-0.2-0.7,0-0.9c0.3-0.3,0.7-0.3,0.9,0C384.3-27.7,384.3-27.3,384.1-27.1z
				 M378-22.6l4.1-4.1l0.7,0.7l-4.1,4.1L378-22.6z"/>
			<path d="M383-17.9c-0.3-0.1-0.9-0.4-1.4-0.9c-1.2-1.2-1.2-2.9,0.1-4.1c1.3-1.3,3-1.3,4.4,0c0.4,0.4,0.7,0.9,0.8,1.2l-0.7,0.4
				c-0.1-0.3-0.3-0.7-0.7-1.1c-0.9-0.9-2.1-0.8-3,0.1s-0.9,2.1-0.1,3c0.4,0.4,0.8,0.6,1.1,0.7L383-17.9z"/>
			<path d="M390-21.1l-1.2,1.2l1.1,1.1l-0.6,0.6l-1.1-1.1l-2.2,2.2c-0.5,0.5-0.7,0.9-0.2,1.4c0.2,0.2,0.4,0.3,0.5,0.4l-0.5,0.6
				c-0.2-0.1-0.5-0.3-0.8-0.6s-0.5-0.7-0.5-1.1s0.3-0.9,0.8-1.4l2.2-2.2l-0.6-0.6l0.6-0.6l0.6,0.6l1-1L390-21.1z"/>
			<path d="M388.9-11.7l0.5-0.6l0,0c-0.6,0.1-1.3-0.1-1.9-0.6c-0.8-0.8-0.7-1.8-0.1-2.4c1-1,2.4-0.7,4,0.9l0.1-0.1
				c0.3-0.3,0.9-1,0-1.9c-0.4-0.4-0.9-0.7-1.4-0.8l0.3-0.7c0.6,0.1,1.2,0.5,1.7,1c1.3,1.3,0.7,2.4-0.1,3.2l-1.5,1.5
				c-0.4,0.4-0.7,0.7-0.9,1.1L388.9-11.7z M390.9-13.9c-0.8-0.8-1.9-1.6-2.7-0.8c-0.5,0.5-0.4,1,0,1.4c0.5,0.5,1.2,0.5,1.7,0.3
				c0.1-0.1,0.2-0.1,0.3-0.2L390.9-13.9z"/>
			<path d="M390.7-9.9c0.3-0.3,0.7-0.7,1.1-1l5-5l0.7,0.7l-2.6,2.6l0,0c0.7-0.2,1.5,0,2.2,0.6c1,1,0.9,2.6-0.4,3.8
				c-1.5,1.5-3.1,1.3-4,0.4c-0.6-0.6-0.8-1.3-0.6-2.1l0,0l-0.7,0.6L390.7-9.9z M393.1-10.7c-0.1,0.1-0.2,0.2-0.2,0.3
				c-0.4,0.7-0.3,1.5,0.2,2c0.8,0.8,1.9,0.6,2.8-0.3c0.8-0.8,1.1-2,0.3-2.7c-0.5-0.5-1.3-0.6-2.1-0.2c-0.1,0.1-0.2,0.1-0.3,0.3
				L393.1-10.7z"/>
			<path d="M401.6-11l0.7,0.7l-6,6L395.6-5L401.6-11z"/>
			<path d="M399.9-4.5c-1,1-0.8,2.1,0,2.8c0.5,0.5,0.9,0.8,1.3,0.9l-0.4,0.7c-0.4-0.1-1-0.5-1.6-1.1c-1.3-1.3-1.2-2.8,0.1-4.1
				c1.2-1.2,2.9-1.5,4.1-0.3c1.3,1.3,0.5,2.9-0.2,3.6c-0.2,0.2-0.3,0.3-0.4,0.3L399.9-4.5z M402.6-2.9c0.5-0.5,1-1.4,0.2-2.2
				C402-5.9,401-5.5,400.4-5L402.6-2.9z"/>
			<path d="M409.3-2.6c0.4,0.3,0.9,0.7,1.5,1.3c0.7,0.7,1.1,1.4,1.1,2.1c0,0.6-0.2,1.2-0.7,1.7s-1.1,0.8-1.7,0.8
				c-0.8,0-1.7-0.4-2.4-1.1c-0.2-0.2-0.4-0.4-0.5-0.6l-2.3,2.3l-0.7-0.7L409.3-2.6z M407.3,0.9c0.1,0.2,0.3,0.4,0.6,0.7
				c0.9,0.9,1.9,1,2.7,0.2s0.6-1.7-0.2-2.5c-0.3-0.3-0.6-0.5-0.8-0.6L407.3,0.9z"/>
			<path d="M414.1,1.5l0.7,0.7l-2.6,2.6l0,0c0.3-0.1,0.7-0.1,1.1,0c0.3,0.1,0.7,0.3,1,0.6c0.6,0.6,1.1,1.8-0.3,3.2l-2.4,2.4
				l-0.7-0.7l2.4-2.4c0.7-0.7,1-1.5,0.3-2.2c-0.5-0.5-1.2-0.5-1.7-0.3c-0.1,0.1-0.3,0.2-0.4,0.3L409,8.2l-0.7-0.7L414.1,1.5z"/>
			<path d="M417.1,8.3l-1.5,3.3c-0.2,0.4-0.4,0.8-0.6,1.1l0,0c0.3-0.2,0.7-0.4,1.1-0.6l3.2-1.6l0.8,0.8l-4,1.8c-1.9,0.9-3,1.2-4,1.2
				c-0.7,0-1.2-0.3-1.4-0.4l0.4-0.8c0.2,0.1,0.6,0.3,1,0.3s0.9,0,1.5-0.2c0.1,0,0.2-0.1,0.2-0.1s0.1-0.1,0.1-0.2l2.3-5.3L417.1,8.3z
				"/>
			<path d="M417.3,15.2c0.1,0.4,0.3,0.9,0.7,1.3c0.5,0.5,1.1,0.5,1.4,0.2c0.4-0.4,0.3-0.8,0-1.5c-0.5-1-0.4-1.8,0.1-2.2
				c0.7-0.7,1.7-0.7,2.6,0.2c0.4,0.4,0.7,0.9,0.8,1.3l-0.7,0.4c-0.1-0.3-0.2-0.7-0.6-1.1c-0.4-0.4-0.9-0.4-1.2-0.1s-0.2,0.7,0.1,1.5
				c0.4,1,0.4,1.7-0.2,2.3c-0.7,0.7-1.8,0.7-2.8-0.3c-0.4-0.4-0.8-1-0.9-1.4L417.3,15.2z"/>
			<path d="M426.1,15c-0.2,0.3-0.6,0.3-0.9,0c-0.3-0.3-0.2-0.7,0-0.9c0.3-0.3,0.7-0.3,0.9,0C426.4,14.4,426.4,14.7,426.1,15z
				 M420,19.4l4.1-4.1l0.7,0.7l-4.1,4.1L420,19.4z"/>
			<path d="M425.1,24.2c-0.3-0.1-0.9-0.4-1.4-0.9c-1.2-1.2-1.2-2.9,0.1-4.1c1.3-1.3,3-1.3,4.4,0c0.4,0.4,0.7,0.9,0.8,1.2l-0.7,0.4
				c-0.1-0.3-0.3-0.7-0.7-1.1c-0.9-0.9-2.1-0.8-3,0.1s-0.9,2.1-0.1,3c0.4,0.4,0.8,0.6,1.1,0.7L425.1,24.2z"/>
			<path d="M428.1,27.5l0.5-0.6l0,0c-0.6,0.1-1.3-0.1-1.9-0.6c-0.8-0.8-0.7-1.8-0.1-2.4c1-1,2.4-0.7,4,0.9l0.1-0.1
				c0.3-0.3,0.9-1,0-1.9c-0.4-0.4-0.9-0.7-1.4-0.8l0.3-0.7c0.6,0.1,1.2,0.5,1.7,1c1.3,1.3,0.7,2.4-0.1,3.2l-1.5,1.5
				c-0.4,0.4-0.7,0.7-0.9,1.1L428.1,27.5z M430.1,25.3c-0.8-0.8-1.9-1.6-2.7-0.8c-0.5,0.5-0.4,1,0,1.4c0.5,0.5,1.2,0.5,1.7,0.3
				c0.1-0.1,0.2-0.1,0.3-0.2L430.1,25.3z"/>
			<path d="M435.9,23.3l0.7,0.7l-6,6l-0.7-0.7L435.9,23.3z"/>
			<path d="M434.3,33.8l4.3-7.2l0.8,0.8l-2.2,3.6c-0.5,0.9-1.1,1.7-1.6,2.4l0,0c0.7-0.5,1.5-1,2.5-1.5l3.6-2.1l0.8,0.8l-2.2,3.6
				c-0.5,0.8-1,1.7-1.6,2.4l0,0c0.7-0.5,1.5-1,2.4-1.5l3.6-2.1l0.8,0.8l-7.3,4.1l-0.8-0.8l2.3-3.7c0.6-0.9,1-1.6,1.5-2.2l0,0
				c-0.7,0.5-1.4,0.9-2.3,1.4l-3.8,2.2L434.3,33.8z"/>
			<path d="M446.1,41.3c-1.5,1.5-3.2,1.1-4.2,0.1c-1.1-1.1-1.2-2.8,0.1-4.1c1.4-1.4,3.1-1.3,4.2-0.1
				C447.4,38.4,447.3,40.1,446.1,41.3z M442.8,38.1c-0.9,0.9-1.1,2.1-0.3,2.8c0.7,0.7,1.9,0.6,2.8-0.3c0.7-0.7,1.2-1.9,0.3-2.8
				C444.8,36.9,443.6,37.3,442.8,38.1z"/>
			<path d="M447.8,41.5c0.5-0.5,0.9-0.9,1.2-1.3l0.7,0.7l-0.8,0.8l0,0c0.7-0.4,1.5-0.3,2,0.2c0.1,0.1,0.1,0.2,0.2,0.2l-0.7,0.7
				c-0.1-0.1-0.1-0.2-0.2-0.3c-0.5-0.5-1.3-0.5-2,0c-0.1,0.1-0.3,0.2-0.4,0.3l-2.2,2.2l-0.7-0.6L447.8,41.5z"/>
			<path d="M450.7,45.7L450.7,45.7c0.3,0,0.6-0.1,0.8-0.1l2.6-0.2l0.9,0.9l-3.3,0.1l-0.6,4.2l-0.9-0.9l0.6-3.4H450l-1.5,1.5
				l-0.7-0.7l6-6l0.7,0.7L450.7,45.7z"/>
		</g>
	</g>
</g>
<g id="Livello_32">
</g>
<g id="Labels">
</g>
</svg>
